<mxfile host="app.diagrams.net" agent="Mozilla/5.0 (Windows NT 10.0; Win64; x64) AppleWebKit/537.36 (KHTML, like Gecko) Chrome/132.0.0.0 Safari/537.36" version="28.0.7">
  <diagram name="第 1 页" id="VJYp4JCaFOwKdcFwCNd8">
    <mxGraphModel dx="1426" dy="801" grid="1" gridSize="10" guides="1" tooltips="1" connect="1" arrows="1" fold="1" page="1" pageScale="1" pageWidth="827" pageHeight="1169" math="1" shadow="0">
      <root>
        <mxCell id="0" />
        <mxCell id="1" parent="0" />
        <mxCell id="PRy7USQRYNJLZitMKqTh-1" value="" style="group" parent="1" vertex="1" connectable="0">
          <mxGeometry x="850" y="40" width="80" height="50" as="geometry" />
        </mxCell>
        <mxCell id="PRy7USQRYNJLZitMKqTh-2" value="" style="group;fillColor=#FFCC99;container=0;" parent="PRy7USQRYNJLZitMKqTh-1" vertex="1" connectable="0">
          <mxGeometry width="80" height="50" as="geometry" />
        </mxCell>
        <mxCell id="PRy7USQRYNJLZitMKqTh-3" value="" style="shape=mxgraph.networks2.icon;aspect=fixed;fillColor=#EDEDED;strokeColor=#000000;gradientColor=#5B6163;network2IconShadow=1;network2bgFillColor=none;network2Icon=mxgraph.networks2.satellite_dish;network2IconXOffset=-0.0067;network2IconYOffset=0.0022;network2IconW=1.0065;network2IconH=0.9957;" parent="PRy7USQRYNJLZitMKqTh-1" vertex="1">
          <mxGeometry x="40.00333333333333" width="20.07333333333333" height="19.86" as="geometry" />
        </mxCell>
        <mxCell id="PRy7USQRYNJLZitMKqTh-4" value="" style="shape=mxgraph.signs.transportation.car_3;html=1;pointerEvents=1;fillColor=#000000;strokeColor=none;verticalLabelPosition=bottom;verticalAlign=top;align=center;sketch=0;" parent="PRy7USQRYNJLZitMKqTh-1" vertex="1">
          <mxGeometry y="20" width="80" height="30" as="geometry" />
        </mxCell>
        <mxCell id="PRy7USQRYNJLZitMKqTh-5" value="&lt;span style=&quot;&quot;&gt;&lt;font style=&quot;font-size: 18px;&quot;&gt;&lt;b&gt;ECV&lt;/b&gt;&lt;/font&gt;&lt;/span&gt;" style="rounded=0;whiteSpace=wrap;html=1;fontFamily=Times New Roman;labelBackgroundColor=none;labelBorderColor=none;textShadow=1;opacity=0;" parent="PRy7USQRYNJLZitMKqTh-1" vertex="1">
          <mxGeometry x="-10" width="60" height="20" as="geometry" />
        </mxCell>
        <mxCell id="PRy7USQRYNJLZitMKqTh-6" value="" style="endArrow=none;html=1;rounded=0;strokeWidth=2;" parent="1" edge="1">
          <mxGeometry width="50" height="50" relative="1" as="geometry">
            <mxPoint x="160" y="40" as="sourcePoint" />
            <mxPoint x="1080" y="40" as="targetPoint" />
          </mxGeometry>
        </mxCell>
        <mxCell id="PRy7USQRYNJLZitMKqTh-7" value="" style="shape=image;verticalLabelPosition=bottom;labelBackgroundColor=default;verticalAlign=top;aspect=fixed;imageAspect=0;editableCssRules=.*;image=data:image/svg+xml,PHN2ZyB4bWxuczp4bGluaz0iaHR0cDovL3d3dy53My5vcmcvMTk5OS94bGluayIgeG1sbnM9Imh0dHA6Ly93d3cudzMub3JnLzIwMDAvc3ZnIiB4bWw6c3BhY2U9InByZXNlcnZlIiB2ZXJzaW9uPSIxLjEiIGlkPSLQodC70L7QuV8xIiB2aWV3Qm94PSIwLjUyNTk4MzgxMDQyNDgwNDcgMTQzLjYwNjUyMTYwNjQ0NTMgNTExLjE4MzAxMzkxNjAxNTYgMjYxLjg1MjA1MDc4MTI1IiBoZWlnaHQ9IjQwOS4xNDM4MjkzNDU3MDMxIiB3aWR0aD0iNzk4LjcyMzQ1OTI0Mzc3NDQiPiYjeGE7JiN4YTs8Zz4mI3hhOyYjeGE7PGc+JiN4YTsmI3hhOzxnPiYjeGE7JiN4YTs8cGF0aCBmaWxsLXJ1bGU9ImV2ZW5vZGQiIGZpbGw9IiMzMzMzMzMiIGQ9Ik0yNTYuMTE1LDI1NS4yNzJjLTcuNzg0LDAuMDEtMTQuNDM4LDIuNzgyLTE5Ljk2LDguMzIxICAgICAgYy01LjUzOSw1LjUyMS04LjMxNSwxMi4xNzUtOC4zMjIsMTkuOTU5YzAuMDA3LDcuODAyLDIuNzgzLDE0LjQ3NSw4LjMyMiwyMC4wMTdjNS41MjIsNS41MTksMTIuMTc2LDguMjczLDE5Ljk2LDguMjYyICAgICAgYzcuODA2LDAuMDEyLDE0LjQ3OC0yLjc0MywyMC4wMjEtOC4yNjJjNS41MTktNS41NDIsOC4yNzQtMTIuMjE1LDguMjYzLTIwLjAxN2MwLjAxMi03Ljc4NC0yLjc0NC0xNC40MzgtOC4yNjMtMTkuOTU5ICAgICAgQzI3MC41OTMsMjU4LjA1NSwyNjMuOTIxLDI1NS4yODIsMjU2LjExNSwyNTUuMjcyeiBNMjc4Ljk4NiwxODkuMTcxaDEuMzM5YzEwLjI2OCwwLjI0MiwxOS4yMTEsMS44OSwyNi44MjgsNC45NDYgICAgICBjNy43NTksMy4xNCwxNC4xNCw3Ljc1NiwxOS4xNDYsMTMuODQ4aDkwLjA4NnYtMjYuMDY3Yy0xMS4wMjctMC4yMDktMjEuMjExLTAuNzE0LTMwLjU1Mi0xLjUxMyAgICAgIGMtNi42MzYtMC41NjktMTIuODQyLTEuMjg3LTE4LjYyMy0yLjE1NGMtMTYuNTEzLTIuNDMxLTI0Ljc3NS01LjM1OS0yNC43OTItOC43ODZjMC4wMTctMy40MDksOC4yNzktNi4zMzgsMjQuNzkyLTguNzg2ICAgICAgYzEzLjk1Ni0yLjAyLDMwLjM0OS0zLjE4NCw0OS4xNzUtMy40OTF2LTEuMjIyYy0wLjAxOC0xLjQzNiwwLjE5Ni0yLjc3MywwLjY0LTQuMDE2YzAuNTY1LTEuNzU4LDEuNTM2LTMuMzQ5LDIuOTA5LTQuNzcxICAgICAgYzIuNDEtMi4zOTQsNS4zMTktMy41NzgsOC43MjktMy41NWMzLjQ1MS0wLjAyOCw2LjQwMSwxLjE1Niw4Ljg0OCwzLjU1YzIuMzIzLDIuMzU1LDMuNTQ0LDUuMTY3LDMuNjY0LDguNDM3ICAgICAgYzAsMC4xMTYsMCwwLjIzMiwwLDAuMzUxdjEuMjIyYzYuMzkzLDAuMTc5LDEyLjUwMywwLjQ3LDE4LjMzMSwwLjg3M2M5Ljk1NSwwLjU1OCwxOS4wNTMsMS40MzEsMjcuMjk1LDIuNjE4ICAgICAgYzAuNDc0LDAuMDg5LDAuOTM5LDAuMTg2LDEuMzk2LDAuMjkxYzE1LjYyNiwyLjM3MiwyMy40NjIsNS4yMDMsMjMuNTEyLDguNDk1Yy0wLjA1LDMuMzMtNy44ODYsNi4xODEtMjMuNTEyLDguNTU0ICAgICAgYy0wLjQ1NywwLjA4NS0wLjkyMywwLjE2Mi0xLjM5NiwwLjIzMmMtMTMuMDUxLDEuOTYxLTI4LjI1OSwzLjE0NC00NS42MjYsMy41NXYyNi4xODVINDUyYzMuNDMxLDAuMDEyLDYuMzYsMS4yMzMsOC43ODgsMy42NjYgICAgICBjMi40MzMsMi40MDgsMy42NTUsNS4zMTgsMy42NjUsOC43MjljLTAuMDA3LDIuNDI3LTAuNjI4LDQuNTk5LTEuODYyLDYuNTE3Yy0yLjExNCwyLjgxMi01LjE4MSw0Ljc4OS05LjE5NSw1LjkzNSAgICAgIGMtMzMuOTg0LDguMTQ2LTY3Ljk3LDE2LjI5My0xMDEuOTU3LDI0LjQzOWwzOC45MzQsODEuNTgyYzAuMjI2LDAuNDAyLDAuNDM5LDAuODEyLDAuNjM5LDEuMjIxICAgICAgYzkuMzMyLDI2LjIzNSwyLjgzMyw0Ny4yNDItMTkuNDk1LDYzLjAxOWMtMi44MDgsMi4wMTQtNS44OSwyLjc1My05LjI1MiwyLjIxMmMtMy4zMjUtMC42MTYtNS45NjUtMi4zNDEtNy45MTUtNS4xODEgICAgICBjLTIuMDE3LTIuNzk4LTIuNzU2LTUuODgyLTIuMjEyLTkuMjUxYzAuNTg0LTMuMzQzLDIuMjczLTYsNS4wNjQtNy45NzFjMTIuMDE3LTguNjE3LDE1LjQ5LTIwLjA2MiwxMC40MTYtMzQuMzMxICAgICAgbC00MC45MTEtODUuMzYybC0xMC42NSwyLjYxOHY0Mi41MzRjMC4wMDUsMy4wMzUtMC43NTMsNS44NjctMi4yNjksOC40OTd2MC4wNTdjLTEuNTM0LDIuNjEzLTMuNjEsNC42NjktNi4yMjcsNi4xNjkgICAgICBsLTQyLjk0OCwyNC43Mjl2MC4wNmMtMi42NTUsMS41MDktNS40ODcsMi4yNjctOC40OTcsMi4yNjljLTMuMDIzLTAuMDI1LTUuODU2LTAuOC04LjQ5NS0yLjMyOGwtNDIuODktMjQuNzg5bC0wLjExOC0wLjA1NyAgICAgIGMtMi41ODUtMS41MzYtNC42MjEtMy42MTEtNi4xMS02LjIyNmMtMS41MTktMi42My0yLjI3My01LjQ0NC0yLjI2OS04LjQzOHYtNDIuNDc4bC0xMC43MDctMi42MThsLTQwLjkxMiw4NS4zNjIgICAgICBjLTUuMDczLDE0LjI3LTEuNjAzLDI1LjcxNCwxMC40MTYsMzQuMzMxYzIuNzkyLDEuOTcxLDQuNDgsNC42MjgsNS4wNjMsNy45NzFjMC41NDYsMy4zNjktMC4xOTMsNi40NTMtMi4yMDksOS4yNTEgICAgICBjLTEuOTUxLDIuODQtNC41OSw0LjU2NC03LjkxNiw1LjE4MWMtMy4zNjIsMC41NDEtNi40NDYtMC4xOTgtOS4yNTItMi4yMTJjLTIyLjMyOC0xNS43NzYtMjguODI3LTM2Ljc4My0xOS40OTUtNjMuMDE5ICAgICAgYzAuMi0wLjQwOSwwLjQxNC0wLjgxOCwwLjYzOS0xLjIyMWwzOC45MzQtODEuNTgyYy0zMy45ODctOC4xNDYtNjcuOTcyLTE2LjI5My0xMDEuOTU5LTI0LjQzOSAgICAgIGMtNC4wMTUtMS4xNDYtNy4wNzktMy4xMjMtOS4xOTMtNS45MzVjLTEuMjM0LTEuOTE4LTEuODU1LTQuMDktMS44NjQtNi41MTdjMC4wMTEtMy40MSwxLjIzMi02LjMyLDMuNjY3LTguNzI5ICAgICAgYzIuNDI4LTIuNDMzLDUuMzU4LTMuNjU0LDguNzg5LTMuNjY2aDEwLjgyM1YxODEuNzhjLTE3LjM2OC0wLjQwNi0zMi41NzYtMS41ODktNDUuNjI0LTMuNTUgICAgICBjLTAuNDczLTAuMDctMC45MzktMC4xNDctMS4zOTYtMC4yMzJjLTE1LjYyNi0yLjM3My0yMy40NjItNS4yMjQtMjMuNTEyLTguNTU0YzAuMDUtMy4yOTIsNy44ODYtNi4xMjMsMjMuNTEyLTguNDk1ICAgICAgYzAuNDU3LTAuMTA1LDAuOTIzLTAuMjAyLDEuMzk2LTAuMjkxYzguMjQzLTEuMTg4LDE3LjM0LTIuMDYxLDI3LjI5Mi0yLjYxOGM1LjgzMS0wLjQwMywxMS45NDEtMC42OTQsMTguMzMyLTAuODczdi0xLjIyMiAgICAgIGMwLTAuMTE4LDAtMC4yMzQsMC0wLjM1MWMwLjEyMy0zLjI3LDEuMzQ0LTYuMDgxLDMuNjY3LTguNDM3YzIuNDQ2LTIuMzk0LDUuMzk0LTMuNTc4LDguODQ1LTMuNTUgICAgICBjMy40MTMtMC4wMjgsNi4zMjIsMS4xNTYsOC43MjksMy41NWMxLjM3NSwxLjQyMywyLjM0NiwzLjAxNCwyLjkxLDQuNzcxYzAuNDQ2LDEuMjQyLDAuNjU5LDIuNTgsMC42NDEsNC4wMTZ2MS4yMjIgICAgICBjMTguODI3LDAuMzA4LDM1LjIyLDEuNDcyLDQ5LjE3NSwzLjQ5MWMxNi41MTMsMi40NDgsMjQuNzc2LDUuMzc3LDI0Ljc5Miw4Ljc4NmMtMC4wMTYsMy40MjctOC4yNzksNi4zNTUtMjQuNzkyLDguNzg2ICAgICAgYy01Ljc4MSwwLjg2Ny0xMS45ODksMS41ODUtMTguNjIyLDIuMTU0Yy05LjM0NCwwLjc5OS0xOS41MjcsMS4zMDQtMzAuNTUzLDEuNTEzdjI2LjA2N2g5MC4wODYgICAgICBjNS4wMDQtNi4wOTIsMTEuMzg3LTEwLjcwOCwxOS4xNDYtMTMuODQ4YzcuNjE4LTMuMDU3LDE2LjU2MS00LjcwNCwyNi44MjktNC45NDZoMS4zMzljMS4xNzMtMC4wMzksMi4zNzMtMC4wMzksMy42MDcsMGgzOC41MjQgICAgICBDMjc2LjYxLDE4OS4xMzIsMjc3LjgxMywxODkuMTMyLDI3OC45ODYsMTg5LjE3MXoiIGNsaXAtcnVsZT0iZXZlbm9kZCIvPiYjeGE7JiN4YTs8L2c+JiN4YTsmI3hhOzxnPiYjeGE7JiN4YTs8cGF0aCBmaWxsLXJ1bGU9ImV2ZW5vZGQiIGZpbGw9IiMzMzMzMzMiIGQ9Ik0yNTYuMDU4LDI2OS40MTNjMy45MDEsMC4wMTQsNy4yMzgsMS40MTEsMTAuMDEsNC4xODggICAgICBjMi43NiwyLjc1MSw0LjEzNyw2LjA2OSw0LjEzMyw5Ljk1MWMwLjAwNCwzLjkwMS0xLjM3Myw3LjIzNy00LjEzMywxMC4wMDljLTIuNzcxLDIuNzU5LTYuMTA4LDQuMTM3LTEwLjAxLDQuMTMgICAgICBjLTMuODgzLDAuMDA3LTcuMTk5LTEuMzcxLTkuOTUyLTQuMTNjLTIuNzgtMi43NzEtNC4xNzYtNi4xMDctNC4xODktMTAuMDA5YzAuMDE0LTMuODgyLDEuNDA5LTcuMiw0LjE4OS05Ljk1MSAgICAgIEMyNDguODU4LDI3MC44MjQsMjUyLjE3NSwyNjkuNDI3LDI1Ni4wNTgsMjY5LjQxM3oiIGNsaXAtcnVsZT0iZXZlbm9kZCIvPiYjeGE7JiN4YTs8L2c+JiN4YTsmI3hhOzwvZz4mI3hhOyYjeGE7PC9nPiYjeGE7JiN4YTs8L3N2Zz4=;imageBackground=light-dark(#C798B5,#774BA3);" parent="1" vertex="1">
          <mxGeometry x="300" y="40" width="92.35" height="47.27" as="geometry" />
        </mxCell>
        <mxCell id="PRy7USQRYNJLZitMKqTh-8" value="&lt;span style=&quot;&quot;&gt;&lt;font style=&quot;font-size: 18px;&quot;&gt;&lt;b&gt;UAVs&lt;/b&gt;&lt;/font&gt;&lt;/span&gt;" style="rounded=0;whiteSpace=wrap;html=1;fontFamily=Times New Roman;labelBackgroundColor=none;labelBorderColor=none;textShadow=1;opacity=0;rotation=90;" parent="1" vertex="1">
          <mxGeometry x="260" y="55" width="60" height="20" as="geometry" />
        </mxCell>
        <mxCell id="PRy7USQRYNJLZitMKqTh-9" value="" style="endArrow=none;html=1;rounded=0;strokeWidth=2;" parent="1" edge="1">
          <mxGeometry width="50" height="50" relative="1" as="geometry">
            <mxPoint x="160" y="90" as="sourcePoint" />
            <mxPoint x="1080" y="90" as="targetPoint" />
          </mxGeometry>
        </mxCell>
        <mxCell id="PRy7USQRYNJLZitMKqTh-12" value="" style="endArrow=none;dashed=1;html=1;rounded=0;strokeWidth=2;" parent="1" edge="1">
          <mxGeometry width="50" height="50" relative="1" as="geometry">
            <mxPoint x="350" y="640" as="sourcePoint" />
            <mxPoint x="350" y="90" as="targetPoint" />
          </mxGeometry>
        </mxCell>
        <mxCell id="PRy7USQRYNJLZitMKqTh-13" value="" style="endArrow=classic;html=1;rounded=0;strokeWidth=2;" parent="1" edge="1">
          <mxGeometry width="50" height="50" relative="1" as="geometry">
            <mxPoint x="350" y="100" as="sourcePoint" />
            <mxPoint x="900" y="100" as="targetPoint" />
          </mxGeometry>
        </mxCell>
        <mxCell id="PRy7USQRYNJLZitMKqTh-15" value="" style="endArrow=classic;html=1;rounded=0;strokeWidth=2;" parent="1" edge="1">
          <mxGeometry width="50" height="50" relative="1" as="geometry">
            <mxPoint x="350" y="200" as="sourcePoint" />
            <mxPoint x="900" y="201" as="targetPoint" />
          </mxGeometry>
        </mxCell>
        <mxCell id="PRy7USQRYNJLZitMKqTh-16" value="&lt;font face=&quot;Times New Roman&quot;&gt;&lt;span style=&quot;font-size: 18px;&quot;&gt;\(M_3\)&lt;/span&gt;&lt;/font&gt;" style="text;html=1;align=center;verticalAlign=middle;resizable=0;points=[];autosize=1;strokeColor=none;fillColor=none;" parent="1" vertex="1">
          <mxGeometry x="588" y="95" width="80" height="40" as="geometry" />
        </mxCell>
        <mxCell id="v15FcyH-daBZKtvoUnET-1" value="&lt;font style=&quot;color: rgb(255, 51, 51);&quot; face=&quot;Times New Roman&quot;&gt;&lt;span style=&quot;font-size: 18px;&quot;&gt;\(M_3\)&lt;/span&gt;&lt;/font&gt;" style="text;html=1;align=center;verticalAlign=middle;resizable=0;points=[];autosize=1;strokeColor=none;fillColor=none;" parent="1" vertex="1">
          <mxGeometry x="588" y="167" width="80" height="40" as="geometry" />
        </mxCell>
        <mxCell id="v15FcyH-daBZKtvoUnET-2" value="&lt;font style=&quot;font-size: 18px;&quot; face=&quot;Times New Roman&quot;&gt;&lt;b&gt;...&lt;/b&gt;&lt;/font&gt;" style="text;html=1;align=center;verticalAlign=middle;resizable=0;points=[];autosize=1;strokeColor=none;fillColor=none;" parent="1" vertex="1">
          <mxGeometry x="609" y="144" width="40" height="40" as="geometry" />
        </mxCell>
        <mxCell id="v15FcyH-daBZKtvoUnET-3" value="&lt;font style=&quot;color: rgb(51, 51, 255);&quot; face=&quot;Times New Roman&quot;&gt;&lt;span style=&quot;font-size: 18px;&quot;&gt;\(M_3\)&lt;/span&gt;&lt;/font&gt;" style="text;html=1;align=center;verticalAlign=middle;resizable=0;points=[];autosize=1;strokeColor=none;fillColor=none;" parent="1" vertex="1">
          <mxGeometry x="588" y="129" width="80" height="40" as="geometry" />
        </mxCell>
        <mxCell id="v15FcyH-daBZKtvoUnET-5" value="" style="strokeWidth=2;html=1;shape=mxgraph.flowchart.annotation_2;align=left;labelPosition=right;pointerEvents=1;strokeColor=#FF8000;" parent="1" vertex="1">
          <mxGeometry x="520" y="108" width="50" height="80" as="geometry" />
        </mxCell>
        <mxCell id="v15FcyH-daBZKtvoUnET-9" value="" style="endArrow=none;dashed=1;html=1;rounded=0;strokeWidth=2;" parent="1" edge="1">
          <mxGeometry width="50" height="50" relative="1" as="geometry">
            <mxPoint x="900" y="210" as="sourcePoint" />
            <mxPoint x="900" y="90" as="targetPoint" />
          </mxGeometry>
        </mxCell>
        <mxCell id="v15FcyH-daBZKtvoUnET-11" value="&lt;font style=&quot;color: rgb(0, 0, 0);&quot;&gt;&lt;font face=&quot;Times New Roman&quot;&gt;&lt;b style=&quot;&quot;&gt;&lt;font style=&quot;text-wrap-mode: nowrap; font-size: 18px;&quot;&gt;\(m\)&amp;nbsp;&lt;/font&gt;&lt;span style=&quot;text-wrap-mode: nowrap; background-color: transparent; font-size: 18px;&quot;&gt;different \(M_3\)&amp;nbsp;&lt;/span&gt;&lt;/b&gt;&lt;/font&gt;&lt;b style=&quot;font-family: &amp;quot;Times New Roman&amp;quot;; background-color: transparent; font-size: 18px; text-wrap-mode: nowrap;&quot;&gt;from&lt;/b&gt;&lt;/font&gt;&lt;div style=&quot;text-wrap-mode: nowrap;&quot;&gt;&lt;font face=&quot;Times New Roman&quot; style=&quot;color: rgb(0, 0, 0);&quot;&gt;&lt;b style=&quot;&quot;&gt;&lt;font style=&quot;font-size: 18px;&quot;&gt;\(m\)&amp;nbsp;&lt;/font&gt;&lt;span style=&quot;background-color: transparent; font-size: 18px;&quot;&gt;different UAVs&lt;/span&gt;&lt;/b&gt;&lt;/font&gt;&lt;/div&gt;" style="rounded=0;whiteSpace=wrap;html=1;fillColor=#d5e8d4;strokeWidth=2;strokeColor=#82b366;" parent="1" vertex="1">
          <mxGeometry x="667" y="125" width="210" height="50" as="geometry" />
        </mxCell>
        <mxCell id="v15FcyH-daBZKtvoUnET-12" value="" style="strokeWidth=2;html=1;shape=mxgraph.flowchart.annotation_2;align=left;labelPosition=right;pointerEvents=1;strokeColor=#67AB9F;verticalAlign=middle;fontFamily=Helvetica;fontSize=12;fontColor=default;fillColor=none;" parent="1" vertex="1">
          <mxGeometry x="260" y="100" width="40" height="650" as="geometry" />
        </mxCell>
        <mxCell id="v15FcyH-daBZKtvoUnET-24" value="" style="strokeWidth=2;html=1;shape=mxgraph.flowchart.annotation_2;align=left;labelPosition=right;pointerEvents=1;strokeColor=#CC0066;verticalAlign=middle;fontFamily=Helvetica;fontSize=12;fontColor=default;fillColor=none;" parent="1" vertex="1">
          <mxGeometry x="260" y="760" width="40" height="190" as="geometry" />
        </mxCell>
        <mxCell id="v15FcyH-daBZKtvoUnET-27" value="&lt;font style=&quot;font-size: 18px;&quot; face=&quot;Times New Roman&quot;&gt;&lt;b&gt;Shares&amp;nbsp;&lt;/b&gt;&lt;/font&gt;&lt;div&gt;&lt;font style=&quot;font-size: 18px;&quot; face=&quot;Times New Roman&quot;&gt;&lt;b&gt;computation&lt;/b&gt;&lt;/font&gt;&lt;/div&gt;" style="rounded=1;whiteSpace=wrap;html=1;fillColor=#f8cecc;strokeColor=#b85450;strokeWidth=2;align=center;verticalAlign=middle;fontFamily=Helvetica;fontSize=12;shadow=1;" parent="1" vertex="1">
          <mxGeometry x="160" y="822.5" width="100" height="65" as="geometry" />
        </mxCell>
        <mxCell id="wgA1eYtuguO1ax2D-Wl9-1" value="" style="strokeWidth=2;html=1;shape=mxgraph.flowchart.annotation_2;align=left;labelPosition=right;pointerEvents=1;strokeColor=#FF8000;verticalAlign=middle;fontFamily=Helvetica;fontSize=12;fontColor=default;fillColor=none;" parent="1" vertex="1">
          <mxGeometry x="260" y="962" width="40" height="138" as="geometry" />
        </mxCell>
        <mxCell id="wgA1eYtuguO1ax2D-Wl9-2" value="&lt;font style=&quot;font-size: 18px;&quot; face=&quot;Times New Roman&quot;&gt;&lt;b&gt;Shares&amp;nbsp;&lt;/b&gt;&lt;/font&gt;&lt;div&gt;&lt;font style=&quot;font-size: 18px;&quot; face=&quot;Times New Roman&quot;&gt;&lt;b&gt;verifiability&lt;/b&gt;&lt;/font&gt;&lt;/div&gt;" style="rounded=1;whiteSpace=wrap;html=1;fillColor=#ffe6cc;strokeColor=#d79b00;shadow=1;strokeWidth=2;" parent="1" vertex="1">
          <mxGeometry x="160" y="1001" width="100" height="60" as="geometry" />
        </mxCell>
        <mxCell id="wgA1eYtuguO1ax2D-Wl9-8" value="" style="endArrow=none;html=1;rounded=0;strokeWidth=2;" parent="1" edge="1">
          <mxGeometry width="50" height="50" relative="1" as="geometry">
            <mxPoint x="160" y="1270" as="sourcePoint" />
            <mxPoint x="1080" y="1270" as="targetPoint" />
          </mxGeometry>
        </mxCell>
        <mxCell id="wgA1eYtuguO1ax2D-Wl9-11" value="" style="strokeWidth=2;html=1;shape=mxgraph.flowchart.annotation_2;align=left;labelPosition=right;pointerEvents=1;strokeColor=#7F00FF;verticalAlign=middle;fontFamily=Helvetica;fontSize=12;fontColor=default;fillColor=default;" parent="1" vertex="1">
          <mxGeometry x="260" y="1110" width="40" height="150" as="geometry" />
        </mxCell>
        <mxCell id="wgA1eYtuguO1ax2D-Wl9-12" value="&lt;font face=&quot;Times New Roman&quot;&gt;&lt;span style=&quot;font-size: 18px;&quot;&gt;&lt;b&gt;Key recovery&lt;/b&gt;&lt;/span&gt;&lt;/font&gt;" style="rounded=1;whiteSpace=wrap;html=1;fillColor=#E5CCFF;strokeColor=#9673a6;shadow=1;align=center;verticalAlign=middle;fontFamily=Helvetica;fontSize=12;strokeWidth=2;" parent="1" vertex="1">
          <mxGeometry x="160" y="1155" width="100" height="60" as="geometry" />
        </mxCell>
        <mxCell id="eR71AZmdL1E7IIqoocKv-2" value="&lt;font face=&quot;Times New Roman&quot;&gt;&lt;span style=&quot;font-size: 18px;&quot;&gt;&lt;b&gt;GAKA&lt;/b&gt;&lt;/span&gt;&lt;/font&gt;" style="rounded=1;whiteSpace=wrap;html=1;fillColor=#d5e8d4;strokeColor=#82b366;strokeWidth=2;shadow=1;align=center;verticalAlign=middle;fontFamily=Helvetica;fontSize=12;" parent="1" vertex="1">
          <mxGeometry x="160" y="400" width="100" height="60" as="geometry" />
        </mxCell>
        <mxCell id="EdHErckxSNiNhH4EqncK-1" value="" style="sketch=0;pointerEvents=1;shadow=0;dashed=0;html=1;strokeColor=none;fillColor=#000000;labelPosition=center;verticalLabelPosition=bottom;verticalAlign=top;outlineConnect=0;align=center;shape=mxgraph.office.concepts.document;" parent="1" vertex="1">
          <mxGeometry x="580" y="100" width="20" height="28.5" as="geometry" />
        </mxCell>
        <mxCell id="EdHErckxSNiNhH4EqncK-3" value="" style="sketch=0;pointerEvents=1;shadow=0;dashed=0;html=1;strokeColor=#001DBC;fillColor=#0050ef;labelPosition=center;verticalLabelPosition=bottom;verticalAlign=top;outlineConnect=0;align=center;shape=mxgraph.office.concepts.document;fontColor=#ffffff;" parent="1" vertex="1">
          <mxGeometry x="581" y="133.75" width="20" height="28.5" as="geometry" />
        </mxCell>
        <mxCell id="EdHErckxSNiNhH4EqncK-4" value="" style="sketch=0;pointerEvents=1;shadow=0;dashed=0;html=1;strokeColor=none;fillColor=#FF0000;labelPosition=center;verticalLabelPosition=bottom;verticalAlign=top;outlineConnect=0;align=center;shape=mxgraph.office.concepts.document;" parent="1" vertex="1">
          <mxGeometry x="580" y="168" width="20" height="28.5" as="geometry" />
        </mxCell>
        <mxCell id="EdHErckxSNiNhH4EqncK-14" value="" style="group;strokeWidth=2;" parent="1" vertex="1" connectable="0">
          <mxGeometry x="392.35" y="96.5" width="140" height="100" as="geometry" />
        </mxCell>
        <mxCell id="EdHErckxSNiNhH4EqncK-13" value="" style="ellipse;shape=cloud;whiteSpace=wrap;html=1;fillColor=#60a917;fontColor=#ffffff;strokeColor=#2D7600;strokeWidth=2;" parent="EdHErckxSNiNhH4EqncK-14" vertex="1">
          <mxGeometry width="140" height="100" as="geometry" />
        </mxCell>
        <mxCell id="EdHErckxSNiNhH4EqncK-5" value="" style="shape=image;verticalLabelPosition=bottom;labelBackgroundColor=default;verticalAlign=top;aspect=fixed;imageAspect=0;editableCssRules=.*;image=data:image/svg+xml,PHN2ZyB4bWxuczp4bGluaz0iaHR0cDovL3d3dy53My5vcmcvMTk5OS94bGluayIgeG1sbnM9Imh0dHA6Ly93d3cudzMub3JnLzIwMDAvc3ZnIiB4bWw6c3BhY2U9InByZXNlcnZlIiB2ZXJzaW9uPSIxLjEiIGlkPSLQodC70L7QuV8xIiB2aWV3Qm94PSIwLjUyNTk4MzgxMDQyNDgwNDcgMTQzLjYwNjUyMTYwNjQ0NTMgNTExLjE4MzAxMzkxNjAxNTYgMjYxLjg1MjA1MDc4MTI1IiBoZWlnaHQ9IjQwOS4xNDM4MjkzNDU3MDMxIiB3aWR0aD0iNzk4LjcyMzQ1OTI0Mzc3NDQiPiYjeGE7JiN4YTs8Zz4mI3hhOyYjeGE7PGc+JiN4YTsmI3hhOzxnPiYjeGE7JiN4YTs8cGF0aCBmaWxsLXJ1bGU9ImV2ZW5vZGQiIGZpbGw9IiMzMzMzMzMiIGQ9Ik0yNTYuMTE1LDI1NS4yNzJjLTcuNzg0LDAuMDEtMTQuNDM4LDIuNzgyLTE5Ljk2LDguMzIxICAgICAgYy01LjUzOSw1LjUyMS04LjMxNSwxMi4xNzUtOC4zMjIsMTkuOTU5YzAuMDA3LDcuODAyLDIuNzgzLDE0LjQ3NSw4LjMyMiwyMC4wMTdjNS41MjIsNS41MTksMTIuMTc2LDguMjczLDE5Ljk2LDguMjYyICAgICAgYzcuODA2LDAuMDEyLDE0LjQ3OC0yLjc0MywyMC4wMjEtOC4yNjJjNS41MTktNS41NDIsOC4yNzQtMTIuMjE1LDguMjYzLTIwLjAxN2MwLjAxMi03Ljc4NC0yLjc0NC0xNC40MzgtOC4yNjMtMTkuOTU5ICAgICAgQzI3MC41OTMsMjU4LjA1NSwyNjMuOTIxLDI1NS4yODIsMjU2LjExNSwyNTUuMjcyeiBNMjc4Ljk4NiwxODkuMTcxaDEuMzM5YzEwLjI2OCwwLjI0MiwxOS4yMTEsMS44OSwyNi44MjgsNC45NDYgICAgICBjNy43NTksMy4xNCwxNC4xNCw3Ljc1NiwxOS4xNDYsMTMuODQ4aDkwLjA4NnYtMjYuMDY3Yy0xMS4wMjctMC4yMDktMjEuMjExLTAuNzE0LTMwLjU1Mi0xLjUxMyAgICAgIGMtNi42MzYtMC41NjktMTIuODQyLTEuMjg3LTE4LjYyMy0yLjE1NGMtMTYuNTEzLTIuNDMxLTI0Ljc3NS01LjM1OS0yNC43OTItOC43ODZjMC4wMTctMy40MDksOC4yNzktNi4zMzgsMjQuNzkyLTguNzg2ICAgICAgYzEzLjk1Ni0yLjAyLDMwLjM0OS0zLjE4NCw0OS4xNzUtMy40OTF2LTEuMjIyYy0wLjAxOC0xLjQzNiwwLjE5Ni0yLjc3MywwLjY0LTQuMDE2YzAuNTY1LTEuNzU4LDEuNTM2LTMuMzQ5LDIuOTA5LTQuNzcxICAgICAgYzIuNDEtMi4zOTQsNS4zMTktMy41NzgsOC43MjktMy41NWMzLjQ1MS0wLjAyOCw2LjQwMSwxLjE1Niw4Ljg0OCwzLjU1YzIuMzIzLDIuMzU1LDMuNTQ0LDUuMTY3LDMuNjY0LDguNDM3ICAgICAgYzAsMC4xMTYsMCwwLjIzMiwwLDAuMzUxdjEuMjIyYzYuMzkzLDAuMTc5LDEyLjUwMywwLjQ3LDE4LjMzMSwwLjg3M2M5Ljk1NSwwLjU1OCwxOS4wNTMsMS40MzEsMjcuMjk1LDIuNjE4ICAgICAgYzAuNDc0LDAuMDg5LDAuOTM5LDAuMTg2LDEuMzk2LDAuMjkxYzE1LjYyNiwyLjM3MiwyMy40NjIsNS4yMDMsMjMuNTEyLDguNDk1Yy0wLjA1LDMuMzMtNy44ODYsNi4xODEtMjMuNTEyLDguNTU0ICAgICAgYy0wLjQ1NywwLjA4NS0wLjkyMywwLjE2Mi0xLjM5NiwwLjIzMmMtMTMuMDUxLDEuOTYxLTI4LjI1OSwzLjE0NC00NS42MjYsMy41NXYyNi4xODVINDUyYzMuNDMxLDAuMDEyLDYuMzYsMS4yMzMsOC43ODgsMy42NjYgICAgICBjMi40MzMsMi40MDgsMy42NTUsNS4zMTgsMy42NjUsOC43MjljLTAuMDA3LDIuNDI3LTAuNjI4LDQuNTk5LTEuODYyLDYuNTE3Yy0yLjExNCwyLjgxMi01LjE4MSw0Ljc4OS05LjE5NSw1LjkzNSAgICAgIGMtMzMuOTg0LDguMTQ2LTY3Ljk3LDE2LjI5My0xMDEuOTU3LDI0LjQzOWwzOC45MzQsODEuNTgyYzAuMjI2LDAuNDAyLDAuNDM5LDAuODEyLDAuNjM5LDEuMjIxICAgICAgYzkuMzMyLDI2LjIzNSwyLjgzMyw0Ny4yNDItMTkuNDk1LDYzLjAxOWMtMi44MDgsMi4wMTQtNS44OSwyLjc1My05LjI1MiwyLjIxMmMtMy4zMjUtMC42MTYtNS45NjUtMi4zNDEtNy45MTUtNS4xODEgICAgICBjLTIuMDE3LTIuNzk4LTIuNzU2LTUuODgyLTIuMjEyLTkuMjUxYzAuNTg0LTMuMzQzLDIuMjczLTYsNS4wNjQtNy45NzFjMTIuMDE3LTguNjE3LDE1LjQ5LTIwLjA2MiwxMC40MTYtMzQuMzMxICAgICAgbC00MC45MTEtODUuMzYybC0xMC42NSwyLjYxOHY0Mi41MzRjMC4wMDUsMy4wMzUtMC43NTMsNS44NjctMi4yNjksOC40OTd2MC4wNTdjLTEuNTM0LDIuNjEzLTMuNjEsNC42NjktNi4yMjcsNi4xNjkgICAgICBsLTQyLjk0OCwyNC43Mjl2MC4wNmMtMi42NTUsMS41MDktNS40ODcsMi4yNjctOC40OTcsMi4yNjljLTMuMDIzLTAuMDI1LTUuODU2LTAuOC04LjQ5NS0yLjMyOGwtNDIuODktMjQuNzg5bC0wLjExOC0wLjA1NyAgICAgIGMtMi41ODUtMS41MzYtNC42MjEtMy42MTEtNi4xMS02LjIyNmMtMS41MTktMi42My0yLjI3My01LjQ0NC0yLjI2OS04LjQzOHYtNDIuNDc4bC0xMC43MDctMi42MThsLTQwLjkxMiw4NS4zNjIgICAgICBjLTUuMDczLDE0LjI3LTEuNjAzLDI1LjcxNCwxMC40MTYsMzQuMzMxYzIuNzkyLDEuOTcxLDQuNDgsNC42MjgsNS4wNjMsNy45NzFjMC41NDYsMy4zNjktMC4xOTMsNi40NTMtMi4yMDksOS4yNTEgICAgICBjLTEuOTUxLDIuODQtNC41OSw0LjU2NC03LjkxNiw1LjE4MWMtMy4zNjIsMC41NDEtNi40NDYtMC4xOTgtOS4yNTItMi4yMTJjLTIyLjMyOC0xNS43NzYtMjguODI3LTM2Ljc4My0xOS40OTUtNjMuMDE5ICAgICAgYzAuMi0wLjQwOSwwLjQxNC0wLjgxOCwwLjYzOS0xLjIyMWwzOC45MzQtODEuNTgyYy0zMy45ODctOC4xNDYtNjcuOTcyLTE2LjI5My0xMDEuOTU5LTI0LjQzOSAgICAgIGMtNC4wMTUtMS4xNDYtNy4wNzktMy4xMjMtOS4xOTMtNS45MzVjLTEuMjM0LTEuOTE4LTEuODU1LTQuMDktMS44NjQtNi41MTdjMC4wMTEtMy40MSwxLjIzMi02LjMyLDMuNjY3LTguNzI5ICAgICAgYzIuNDI4LTIuNDMzLDUuMzU4LTMuNjU0LDguNzg5LTMuNjY2aDEwLjgyM1YxODEuNzhjLTE3LjM2OC0wLjQwNi0zMi41NzYtMS41ODktNDUuNjI0LTMuNTUgICAgICBjLTAuNDczLTAuMDctMC45MzktMC4xNDctMS4zOTYtMC4yMzJjLTE1LjYyNi0yLjM3My0yMy40NjItNS4yMjQtMjMuNTEyLTguNTU0YzAuMDUtMy4yOTIsNy44ODYtNi4xMjMsMjMuNTEyLTguNDk1ICAgICAgYzAuNDU3LTAuMTA1LDAuOTIzLTAuMjAyLDEuMzk2LTAuMjkxYzguMjQzLTEuMTg4LDE3LjM0LTIuMDYxLDI3LjI5Mi0yLjYxOGM1LjgzMS0wLjQwMywxMS45NDEtMC42OTQsMTguMzMyLTAuODczdi0xLjIyMiAgICAgIGMwLTAuMTE4LDAtMC4yMzQsMC0wLjM1MWMwLjEyMy0zLjI3LDEuMzQ0LTYuMDgxLDMuNjY3LTguNDM3YzIuNDQ2LTIuMzk0LDUuMzk0LTMuNTc4LDguODQ1LTMuNTUgICAgICBjMy40MTMtMC4wMjgsNi4zMjIsMS4xNTYsOC43MjksMy41NWMxLjM3NSwxLjQyMywyLjM0NiwzLjAxNCwyLjkxLDQuNzcxYzAuNDQ2LDEuMjQyLDAuNjU5LDIuNTgsMC42NDEsNC4wMTZ2MS4yMjIgICAgICBjMTguODI3LDAuMzA4LDM1LjIyLDEuNDcyLDQ5LjE3NSwzLjQ5MWMxNi41MTMsMi40NDgsMjQuNzc2LDUuMzc3LDI0Ljc5Miw4Ljc4NmMtMC4wMTYsMy40MjctOC4yNzksNi4zNTUtMjQuNzkyLDguNzg2ICAgICAgYy01Ljc4MSwwLjg2Ny0xMS45ODksMS41ODUtMTguNjIyLDIuMTU0Yy05LjM0NCwwLjc5OS0xOS41MjcsMS4zMDQtMzAuNTUzLDEuNTEzdjI2LjA2N2g5MC4wODYgICAgICBjNS4wMDQtNi4wOTIsMTEuMzg3LTEwLjcwOCwxOS4xNDYtMTMuODQ4YzcuNjE4LTMuMDU3LDE2LjU2MS00LjcwNCwyNi44MjktNC45NDZoMS4zMzljMS4xNzMtMC4wMzksMi4zNzMtMC4wMzksMy42MDcsMGgzOC41MjQgICAgICBDMjc2LjYxLDE4OS4xMzIsMjc3LjgxMywxODkuMTMyLDI3OC45ODYsMTg5LjE3MXoiIGNsaXAtcnVsZT0iZXZlbm9kZCIvPiYjeGE7JiN4YTs8L2c+JiN4YTsmI3hhOzxnPiYjeGE7JiN4YTs8cGF0aCBmaWxsLXJ1bGU9ImV2ZW5vZGQiIGZpbGw9IiMzMzMzMzMiIGQ9Ik0yNTYuMDU4LDI2OS40MTNjMy45MDEsMC4wMTQsNy4yMzgsMS40MTEsMTAuMDEsNC4xODggICAgICBjMi43NiwyLjc1MSw0LjEzNyw2LjA2OSw0LjEzMyw5Ljk1MWMwLjAwNCwzLjkwMS0xLjM3Myw3LjIzNy00LjEzMywxMC4wMDljLTIuNzcxLDIuNzU5LTYuMTA4LDQuMTM3LTEwLjAxLDQuMTMgICAgICBjLTMuODgzLDAuMDA3LTcuMTk5LTEuMzcxLTkuOTUyLTQuMTNjLTIuNzgtMi43NzEtNC4xNzYtNi4xMDctNC4xODktMTAuMDA5YzAuMDE0LTMuODgyLDEuNDA5LTcuMiw0LjE4OS05Ljk1MSAgICAgIEMyNDguODU4LDI3MC44MjQsMjUyLjE3NSwyNjkuNDI3LDI1Ni4wNTgsMjY5LjQxM3oiIGNsaXAtcnVsZT0iZXZlbm9kZCIvPiYjeGE7JiN4YTs8L2c+JiN4YTsmI3hhOzwvZz4mI3hhOyYjeGE7PC9nPiYjeGE7JiN4YTs8L3N2Zz4=;" parent="EdHErckxSNiNhH4EqncK-14" vertex="1">
          <mxGeometry x="35" y="31.12499999999997" width="34.41666666666667" height="17.616666666666667" as="geometry" />
        </mxCell>
        <mxCell id="EdHErckxSNiNhH4EqncK-7" value="" style="shape=image;verticalLabelPosition=bottom;labelBackgroundColor=default;verticalAlign=top;aspect=fixed;imageAspect=0;editableCssRules=.*;image=data:image/svg+xml,PHN2ZyB4bWxuczp4bGluaz0iaHR0cDovL3d3dy53My5vcmcvMTk5OS94bGluayIgeG1sbnM9Imh0dHA6Ly93d3cudzMub3JnLzIwMDAvc3ZnIiB4bWw6c3BhY2U9InByZXNlcnZlIiB2ZXJzaW9uPSIxLjEiIGlkPSLQodC70L7QuV8xIiB2aWV3Qm94PSIwLjUyNTk4MzgxMDQyNDgwNDcgMTQzLjYwNjUyMTYwNjQ0NTMgNTExLjE4MzAxMzkxNjAxNTYgMjYxLjg1MjA1MDc4MTI1IiBoZWlnaHQ9IjQwOS4xNDM4MjkzNDU3MDMxIiB3aWR0aD0iNzk4LjcyMzQ1OTI0Mzc3NDQiPiYjeGE7JiN4YTs8Zz4mI3hhOyYjeGE7PGc+JiN4YTsmI3hhOzxnPiYjeGE7JiN4YTs8cGF0aCBmaWxsLXJ1bGU9ImV2ZW5vZGQiIGZpbGw9IiMzMzMzMzMiIGQ9Ik0yNTYuMTE1LDI1NS4yNzJjLTcuNzg0LDAuMDEtMTQuNDM4LDIuNzgyLTE5Ljk2LDguMzIxICAgICAgYy01LjUzOSw1LjUyMS04LjMxNSwxMi4xNzUtOC4zMjIsMTkuOTU5YzAuMDA3LDcuODAyLDIuNzgzLDE0LjQ3NSw4LjMyMiwyMC4wMTdjNS41MjIsNS41MTksMTIuMTc2LDguMjczLDE5Ljk2LDguMjYyICAgICAgYzcuODA2LDAuMDEyLDE0LjQ3OC0yLjc0MywyMC4wMjEtOC4yNjJjNS41MTktNS41NDIsOC4yNzQtMTIuMjE1LDguMjYzLTIwLjAxN2MwLjAxMi03Ljc4NC0yLjc0NC0xNC40MzgtOC4yNjMtMTkuOTU5ICAgICAgQzI3MC41OTMsMjU4LjA1NSwyNjMuOTIxLDI1NS4yODIsMjU2LjExNSwyNTUuMjcyeiBNMjc4Ljk4NiwxODkuMTcxaDEuMzM5YzEwLjI2OCwwLjI0MiwxOS4yMTEsMS44OSwyNi44MjgsNC45NDYgICAgICBjNy43NTksMy4xNCwxNC4xNCw3Ljc1NiwxOS4xNDYsMTMuODQ4aDkwLjA4NnYtMjYuMDY3Yy0xMS4wMjctMC4yMDktMjEuMjExLTAuNzE0LTMwLjU1Mi0xLjUxMyAgICAgIGMtNi42MzYtMC41NjktMTIuODQyLTEuMjg3LTE4LjYyMy0yLjE1NGMtMTYuNTEzLTIuNDMxLTI0Ljc3NS01LjM1OS0yNC43OTItOC43ODZjMC4wMTctMy40MDksOC4yNzktNi4zMzgsMjQuNzkyLTguNzg2ICAgICAgYzEzLjk1Ni0yLjAyLDMwLjM0OS0zLjE4NCw0OS4xNzUtMy40OTF2LTEuMjIyYy0wLjAxOC0xLjQzNiwwLjE5Ni0yLjc3MywwLjY0LTQuMDE2YzAuNTY1LTEuNzU4LDEuNTM2LTMuMzQ5LDIuOTA5LTQuNzcxICAgICAgYzIuNDEtMi4zOTQsNS4zMTktMy41NzgsOC43MjktMy41NWMzLjQ1MS0wLjAyOCw2LjQwMSwxLjE1Niw4Ljg0OCwzLjU1YzIuMzIzLDIuMzU1LDMuNTQ0LDUuMTY3LDMuNjY0LDguNDM3ICAgICAgYzAsMC4xMTYsMCwwLjIzMiwwLDAuMzUxdjEuMjIyYzYuMzkzLDAuMTc5LDEyLjUwMywwLjQ3LDE4LjMzMSwwLjg3M2M5Ljk1NSwwLjU1OCwxOS4wNTMsMS40MzEsMjcuMjk1LDIuNjE4ICAgICAgYzAuNDc0LDAuMDg5LDAuOTM5LDAuMTg2LDEuMzk2LDAuMjkxYzE1LjYyNiwyLjM3MiwyMy40NjIsNS4yMDMsMjMuNTEyLDguNDk1Yy0wLjA1LDMuMzMtNy44ODYsNi4xODEtMjMuNTEyLDguNTU0ICAgICAgYy0wLjQ1NywwLjA4NS0wLjkyMywwLjE2Mi0xLjM5NiwwLjIzMmMtMTMuMDUxLDEuOTYxLTI4LjI1OSwzLjE0NC00NS42MjYsMy41NXYyNi4xODVINDUyYzMuNDMxLDAuMDEyLDYuMzYsMS4yMzMsOC43ODgsMy42NjYgICAgICBjMi40MzMsMi40MDgsMy42NTUsNS4zMTgsMy42NjUsOC43MjljLTAuMDA3LDIuNDI3LTAuNjI4LDQuNTk5LTEuODYyLDYuNTE3Yy0yLjExNCwyLjgxMi01LjE4MSw0Ljc4OS05LjE5NSw1LjkzNSAgICAgIGMtMzMuOTg0LDguMTQ2LTY3Ljk3LDE2LjI5My0xMDEuOTU3LDI0LjQzOWwzOC45MzQsODEuNTgyYzAuMjI2LDAuNDAyLDAuNDM5LDAuODEyLDAuNjM5LDEuMjIxICAgICAgYzkuMzMyLDI2LjIzNSwyLjgzMyw0Ny4yNDItMTkuNDk1LDYzLjAxOWMtMi44MDgsMi4wMTQtNS44OSwyLjc1My05LjI1MiwyLjIxMmMtMy4zMjUtMC42MTYtNS45NjUtMi4zNDEtNy45MTUtNS4xODEgICAgICBjLTIuMDE3LTIuNzk4LTIuNzU2LTUuODgyLTIuMjEyLTkuMjUxYzAuNTg0LTMuMzQzLDIuMjczLTYsNS4wNjQtNy45NzFjMTIuMDE3LTguNjE3LDE1LjQ5LTIwLjA2MiwxMC40MTYtMzQuMzMxICAgICAgbC00MC45MTEtODUuMzYybC0xMC42NSwyLjYxOHY0Mi41MzRjMC4wMDUsMy4wMzUtMC43NTMsNS44NjctMi4yNjksOC40OTd2MC4wNTdjLTEuNTM0LDIuNjEzLTMuNjEsNC42NjktNi4yMjcsNi4xNjkgICAgICBsLTQyLjk0OCwyNC43Mjl2MC4wNmMtMi42NTUsMS41MDktNS40ODcsMi4yNjctOC40OTcsMi4yNjljLTMuMDIzLTAuMDI1LTUuODU2LTAuOC04LjQ5NS0yLjMyOGwtNDIuODktMjQuNzg5bC0wLjExOC0wLjA1NyAgICAgIGMtMi41ODUtMS41MzYtNC42MjEtMy42MTEtNi4xMS02LjIyNmMtMS41MTktMi42My0yLjI3My01LjQ0NC0yLjI2OS04LjQzOHYtNDIuNDc4bC0xMC43MDctMi42MThsLTQwLjkxMiw4NS4zNjIgICAgICBjLTUuMDczLDE0LjI3LTEuNjAzLDI1LjcxNCwxMC40MTYsMzQuMzMxYzIuNzkyLDEuOTcxLDQuNDgsNC42MjgsNS4wNjMsNy45NzFjMC41NDYsMy4zNjktMC4xOTMsNi40NTMtMi4yMDksOS4yNTEgICAgICBjLTEuOTUxLDIuODQtNC41OSw0LjU2NC03LjkxNiw1LjE4MWMtMy4zNjIsMC41NDEtNi40NDYtMC4xOTgtOS4yNTItMi4yMTJjLTIyLjMyOC0xNS43NzYtMjguODI3LTM2Ljc4My0xOS40OTUtNjMuMDE5ICAgICAgYzAuMi0wLjQwOSwwLjQxNC0wLjgxOCwwLjYzOS0xLjIyMWwzOC45MzQtODEuNTgyYy0zMy45ODctOC4xNDYtNjcuOTcyLTE2LjI5My0xMDEuOTU5LTI0LjQzOSAgICAgIGMtNC4wMTUtMS4xNDYtNy4wNzktMy4xMjMtOS4xOTMtNS45MzVjLTEuMjM0LTEuOTE4LTEuODU1LTQuMDktMS44NjQtNi41MTdjMC4wMTEtMy40MSwxLjIzMi02LjMyLDMuNjY3LTguNzI5ICAgICAgYzIuNDI4LTIuNDMzLDUuMzU4LTMuNjU0LDguNzg5LTMuNjY2aDEwLjgyM1YxODEuNzhjLTE3LjM2OC0wLjQwNi0zMi41NzYtMS41ODktNDUuNjI0LTMuNTUgICAgICBjLTAuNDczLTAuMDctMC45MzktMC4xNDctMS4zOTYtMC4yMzJjLTE1LjYyNi0yLjM3My0yMy40NjItNS4yMjQtMjMuNTEyLTguNTU0YzAuMDUtMy4yOTIsNy44ODYtNi4xMjMsMjMuNTEyLTguNDk1ICAgICAgYzAuNDU3LTAuMTA1LDAuOTIzLTAuMjAyLDEuMzk2LTAuMjkxYzguMjQzLTEuMTg4LDE3LjM0LTIuMDYxLDI3LjI5Mi0yLjYxOGM1LjgzMS0wLjQwMywxMS45NDEtMC42OTQsMTguMzMyLTAuODczdi0xLjIyMiAgICAgIGMwLTAuMTE4LDAtMC4yMzQsMC0wLjM1MWMwLjEyMy0zLjI3LDEuMzQ0LTYuMDgxLDMuNjY3LTguNDM3YzIuNDQ2LTIuMzk0LDUuMzk0LTMuNTc4LDguODQ1LTMuNTUgICAgICBjMy40MTMtMC4wMjgsNi4zMjIsMS4xNTYsOC43MjksMy41NWMxLjM3NSwxLjQyMywyLjM0NiwzLjAxNCwyLjkxLDQuNzcxYzAuNDQ2LDEuMjQyLDAuNjU5LDIuNTgsMC42NDEsNC4wMTZ2MS4yMjIgICAgICBjMTguODI3LDAuMzA4LDM1LjIyLDEuNDcyLDQ5LjE3NSwzLjQ5MWMxNi41MTMsMi40NDgsMjQuNzc2LDUuMzc3LDI0Ljc5Miw4Ljc4NmMtMC4wMTYsMy40MjctOC4yNzksNi4zNTUtMjQuNzkyLDguNzg2ICAgICAgYy01Ljc4MSwwLjg2Ny0xMS45ODksMS41ODUtMTguNjIyLDIuMTU0Yy05LjM0NCwwLjc5OS0xOS41MjcsMS4zMDQtMzAuNTUzLDEuNTEzdjI2LjA2N2g5MC4wODYgICAgICBjNS4wMDQtNi4wOTIsMTEuMzg3LTEwLjcwOCwxOS4xNDYtMTMuODQ4YzcuNjE4LTMuMDU3LDE2LjU2MS00LjcwNCwyNi44MjktNC45NDZoMS4zMzljMS4xNzMtMC4wMzksMi4zNzMtMC4wMzksMy42MDcsMGgzOC41MjQgICAgICBDMjc2LjYxLDE4OS4xMzIsMjc3LjgxMywxODkuMTMyLDI3OC45ODYsMTg5LjE3MXoiIGNsaXAtcnVsZT0iZXZlbm9kZCIvPiYjeGE7JiN4YTs8L2c+JiN4YTsmI3hhOzxnPiYjeGE7JiN4YTs8cGF0aCBmaWxsLXJ1bGU9ImV2ZW5vZGQiIGZpbGw9IiMzMzMzMzMiIGQ9Ik0yNTYuMDU4LDI2OS40MTNjMy45MDEsMC4wMTQsNy4yMzgsMS40MTEsMTAuMDEsNC4xODggICAgICBjMi43NiwyLjc1MSw0LjEzNyw2LjA2OSw0LjEzMyw5Ljk1MWMwLjAwNCwzLjkwMS0xLjM3Myw3LjIzNy00LjEzMywxMC4wMDljLTIuNzcxLDIuNzU5LTYuMTA4LDQuMTM3LTEwLjAxLDQuMTMgICAgICBjLTMuODgzLDAuMDA3LTcuMTk5LTEuMzcxLTkuOTUyLTQuMTNjLTIuNzgtMi43NzEtNC4xNzYtNi4xMDctNC4xODktMTAuMDA5YzAuMDE0LTMuODgyLDEuNDA5LTcuMiw0LjE4OS05Ljk1MSAgICAgIEMyNDguODU4LDI3MC44MjQsMjUyLjE3NSwyNjkuNDI3LDI1Ni4wNTgsMjY5LjQxM3oiIGNsaXAtcnVsZT0iZXZlbm9kZCIvPiYjeGE7JiN4YTs8L2c+JiN4YTsmI3hhOzwvZz4mI3hhOyYjeGE7PC9nPiYjeGE7JiN4YTs8L3N2Zz4=;" parent="EdHErckxSNiNhH4EqncK-14" vertex="1">
          <mxGeometry x="46.66666666666667" y="25" width="34.41666666666667" height="17.616666666666667" as="geometry" />
        </mxCell>
        <mxCell id="EdHErckxSNiNhH4EqncK-8" value="" style="shape=image;verticalLabelPosition=bottom;labelBackgroundColor=default;verticalAlign=top;aspect=fixed;imageAspect=0;editableCssRules=.*;image=data:image/svg+xml,PHN2ZyB4bWxuczp4bGluaz0iaHR0cDovL3d3dy53My5vcmcvMTk5OS94bGluayIgeG1sbnM9Imh0dHA6Ly93d3cudzMub3JnLzIwMDAvc3ZnIiB4bWw6c3BhY2U9InByZXNlcnZlIiB2ZXJzaW9uPSIxLjEiIGlkPSLQodC70L7QuV8xIiB2aWV3Qm94PSIwLjUyNTk4MzgxMDQyNDgwNDcgMTQzLjYwNjUyMTYwNjQ0NTMgNTExLjE4MzAxMzkxNjAxNTYgMjYxLjg1MjA1MDc4MTI1IiBoZWlnaHQ9IjQwOS4xNDM4MjkzNDU3MDMxIiB3aWR0aD0iNzk4LjcyMzQ1OTI0Mzc3NDQiPiYjeGE7JiN4YTs8Zz4mI3hhOyYjeGE7PGc+JiN4YTsmI3hhOzxnPiYjeGE7JiN4YTs8cGF0aCBmaWxsLXJ1bGU9ImV2ZW5vZGQiIGZpbGw9IiMzMzMzMzMiIGQ9Ik0yNTYuMTE1LDI1NS4yNzJjLTcuNzg0LDAuMDEtMTQuNDM4LDIuNzgyLTE5Ljk2LDguMzIxICAgICAgYy01LjUzOSw1LjUyMS04LjMxNSwxMi4xNzUtOC4zMjIsMTkuOTU5YzAuMDA3LDcuODAyLDIuNzgzLDE0LjQ3NSw4LjMyMiwyMC4wMTdjNS41MjIsNS41MTksMTIuMTc2LDguMjczLDE5Ljk2LDguMjYyICAgICAgYzcuODA2LDAuMDEyLDE0LjQ3OC0yLjc0MywyMC4wMjEtOC4yNjJjNS41MTktNS41NDIsOC4yNzQtMTIuMjE1LDguMjYzLTIwLjAxN2MwLjAxMi03Ljc4NC0yLjc0NC0xNC40MzgtOC4yNjMtMTkuOTU5ICAgICAgQzI3MC41OTMsMjU4LjA1NSwyNjMuOTIxLDI1NS4yODIsMjU2LjExNSwyNTUuMjcyeiBNMjc4Ljk4NiwxODkuMTcxaDEuMzM5YzEwLjI2OCwwLjI0MiwxOS4yMTEsMS44OSwyNi44MjgsNC45NDYgICAgICBjNy43NTksMy4xNCwxNC4xNCw3Ljc1NiwxOS4xNDYsMTMuODQ4aDkwLjA4NnYtMjYuMDY3Yy0xMS4wMjctMC4yMDktMjEuMjExLTAuNzE0LTMwLjU1Mi0xLjUxMyAgICAgIGMtNi42MzYtMC41NjktMTIuODQyLTEuMjg3LTE4LjYyMy0yLjE1NGMtMTYuNTEzLTIuNDMxLTI0Ljc3NS01LjM1OS0yNC43OTItOC43ODZjMC4wMTctMy40MDksOC4yNzktNi4zMzgsMjQuNzkyLTguNzg2ICAgICAgYzEzLjk1Ni0yLjAyLDMwLjM0OS0zLjE4NCw0OS4xNzUtMy40OTF2LTEuMjIyYy0wLjAxOC0xLjQzNiwwLjE5Ni0yLjc3MywwLjY0LTQuMDE2YzAuNTY1LTEuNzU4LDEuNTM2LTMuMzQ5LDIuOTA5LTQuNzcxICAgICAgYzIuNDEtMi4zOTQsNS4zMTktMy41NzgsOC43MjktMy41NWMzLjQ1MS0wLjAyOCw2LjQwMSwxLjE1Niw4Ljg0OCwzLjU1YzIuMzIzLDIuMzU1LDMuNTQ0LDUuMTY3LDMuNjY0LDguNDM3ICAgICAgYzAsMC4xMTYsMCwwLjIzMiwwLDAuMzUxdjEuMjIyYzYuMzkzLDAuMTc5LDEyLjUwMywwLjQ3LDE4LjMzMSwwLjg3M2M5Ljk1NSwwLjU1OCwxOS4wNTMsMS40MzEsMjcuMjk1LDIuNjE4ICAgICAgYzAuNDc0LDAuMDg5LDAuOTM5LDAuMTg2LDEuMzk2LDAuMjkxYzE1LjYyNiwyLjM3MiwyMy40NjIsNS4yMDMsMjMuNTEyLDguNDk1Yy0wLjA1LDMuMzMtNy44ODYsNi4xODEtMjMuNTEyLDguNTU0ICAgICAgYy0wLjQ1NywwLjA4NS0wLjkyMywwLjE2Mi0xLjM5NiwwLjIzMmMtMTMuMDUxLDEuOTYxLTI4LjI1OSwzLjE0NC00NS42MjYsMy41NXYyNi4xODVINDUyYzMuNDMxLDAuMDEyLDYuMzYsMS4yMzMsOC43ODgsMy42NjYgICAgICBjMi40MzMsMi40MDgsMy42NTUsNS4zMTgsMy42NjUsOC43MjljLTAuMDA3LDIuNDI3LTAuNjI4LDQuNTk5LTEuODYyLDYuNTE3Yy0yLjExNCwyLjgxMi01LjE4MSw0Ljc4OS05LjE5NSw1LjkzNSAgICAgIGMtMzMuOTg0LDguMTQ2LTY3Ljk3LDE2LjI5My0xMDEuOTU3LDI0LjQzOWwzOC45MzQsODEuNTgyYzAuMjI2LDAuNDAyLDAuNDM5LDAuODEyLDAuNjM5LDEuMjIxICAgICAgYzkuMzMyLDI2LjIzNSwyLjgzMyw0Ny4yNDItMTkuNDk1LDYzLjAxOWMtMi44MDgsMi4wMTQtNS44OSwyLjc1My05LjI1MiwyLjIxMmMtMy4zMjUtMC42MTYtNS45NjUtMi4zNDEtNy45MTUtNS4xODEgICAgICBjLTIuMDE3LTIuNzk4LTIuNzU2LTUuODgyLTIuMjEyLTkuMjUxYzAuNTg0LTMuMzQzLDIuMjczLTYsNS4wNjQtNy45NzFjMTIuMDE3LTguNjE3LDE1LjQ5LTIwLjA2MiwxMC40MTYtMzQuMzMxICAgICAgbC00MC45MTEtODUuMzYybC0xMC42NSwyLjYxOHY0Mi41MzRjMC4wMDUsMy4wMzUtMC43NTMsNS44NjctMi4yNjksOC40OTd2MC4wNTdjLTEuNTM0LDIuNjEzLTMuNjEsNC42NjktNi4yMjcsNi4xNjkgICAgICBsLTQyLjk0OCwyNC43Mjl2MC4wNmMtMi42NTUsMS41MDktNS40ODcsMi4yNjctOC40OTcsMi4yNjljLTMuMDIzLTAuMDI1LTUuODU2LTAuOC04LjQ5NS0yLjMyOGwtNDIuODktMjQuNzg5bC0wLjExOC0wLjA1NyAgICAgIGMtMi41ODUtMS41MzYtNC42MjEtMy42MTEtNi4xMS02LjIyNmMtMS41MTktMi42My0yLjI3My01LjQ0NC0yLjI2OS04LjQzOHYtNDIuNDc4bC0xMC43MDctMi42MThsLTQwLjkxMiw4NS4zNjIgICAgICBjLTUuMDczLDE0LjI3LTEuNjAzLDI1LjcxNCwxMC40MTYsMzQuMzMxYzIuNzkyLDEuOTcxLDQuNDgsNC42MjgsNS4wNjMsNy45NzFjMC41NDYsMy4zNjktMC4xOTMsNi40NTMtMi4yMDksOS4yNTEgICAgICBjLTEuOTUxLDIuODQtNC41OSw0LjU2NC03LjkxNiw1LjE4MWMtMy4zNjIsMC41NDEtNi40NDYtMC4xOTgtOS4yNTItMi4yMTJjLTIyLjMyOC0xNS43NzYtMjguODI3LTM2Ljc4My0xOS40OTUtNjMuMDE5ICAgICAgYzAuMi0wLjQwOSwwLjQxNC0wLjgxOCwwLjYzOS0xLjIyMWwzOC45MzQtODEuNTgyYy0zMy45ODctOC4xNDYtNjcuOTcyLTE2LjI5My0xMDEuOTU5LTI0LjQzOSAgICAgIGMtNC4wMTUtMS4xNDYtNy4wNzktMy4xMjMtOS4xOTMtNS45MzVjLTEuMjM0LTEuOTE4LTEuODU1LTQuMDktMS44NjQtNi41MTdjMC4wMTEtMy40MSwxLjIzMi02LjMyLDMuNjY3LTguNzI5ICAgICAgYzIuNDI4LTIuNDMzLDUuMzU4LTMuNjU0LDguNzg5LTMuNjY2aDEwLjgyM1YxODEuNzhjLTE3LjM2OC0wLjQwNi0zMi41NzYtMS41ODktNDUuNjI0LTMuNTUgICAgICBjLTAuNDczLTAuMDctMC45MzktMC4xNDctMS4zOTYtMC4yMzJjLTE1LjYyNi0yLjM3My0yMy40NjItNS4yMjQtMjMuNTEyLTguNTU0YzAuMDUtMy4yOTIsNy44ODYtNi4xMjMsMjMuNTEyLTguNDk1ICAgICAgYzAuNDU3LTAuMTA1LDAuOTIzLTAuMjAyLDEuMzk2LTAuMjkxYzguMjQzLTEuMTg4LDE3LjM0LTIuMDYxLDI3LjI5Mi0yLjYxOGM1LjgzMS0wLjQwMywxMS45NDEtMC42OTQsMTguMzMyLTAuODczdi0xLjIyMiAgICAgIGMwLTAuMTE4LDAtMC4yMzQsMC0wLjM1MWMwLjEyMy0zLjI3LDEuMzQ0LTYuMDgxLDMuNjY3LTguNDM3YzIuNDQ2LTIuMzk0LDUuMzk0LTMuNTc4LDguODQ1LTMuNTUgICAgICBjMy40MTMtMC4wMjgsNi4zMjIsMS4xNTYsOC43MjksMy41NWMxLjM3NSwxLjQyMywyLjM0NiwzLjAxNCwyLjkxLDQuNzcxYzAuNDQ2LDEuMjQyLDAuNjU5LDIuNTgsMC42NDEsNC4wMTZ2MS4yMjIgICAgICBjMTguODI3LDAuMzA4LDM1LjIyLDEuNDcyLDQ5LjE3NSwzLjQ5MWMxNi41MTMsMi40NDgsMjQuNzc2LDUuMzc3LDI0Ljc5Miw4Ljc4NmMtMC4wMTYsMy40MjctOC4yNzksNi4zNTUtMjQuNzkyLDguNzg2ICAgICAgYy01Ljc4MSwwLjg2Ny0xMS45ODksMS41ODUtMTguNjIyLDIuMTU0Yy05LjM0NCwwLjc5OS0xOS41MjcsMS4zMDQtMzAuNTUzLDEuNTEzdjI2LjA2N2g5MC4wODYgICAgICBjNS4wMDQtNi4wOTIsMTEuMzg3LTEwLjcwOCwxOS4xNDYtMTMuODQ4YzcuNjE4LTMuMDU3LDE2LjU2MS00LjcwNCwyNi44MjktNC45NDZoMS4zMzljMS4xNzMtMC4wMzksMi4zNzMtMC4wMzksMy42MDcsMGgzOC41MjQgICAgICBDMjc2LjYxLDE4OS4xMzIsMjc3LjgxMywxODkuMTMyLDI3OC45ODYsMTg5LjE3MXoiIGNsaXAtcnVsZT0iZXZlbm9kZCIvPiYjeGE7JiN4YTs8L2c+JiN4YTsmI3hhOzxnPiYjeGE7JiN4YTs8cGF0aCBmaWxsLXJ1bGU9ImV2ZW5vZGQiIGZpbGw9IiMzMzMzMzMiIGQ9Ik0yNTYuMDU4LDI2OS40MTNjMy45MDEsMC4wMTQsNy4yMzgsMS40MTEsMTAuMDEsNC4xODggICAgICBjMi43NiwyLjc1MSw0LjEzNyw2LjA2OSw0LjEzMyw5Ljk1MWMwLjAwNCwzLjkwMS0xLjM3Myw3LjIzNy00LjEzMywxMC4wMDljLTIuNzcxLDIuNzU5LTYuMTA4LDQuMTM3LTEwLjAxLDQuMTMgICAgICBjLTMuODgzLDAuMDA3LTcuMTk5LTEuMzcxLTkuOTUyLTQuMTNjLTIuNzgtMi43NzEtNC4xNzYtNi4xMDctNC4xODktMTAuMDA5YzAuMDE0LTMuODgyLDEuNDA5LTcuMiw0LjE4OS05Ljk1MSAgICAgIEMyNDguODU4LDI3MC44MjQsMjUyLjE3NSwyNjkuNDI3LDI1Ni4wNTgsMjY5LjQxM3oiIGNsaXAtcnVsZT0iZXZlbm9kZCIvPiYjeGE7JiN4YTs8L2c+JiN4YTsmI3hhOzwvZz4mI3hhOyYjeGE7PC9nPiYjeGE7JiN4YTs8L3N2Zz4=;" parent="EdHErckxSNiNhH4EqncK-14" vertex="1">
          <mxGeometry x="69.41666666666667" y="24.750000000000014" width="34.41666666666667" height="17.616666666666667" as="geometry" />
        </mxCell>
        <mxCell id="EdHErckxSNiNhH4EqncK-9" value="" style="shape=image;verticalLabelPosition=bottom;labelBackgroundColor=default;verticalAlign=top;aspect=fixed;imageAspect=0;editableCssRules=.*;image=data:image/svg+xml,PHN2ZyB4bWxuczp4bGluaz0iaHR0cDovL3d3dy53My5vcmcvMTk5OS94bGluayIgeG1sbnM9Imh0dHA6Ly93d3cudzMub3JnLzIwMDAvc3ZnIiB4bWw6c3BhY2U9InByZXNlcnZlIiB2ZXJzaW9uPSIxLjEiIGlkPSLQodC70L7QuV8xIiB2aWV3Qm94PSIwLjUyNTk4MzgxMDQyNDgwNDcgMTQzLjYwNjUyMTYwNjQ0NTMgNTExLjE4MzAxMzkxNjAxNTYgMjYxLjg1MjA1MDc4MTI1IiBoZWlnaHQ9IjQwOS4xNDM4MjkzNDU3MDMxIiB3aWR0aD0iNzk4LjcyMzQ1OTI0Mzc3NDQiPiYjeGE7JiN4YTs8Zz4mI3hhOyYjeGE7PGc+JiN4YTsmI3hhOzxnPiYjeGE7JiN4YTs8cGF0aCBmaWxsLXJ1bGU9ImV2ZW5vZGQiIGZpbGw9IiMzMzMzMzMiIGQ9Ik0yNTYuMTE1LDI1NS4yNzJjLTcuNzg0LDAuMDEtMTQuNDM4LDIuNzgyLTE5Ljk2LDguMzIxICAgICAgYy01LjUzOSw1LjUyMS04LjMxNSwxMi4xNzUtOC4zMjIsMTkuOTU5YzAuMDA3LDcuODAyLDIuNzgzLDE0LjQ3NSw4LjMyMiwyMC4wMTdjNS41MjIsNS41MTksMTIuMTc2LDguMjczLDE5Ljk2LDguMjYyICAgICAgYzcuODA2LDAuMDEyLDE0LjQ3OC0yLjc0MywyMC4wMjEtOC4yNjJjNS41MTktNS41NDIsOC4yNzQtMTIuMjE1LDguMjYzLTIwLjAxN2MwLjAxMi03Ljc4NC0yLjc0NC0xNC40MzgtOC4yNjMtMTkuOTU5ICAgICAgQzI3MC41OTMsMjU4LjA1NSwyNjMuOTIxLDI1NS4yODIsMjU2LjExNSwyNTUuMjcyeiBNMjc4Ljk4NiwxODkuMTcxaDEuMzM5YzEwLjI2OCwwLjI0MiwxOS4yMTEsMS44OSwyNi44MjgsNC45NDYgICAgICBjNy43NTksMy4xNCwxNC4xNCw3Ljc1NiwxOS4xNDYsMTMuODQ4aDkwLjA4NnYtMjYuMDY3Yy0xMS4wMjctMC4yMDktMjEuMjExLTAuNzE0LTMwLjU1Mi0xLjUxMyAgICAgIGMtNi42MzYtMC41NjktMTIuODQyLTEuMjg3LTE4LjYyMy0yLjE1NGMtMTYuNTEzLTIuNDMxLTI0Ljc3NS01LjM1OS0yNC43OTItOC43ODZjMC4wMTctMy40MDksOC4yNzktNi4zMzgsMjQuNzkyLTguNzg2ICAgICAgYzEzLjk1Ni0yLjAyLDMwLjM0OS0zLjE4NCw0OS4xNzUtMy40OTF2LTEuMjIyYy0wLjAxOC0xLjQzNiwwLjE5Ni0yLjc3MywwLjY0LTQuMDE2YzAuNTY1LTEuNzU4LDEuNTM2LTMuMzQ5LDIuOTA5LTQuNzcxICAgICAgYzIuNDEtMi4zOTQsNS4zMTktMy41NzgsOC43MjktMy41NWMzLjQ1MS0wLjAyOCw2LjQwMSwxLjE1Niw4Ljg0OCwzLjU1YzIuMzIzLDIuMzU1LDMuNTQ0LDUuMTY3LDMuNjY0LDguNDM3ICAgICAgYzAsMC4xMTYsMCwwLjIzMiwwLDAuMzUxdjEuMjIyYzYuMzkzLDAuMTc5LDEyLjUwMywwLjQ3LDE4LjMzMSwwLjg3M2M5Ljk1NSwwLjU1OCwxOS4wNTMsMS40MzEsMjcuMjk1LDIuNjE4ICAgICAgYzAuNDc0LDAuMDg5LDAuOTM5LDAuMTg2LDEuMzk2LDAuMjkxYzE1LjYyNiwyLjM3MiwyMy40NjIsNS4yMDMsMjMuNTEyLDguNDk1Yy0wLjA1LDMuMzMtNy44ODYsNi4xODEtMjMuNTEyLDguNTU0ICAgICAgYy0wLjQ1NywwLjA4NS0wLjkyMywwLjE2Mi0xLjM5NiwwLjIzMmMtMTMuMDUxLDEuOTYxLTI4LjI1OSwzLjE0NC00NS42MjYsMy41NXYyNi4xODVINDUyYzMuNDMxLDAuMDEyLDYuMzYsMS4yMzMsOC43ODgsMy42NjYgICAgICBjMi40MzMsMi40MDgsMy42NTUsNS4zMTgsMy42NjUsOC43MjljLTAuMDA3LDIuNDI3LTAuNjI4LDQuNTk5LTEuODYyLDYuNTE3Yy0yLjExNCwyLjgxMi01LjE4MSw0Ljc4OS05LjE5NSw1LjkzNSAgICAgIGMtMzMuOTg0LDguMTQ2LTY3Ljk3LDE2LjI5My0xMDEuOTU3LDI0LjQzOWwzOC45MzQsODEuNTgyYzAuMjI2LDAuNDAyLDAuNDM5LDAuODEyLDAuNjM5LDEuMjIxICAgICAgYzkuMzMyLDI2LjIzNSwyLjgzMyw0Ny4yNDItMTkuNDk1LDYzLjAxOWMtMi44MDgsMi4wMTQtNS44OSwyLjc1My05LjI1MiwyLjIxMmMtMy4zMjUtMC42MTYtNS45NjUtMi4zNDEtNy45MTUtNS4xODEgICAgICBjLTIuMDE3LTIuNzk4LTIuNzU2LTUuODgyLTIuMjEyLTkuMjUxYzAuNTg0LTMuMzQzLDIuMjczLTYsNS4wNjQtNy45NzFjMTIuMDE3LTguNjE3LDE1LjQ5LTIwLjA2MiwxMC40MTYtMzQuMzMxICAgICAgbC00MC45MTEtODUuMzYybC0xMC42NSwyLjYxOHY0Mi41MzRjMC4wMDUsMy4wMzUtMC43NTMsNS44NjctMi4yNjksOC40OTd2MC4wNTdjLTEuNTM0LDIuNjEzLTMuNjEsNC42NjktNi4yMjcsNi4xNjkgICAgICBsLTQyLjk0OCwyNC43Mjl2MC4wNmMtMi42NTUsMS41MDktNS40ODcsMi4yNjctOC40OTcsMi4yNjljLTMuMDIzLTAuMDI1LTUuODU2LTAuOC04LjQ5NS0yLjMyOGwtNDIuODktMjQuNzg5bC0wLjExOC0wLjA1NyAgICAgIGMtMi41ODUtMS41MzYtNC42MjEtMy42MTEtNi4xMS02LjIyNmMtMS41MTktMi42My0yLjI3My01LjQ0NC0yLjI2OS04LjQzOHYtNDIuNDc4bC0xMC43MDctMi42MThsLTQwLjkxMiw4NS4zNjIgICAgICBjLTUuMDczLDE0LjI3LTEuNjAzLDI1LjcxNCwxMC40MTYsMzQuMzMxYzIuNzkyLDEuOTcxLDQuNDgsNC42MjgsNS4wNjMsNy45NzFjMC41NDYsMy4zNjktMC4xOTMsNi40NTMtMi4yMDksOS4yNTEgICAgICBjLTEuOTUxLDIuODQtNC41OSw0LjU2NC03LjkxNiw1LjE4MWMtMy4zNjIsMC41NDEtNi40NDYtMC4xOTgtOS4yNTItMi4yMTJjLTIyLjMyOC0xNS43NzYtMjguODI3LTM2Ljc4My0xOS40OTUtNjMuMDE5ICAgICAgYzAuMi0wLjQwOSwwLjQxNC0wLjgxOCwwLjYzOS0xLjIyMWwzOC45MzQtODEuNTgyYy0zMy45ODctOC4xNDYtNjcuOTcyLTE2LjI5My0xMDEuOTU5LTI0LjQzOSAgICAgIGMtNC4wMTUtMS4xNDYtNy4wNzktMy4xMjMtOS4xOTMtNS45MzVjLTEuMjM0LTEuOTE4LTEuODU1LTQuMDktMS44NjQtNi41MTdjMC4wMTEtMy40MSwxLjIzMi02LjMyLDMuNjY3LTguNzI5ICAgICAgYzIuNDI4LTIuNDMzLDUuMzU4LTMuNjU0LDguNzg5LTMuNjY2aDEwLjgyM1YxODEuNzhjLTE3LjM2OC0wLjQwNi0zMi41NzYtMS41ODktNDUuNjI0LTMuNTUgICAgICBjLTAuNDczLTAuMDctMC45MzktMC4xNDctMS4zOTYtMC4yMzJjLTE1LjYyNi0yLjM3My0yMy40NjItNS4yMjQtMjMuNTEyLTguNTU0YzAuMDUtMy4yOTIsNy44ODYtNi4xMjMsMjMuNTEyLTguNDk1ICAgICAgYzAuNDU3LTAuMTA1LDAuOTIzLTAuMjAyLDEuMzk2LTAuMjkxYzguMjQzLTEuMTg4LDE3LjM0LTIuMDYxLDI3LjI5Mi0yLjYxOGM1LjgzMS0wLjQwMywxMS45NDEtMC42OTQsMTguMzMyLTAuODczdi0xLjIyMiAgICAgIGMwLTAuMTE4LDAtMC4yMzQsMC0wLjM1MWMwLjEyMy0zLjI3LDEuMzQ0LTYuMDgxLDMuNjY3LTguNDM3YzIuNDQ2LTIuMzk0LDUuMzk0LTMuNTc4LDguODQ1LTMuNTUgICAgICBjMy40MTMtMC4wMjgsNi4zMjIsMS4xNTYsOC43MjksMy41NWMxLjM3NSwxLjQyMywyLjM0NiwzLjAxNCwyLjkxLDQuNzcxYzAuNDQ2LDEuMjQyLDAuNjU5LDIuNTgsMC42NDEsNC4wMTZ2MS4yMjIgICAgICBjMTguODI3LDAuMzA4LDM1LjIyLDEuNDcyLDQ5LjE3NSwzLjQ5MWMxNi41MTMsMi40NDgsMjQuNzc2LDUuMzc3LDI0Ljc5Miw4Ljc4NmMtMC4wMTYsMy40MjctOC4yNzksNi4zNTUtMjQuNzkyLDguNzg2ICAgICAgYy01Ljc4MSwwLjg2Ny0xMS45ODksMS41ODUtMTguNjIyLDIuMTU0Yy05LjM0NCwwLjc5OS0xOS41MjcsMS4zMDQtMzAuNTUzLDEuNTEzdjI2LjA2N2g5MC4wODYgICAgICBjNS4wMDQtNi4wOTIsMTEuMzg3LTEwLjcwOCwxOS4xNDYtMTMuODQ4YzcuNjE4LTMuMDU3LDE2LjU2MS00LjcwNCwyNi44MjktNC45NDZoMS4zMzljMS4xNzMtMC4wMzksMi4zNzMtMC4wMzksMy42MDcsMGgzOC41MjQgICAgICBDMjc2LjYxLDE4OS4xMzIsMjc3LjgxMywxODkuMTMyLDI3OC45ODYsMTg5LjE3MXoiIGNsaXAtcnVsZT0iZXZlbm9kZCIvPiYjeGE7JiN4YTs8L2c+JiN4YTsmI3hhOzxnPiYjeGE7JiN4YTs8cGF0aCBmaWxsLXJ1bGU9ImV2ZW5vZGQiIGZpbGw9IiMzMzMzMzMiIGQ9Ik0yNTYuMDU4LDI2OS40MTNjMy45MDEsMC4wMTQsNy4yMzgsMS40MTEsMTAuMDEsNC4xODggICAgICBjMi43NiwyLjc1MSw0LjEzNyw2LjA2OSw0LjEzMyw5Ljk1MWMwLjAwNCwzLjkwMS0xLjM3Myw3LjIzNy00LjEzMywxMC4wMDljLTIuNzcxLDIuNzU5LTYuMTA4LDQuMTM3LTEwLjAxLDQuMTMgICAgICBjLTMuODgzLDAuMDA3LTcuMTk5LTEuMzcxLTkuOTUyLTQuMTNjLTIuNzgtMi43NzEtNC4xNzYtNi4xMDctNC4xODktMTAuMDA5YzAuMDE0LTMuODgyLDEuNDA5LTcuMiw0LjE4OS05Ljk1MSAgICAgIEMyNDguODU4LDI3MC44MjQsMjUyLjE3NSwyNjkuNDI3LDI1Ni4wNTgsMjY5LjQxM3oiIGNsaXAtcnVsZT0iZXZlbm9kZCIvPiYjeGE7JiN4YTs8L2c+JiN4YTsmI3hhOzwvZz4mI3hhOyYjeGE7PC9nPiYjeGE7JiN4YTs8L3N2Zz4=;" parent="EdHErckxSNiNhH4EqncK-14" vertex="1">
          <mxGeometry x="58.333333333333336" y="62.5" width="34.41666666666667" height="17.616666666666667" as="geometry" />
        </mxCell>
        <mxCell id="EdHErckxSNiNhH4EqncK-10" value="" style="shape=image;verticalLabelPosition=bottom;labelBackgroundColor=default;verticalAlign=top;aspect=fixed;imageAspect=0;editableCssRules=.*;image=data:image/svg+xml,PHN2ZyB4bWxuczp4bGluaz0iaHR0cDovL3d3dy53My5vcmcvMTk5OS94bGluayIgeG1sbnM9Imh0dHA6Ly93d3cudzMub3JnLzIwMDAvc3ZnIiB4bWw6c3BhY2U9InByZXNlcnZlIiB2ZXJzaW9uPSIxLjEiIGlkPSLQodC70L7QuV8xIiB2aWV3Qm94PSIwLjUyNTk4MzgxMDQyNDgwNDcgMTQzLjYwNjUyMTYwNjQ0NTMgNTExLjE4MzAxMzkxNjAxNTYgMjYxLjg1MjA1MDc4MTI1IiBoZWlnaHQ9IjQwOS4xNDM4MjkzNDU3MDMxIiB3aWR0aD0iNzk4LjcyMzQ1OTI0Mzc3NDQiPiYjeGE7JiN4YTs8Zz4mI3hhOyYjeGE7PGc+JiN4YTsmI3hhOzxnPiYjeGE7JiN4YTs8cGF0aCBmaWxsLXJ1bGU9ImV2ZW5vZGQiIGZpbGw9IiMzMzMzMzMiIGQ9Ik0yNTYuMTE1LDI1NS4yNzJjLTcuNzg0LDAuMDEtMTQuNDM4LDIuNzgyLTE5Ljk2LDguMzIxICAgICAgYy01LjUzOSw1LjUyMS04LjMxNSwxMi4xNzUtOC4zMjIsMTkuOTU5YzAuMDA3LDcuODAyLDIuNzgzLDE0LjQ3NSw4LjMyMiwyMC4wMTdjNS41MjIsNS41MTksMTIuMTc2LDguMjczLDE5Ljk2LDguMjYyICAgICAgYzcuODA2LDAuMDEyLDE0LjQ3OC0yLjc0MywyMC4wMjEtOC4yNjJjNS41MTktNS41NDIsOC4yNzQtMTIuMjE1LDguMjYzLTIwLjAxN2MwLjAxMi03Ljc4NC0yLjc0NC0xNC40MzgtOC4yNjMtMTkuOTU5ICAgICAgQzI3MC41OTMsMjU4LjA1NSwyNjMuOTIxLDI1NS4yODIsMjU2LjExNSwyNTUuMjcyeiBNMjc4Ljk4NiwxODkuMTcxaDEuMzM5YzEwLjI2OCwwLjI0MiwxOS4yMTEsMS44OSwyNi44MjgsNC45NDYgICAgICBjNy43NTksMy4xNCwxNC4xNCw3Ljc1NiwxOS4xNDYsMTMuODQ4aDkwLjA4NnYtMjYuMDY3Yy0xMS4wMjctMC4yMDktMjEuMjExLTAuNzE0LTMwLjU1Mi0xLjUxMyAgICAgIGMtNi42MzYtMC41NjktMTIuODQyLTEuMjg3LTE4LjYyMy0yLjE1NGMtMTYuNTEzLTIuNDMxLTI0Ljc3NS01LjM1OS0yNC43OTItOC43ODZjMC4wMTctMy40MDksOC4yNzktNi4zMzgsMjQuNzkyLTguNzg2ICAgICAgYzEzLjk1Ni0yLjAyLDMwLjM0OS0zLjE4NCw0OS4xNzUtMy40OTF2LTEuMjIyYy0wLjAxOC0xLjQzNiwwLjE5Ni0yLjc3MywwLjY0LTQuMDE2YzAuNTY1LTEuNzU4LDEuNTM2LTMuMzQ5LDIuOTA5LTQuNzcxICAgICAgYzIuNDEtMi4zOTQsNS4zMTktMy41NzgsOC43MjktMy41NWMzLjQ1MS0wLjAyOCw2LjQwMSwxLjE1Niw4Ljg0OCwzLjU1YzIuMzIzLDIuMzU1LDMuNTQ0LDUuMTY3LDMuNjY0LDguNDM3ICAgICAgYzAsMC4xMTYsMCwwLjIzMiwwLDAuMzUxdjEuMjIyYzYuMzkzLDAuMTc5LDEyLjUwMywwLjQ3LDE4LjMzMSwwLjg3M2M5Ljk1NSwwLjU1OCwxOS4wNTMsMS40MzEsMjcuMjk1LDIuNjE4ICAgICAgYzAuNDc0LDAuMDg5LDAuOTM5LDAuMTg2LDEuMzk2LDAuMjkxYzE1LjYyNiwyLjM3MiwyMy40NjIsNS4yMDMsMjMuNTEyLDguNDk1Yy0wLjA1LDMuMzMtNy44ODYsNi4xODEtMjMuNTEyLDguNTU0ICAgICAgYy0wLjQ1NywwLjA4NS0wLjkyMywwLjE2Mi0xLjM5NiwwLjIzMmMtMTMuMDUxLDEuOTYxLTI4LjI1OSwzLjE0NC00NS42MjYsMy41NXYyNi4xODVINDUyYzMuNDMxLDAuMDEyLDYuMzYsMS4yMzMsOC43ODgsMy42NjYgICAgICBjMi40MzMsMi40MDgsMy42NTUsNS4zMTgsMy42NjUsOC43MjljLTAuMDA3LDIuNDI3LTAuNjI4LDQuNTk5LTEuODYyLDYuNTE3Yy0yLjExNCwyLjgxMi01LjE4MSw0Ljc4OS05LjE5NSw1LjkzNSAgICAgIGMtMzMuOTg0LDguMTQ2LTY3Ljk3LDE2LjI5My0xMDEuOTU3LDI0LjQzOWwzOC45MzQsODEuNTgyYzAuMjI2LDAuNDAyLDAuNDM5LDAuODEyLDAuNjM5LDEuMjIxICAgICAgYzkuMzMyLDI2LjIzNSwyLjgzMyw0Ny4yNDItMTkuNDk1LDYzLjAxOWMtMi44MDgsMi4wMTQtNS44OSwyLjc1My05LjI1MiwyLjIxMmMtMy4zMjUtMC42MTYtNS45NjUtMi4zNDEtNy45MTUtNS4xODEgICAgICBjLTIuMDE3LTIuNzk4LTIuNzU2LTUuODgyLTIuMjEyLTkuMjUxYzAuNTg0LTMuMzQzLDIuMjczLTYsNS4wNjQtNy45NzFjMTIuMDE3LTguNjE3LDE1LjQ5LTIwLjA2MiwxMC40MTYtMzQuMzMxICAgICAgbC00MC45MTEtODUuMzYybC0xMC42NSwyLjYxOHY0Mi41MzRjMC4wMDUsMy4wMzUtMC43NTMsNS44NjctMi4yNjksOC40OTd2MC4wNTdjLTEuNTM0LDIuNjEzLTMuNjEsNC42NjktNi4yMjcsNi4xNjkgICAgICBsLTQyLjk0OCwyNC43Mjl2MC4wNmMtMi42NTUsMS41MDktNS40ODcsMi4yNjctOC40OTcsMi4yNjljLTMuMDIzLTAuMDI1LTUuODU2LTAuOC04LjQ5NS0yLjMyOGwtNDIuODktMjQuNzg5bC0wLjExOC0wLjA1NyAgICAgIGMtMi41ODUtMS41MzYtNC42MjEtMy42MTEtNi4xMS02LjIyNmMtMS41MTktMi42My0yLjI3My01LjQ0NC0yLjI2OS04LjQzOHYtNDIuNDc4bC0xMC43MDctMi42MThsLTQwLjkxMiw4NS4zNjIgICAgICBjLTUuMDczLDE0LjI3LTEuNjAzLDI1LjcxNCwxMC40MTYsMzQuMzMxYzIuNzkyLDEuOTcxLDQuNDgsNC42MjgsNS4wNjMsNy45NzFjMC41NDYsMy4zNjktMC4xOTMsNi40NTMtMi4yMDksOS4yNTEgICAgICBjLTEuOTUxLDIuODQtNC41OSw0LjU2NC03LjkxNiw1LjE4MWMtMy4zNjIsMC41NDEtNi40NDYtMC4xOTgtOS4yNTItMi4yMTJjLTIyLjMyOC0xNS43NzYtMjguODI3LTM2Ljc4My0xOS40OTUtNjMuMDE5ICAgICAgYzAuMi0wLjQwOSwwLjQxNC0wLjgxOCwwLjYzOS0xLjIyMWwzOC45MzQtODEuNTgyYy0zMy45ODctOC4xNDYtNjcuOTcyLTE2LjI5My0xMDEuOTU5LTI0LjQzOSAgICAgIGMtNC4wMTUtMS4xNDYtNy4wNzktMy4xMjMtOS4xOTMtNS45MzVjLTEuMjM0LTEuOTE4LTEuODU1LTQuMDktMS44NjQtNi41MTdjMC4wMTEtMy40MSwxLjIzMi02LjMyLDMuNjY3LTguNzI5ICAgICAgYzIuNDI4LTIuNDMzLDUuMzU4LTMuNjU0LDguNzg5LTMuNjY2aDEwLjgyM1YxODEuNzhjLTE3LjM2OC0wLjQwNi0zMi41NzYtMS41ODktNDUuNjI0LTMuNTUgICAgICBjLTAuNDczLTAuMDctMC45MzktMC4xNDctMS4zOTYtMC4yMzJjLTE1LjYyNi0yLjM3My0yMy40NjItNS4yMjQtMjMuNTEyLTguNTU0YzAuMDUtMy4yOTIsNy44ODYtNi4xMjMsMjMuNTEyLTguNDk1ICAgICAgYzAuNDU3LTAuMTA1LDAuOTIzLTAuMjAyLDEuMzk2LTAuMjkxYzguMjQzLTEuMTg4LDE3LjM0LTIuMDYxLDI3LjI5Mi0yLjYxOGM1LjgzMS0wLjQwMywxMS45NDEtMC42OTQsMTguMzMyLTAuODczdi0xLjIyMiAgICAgIGMwLTAuMTE4LDAtMC4yMzQsMC0wLjM1MWMwLjEyMy0zLjI3LDEuMzQ0LTYuMDgxLDMuNjY3LTguNDM3YzIuNDQ2LTIuMzk0LDUuMzk0LTMuNTc4LDguODQ1LTMuNTUgICAgICBjMy40MTMtMC4wMjgsNi4zMjIsMS4xNTYsOC43MjksMy41NWMxLjM3NSwxLjQyMywyLjM0NiwzLjAxNCwyLjkxLDQuNzcxYzAuNDQ2LDEuMjQyLDAuNjU5LDIuNTgsMC42NDEsNC4wMTZ2MS4yMjIgICAgICBjMTguODI3LDAuMzA4LDM1LjIyLDEuNDcyLDQ5LjE3NSwzLjQ5MWMxNi41MTMsMi40NDgsMjQuNzc2LDUuMzc3LDI0Ljc5Miw4Ljc4NmMtMC4wMTYsMy40MjctOC4yNzksNi4zNTUtMjQuNzkyLDguNzg2ICAgICAgYy01Ljc4MSwwLjg2Ny0xMS45ODksMS41ODUtMTguNjIyLDIuMTU0Yy05LjM0NCwwLjc5OS0xOS41MjcsMS4zMDQtMzAuNTUzLDEuNTEzdjI2LjA2N2g5MC4wODYgICAgICBjNS4wMDQtNi4wOTIsMTEuMzg3LTEwLjcwOCwxOS4xNDYtMTMuODQ4YzcuNjE4LTMuMDU3LDE2LjU2MS00LjcwNCwyNi44MjktNC45NDZoMS4zMzljMS4xNzMtMC4wMzksMi4zNzMtMC4wMzksMy42MDcsMGgzOC41MjQgICAgICBDMjc2LjYxLDE4OS4xMzIsMjc3LjgxMywxODkuMTMyLDI3OC45ODYsMTg5LjE3MXoiIGNsaXAtcnVsZT0iZXZlbm9kZCIvPiYjeGE7JiN4YTs8L2c+JiN4YTsmI3hhOzxnPiYjeGE7JiN4YTs8cGF0aCBmaWxsLXJ1bGU9ImV2ZW5vZGQiIGZpbGw9IiMzMzMzMzMiIGQ9Ik0yNTYuMDU4LDI2OS40MTNjMy45MDEsMC4wMTQsNy4yMzgsMS40MTEsMTAuMDEsNC4xODggICAgICBjMi43NiwyLjc1MSw0LjEzNyw2LjA2OSw0LjEzMyw5Ljk1MWMwLjAwNCwzLjkwMS0xLjM3Myw3LjIzNy00LjEzMywxMC4wMDljLTIuNzcxLDIuNzU5LTYuMTA4LDQuMTM3LTEwLjAxLDQuMTMgICAgICBjLTMuODgzLDAuMDA3LTcuMTk5LTEuMzcxLTkuOTUyLTQuMTNjLTIuNzgtMi43NzEtNC4xNzYtNi4xMDctNC4xODktMTAuMDA5YzAuMDE0LTMuODgyLDEuNDA5LTcuMiw0LjE4OS05Ljk1MSAgICAgIEMyNDguODU4LDI3MC44MjQsMjUyLjE3NSwyNjkuNDI3LDI1Ni4wNTgsMjY5LjQxM3oiIGNsaXAtcnVsZT0iZXZlbm9kZCIvPiYjeGE7JiN4YTs8L2c+JiN4YTsmI3hhOzwvZz4mI3hhOyYjeGE7PC9nPiYjeGE7JiN4YTs8L3N2Zz4=;" parent="EdHErckxSNiNhH4EqncK-14" vertex="1">
          <mxGeometry x="35" y="50" width="34.41666666666667" height="17.616666666666667" as="geometry" />
        </mxCell>
        <mxCell id="EdHErckxSNiNhH4EqncK-11" value="" style="shape=image;verticalLabelPosition=bottom;labelBackgroundColor=default;verticalAlign=top;aspect=fixed;imageAspect=0;editableCssRules=.*;image=data:image/svg+xml,PHN2ZyB4bWxuczp4bGluaz0iaHR0cDovL3d3dy53My5vcmcvMTk5OS94bGluayIgeG1sbnM9Imh0dHA6Ly93d3cudzMub3JnLzIwMDAvc3ZnIiB4bWw6c3BhY2U9InByZXNlcnZlIiB2ZXJzaW9uPSIxLjEiIGlkPSLQodC70L7QuV8xIiB2aWV3Qm94PSIwLjUyNTk4MzgxMDQyNDgwNDcgMTQzLjYwNjUyMTYwNjQ0NTMgNTExLjE4MzAxMzkxNjAxNTYgMjYxLjg1MjA1MDc4MTI1IiBoZWlnaHQ9IjQwOS4xNDM4MjkzNDU3MDMxIiB3aWR0aD0iNzk4LjcyMzQ1OTI0Mzc3NDQiPiYjeGE7JiN4YTs8Zz4mI3hhOyYjeGE7PGc+JiN4YTsmI3hhOzxnPiYjeGE7JiN4YTs8cGF0aCBmaWxsLXJ1bGU9ImV2ZW5vZGQiIGZpbGw9IiMzMzMzMzMiIGQ9Ik0yNTYuMTE1LDI1NS4yNzJjLTcuNzg0LDAuMDEtMTQuNDM4LDIuNzgyLTE5Ljk2LDguMzIxICAgICAgYy01LjUzOSw1LjUyMS04LjMxNSwxMi4xNzUtOC4zMjIsMTkuOTU5YzAuMDA3LDcuODAyLDIuNzgzLDE0LjQ3NSw4LjMyMiwyMC4wMTdjNS41MjIsNS41MTksMTIuMTc2LDguMjczLDE5Ljk2LDguMjYyICAgICAgYzcuODA2LDAuMDEyLDE0LjQ3OC0yLjc0MywyMC4wMjEtOC4yNjJjNS41MTktNS41NDIsOC4yNzQtMTIuMjE1LDguMjYzLTIwLjAxN2MwLjAxMi03Ljc4NC0yLjc0NC0xNC40MzgtOC4yNjMtMTkuOTU5ICAgICAgQzI3MC41OTMsMjU4LjA1NSwyNjMuOTIxLDI1NS4yODIsMjU2LjExNSwyNTUuMjcyeiBNMjc4Ljk4NiwxODkuMTcxaDEuMzM5YzEwLjI2OCwwLjI0MiwxOS4yMTEsMS44OSwyNi44MjgsNC45NDYgICAgICBjNy43NTksMy4xNCwxNC4xNCw3Ljc1NiwxOS4xNDYsMTMuODQ4aDkwLjA4NnYtMjYuMDY3Yy0xMS4wMjctMC4yMDktMjEuMjExLTAuNzE0LTMwLjU1Mi0xLjUxMyAgICAgIGMtNi42MzYtMC41NjktMTIuODQyLTEuMjg3LTE4LjYyMy0yLjE1NGMtMTYuNTEzLTIuNDMxLTI0Ljc3NS01LjM1OS0yNC43OTItOC43ODZjMC4wMTctMy40MDksOC4yNzktNi4zMzgsMjQuNzkyLTguNzg2ICAgICAgYzEzLjk1Ni0yLjAyLDMwLjM0OS0zLjE4NCw0OS4xNzUtMy40OTF2LTEuMjIyYy0wLjAxOC0xLjQzNiwwLjE5Ni0yLjc3MywwLjY0LTQuMDE2YzAuNTY1LTEuNzU4LDEuNTM2LTMuMzQ5LDIuOTA5LTQuNzcxICAgICAgYzIuNDEtMi4zOTQsNS4zMTktMy41NzgsOC43MjktMy41NWMzLjQ1MS0wLjAyOCw2LjQwMSwxLjE1Niw4Ljg0OCwzLjU1YzIuMzIzLDIuMzU1LDMuNTQ0LDUuMTY3LDMuNjY0LDguNDM3ICAgICAgYzAsMC4xMTYsMCwwLjIzMiwwLDAuMzUxdjEuMjIyYzYuMzkzLDAuMTc5LDEyLjUwMywwLjQ3LDE4LjMzMSwwLjg3M2M5Ljk1NSwwLjU1OCwxOS4wNTMsMS40MzEsMjcuMjk1LDIuNjE4ICAgICAgYzAuNDc0LDAuMDg5LDAuOTM5LDAuMTg2LDEuMzk2LDAuMjkxYzE1LjYyNiwyLjM3MiwyMy40NjIsNS4yMDMsMjMuNTEyLDguNDk1Yy0wLjA1LDMuMzMtNy44ODYsNi4xODEtMjMuNTEyLDguNTU0ICAgICAgYy0wLjQ1NywwLjA4NS0wLjkyMywwLjE2Mi0xLjM5NiwwLjIzMmMtMTMuMDUxLDEuOTYxLTI4LjI1OSwzLjE0NC00NS42MjYsMy41NXYyNi4xODVINDUyYzMuNDMxLDAuMDEyLDYuMzYsMS4yMzMsOC43ODgsMy42NjYgICAgICBjMi40MzMsMi40MDgsMy42NTUsNS4zMTgsMy42NjUsOC43MjljLTAuMDA3LDIuNDI3LTAuNjI4LDQuNTk5LTEuODYyLDYuNTE3Yy0yLjExNCwyLjgxMi01LjE4MSw0Ljc4OS05LjE5NSw1LjkzNSAgICAgIGMtMzMuOTg0LDguMTQ2LTY3Ljk3LDE2LjI5My0xMDEuOTU3LDI0LjQzOWwzOC45MzQsODEuNTgyYzAuMjI2LDAuNDAyLDAuNDM5LDAuODEyLDAuNjM5LDEuMjIxICAgICAgYzkuMzMyLDI2LjIzNSwyLjgzMyw0Ny4yNDItMTkuNDk1LDYzLjAxOWMtMi44MDgsMi4wMTQtNS44OSwyLjc1My05LjI1MiwyLjIxMmMtMy4zMjUtMC42MTYtNS45NjUtMi4zNDEtNy45MTUtNS4xODEgICAgICBjLTIuMDE3LTIuNzk4LTIuNzU2LTUuODgyLTIuMjEyLTkuMjUxYzAuNTg0LTMuMzQzLDIuMjczLTYsNS4wNjQtNy45NzFjMTIuMDE3LTguNjE3LDE1LjQ5LTIwLjA2MiwxMC40MTYtMzQuMzMxICAgICAgbC00MC45MTEtODUuMzYybC0xMC42NSwyLjYxOHY0Mi41MzRjMC4wMDUsMy4wMzUtMC43NTMsNS44NjctMi4yNjksOC40OTd2MC4wNTdjLTEuNTM0LDIuNjEzLTMuNjEsNC42NjktNi4yMjcsNi4xNjkgICAgICBsLTQyLjk0OCwyNC43Mjl2MC4wNmMtMi42NTUsMS41MDktNS40ODcsMi4yNjctOC40OTcsMi4yNjljLTMuMDIzLTAuMDI1LTUuODU2LTAuOC04LjQ5NS0yLjMyOGwtNDIuODktMjQuNzg5bC0wLjExOC0wLjA1NyAgICAgIGMtMi41ODUtMS41MzYtNC42MjEtMy42MTEtNi4xMS02LjIyNmMtMS41MTktMi42My0yLjI3My01LjQ0NC0yLjI2OS04LjQzOHYtNDIuNDc4bC0xMC43MDctMi42MThsLTQwLjkxMiw4NS4zNjIgICAgICBjLTUuMDczLDE0LjI3LTEuNjAzLDI1LjcxNCwxMC40MTYsMzQuMzMxYzIuNzkyLDEuOTcxLDQuNDgsNC42MjgsNS4wNjMsNy45NzFjMC41NDYsMy4zNjktMC4xOTMsNi40NTMtMi4yMDksOS4yNTEgICAgICBjLTEuOTUxLDIuODQtNC41OSw0LjU2NC03LjkxNiw1LjE4MWMtMy4zNjIsMC41NDEtNi40NDYtMC4xOTgtOS4yNTItMi4yMTJjLTIyLjMyOC0xNS43NzYtMjguODI3LTM2Ljc4My0xOS40OTUtNjMuMDE5ICAgICAgYzAuMi0wLjQwOSwwLjQxNC0wLjgxOCwwLjYzOS0xLjIyMWwzOC45MzQtODEuNTgyYy0zMy45ODctOC4xNDYtNjcuOTcyLTE2LjI5My0xMDEuOTU5LTI0LjQzOSAgICAgIGMtNC4wMTUtMS4xNDYtNy4wNzktMy4xMjMtOS4xOTMtNS45MzVjLTEuMjM0LTEuOTE4LTEuODU1LTQuMDktMS44NjQtNi41MTdjMC4wMTEtMy40MSwxLjIzMi02LjMyLDMuNjY3LTguNzI5ICAgICAgYzIuNDI4LTIuNDMzLDUuMzU4LTMuNjU0LDguNzg5LTMuNjY2aDEwLjgyM1YxODEuNzhjLTE3LjM2OC0wLjQwNi0zMi41NzYtMS41ODktNDUuNjI0LTMuNTUgICAgICBjLTAuNDczLTAuMDctMC45MzktMC4xNDctMS4zOTYtMC4yMzJjLTE1LjYyNi0yLjM3My0yMy40NjItNS4yMjQtMjMuNTEyLTguNTU0YzAuMDUtMy4yOTIsNy44ODYtNi4xMjMsMjMuNTEyLTguNDk1ICAgICAgYzAuNDU3LTAuMTA1LDAuOTIzLTAuMjAyLDEuMzk2LTAuMjkxYzguMjQzLTEuMTg4LDE3LjM0LTIuMDYxLDI3LjI5Mi0yLjYxOGM1LjgzMS0wLjQwMywxMS45NDEtMC42OTQsMTguMzMyLTAuODczdi0xLjIyMiAgICAgIGMwLTAuMTE4LDAtMC4yMzQsMC0wLjM1MWMwLjEyMy0zLjI3LDEuMzQ0LTYuMDgxLDMuNjY3LTguNDM3YzIuNDQ2LTIuMzk0LDUuMzk0LTMuNTc4LDguODQ1LTMuNTUgICAgICBjMy40MTMtMC4wMjgsNi4zMjIsMS4xNTYsOC43MjksMy41NWMxLjM3NSwxLjQyMywyLjM0NiwzLjAxNCwyLjkxLDQuNzcxYzAuNDQ2LDEuMjQyLDAuNjU5LDIuNTgsMC42NDEsNC4wMTZ2MS4yMjIgICAgICBjMTguODI3LDAuMzA4LDM1LjIyLDEuNDcyLDQ5LjE3NSwzLjQ5MWMxNi41MTMsMi40NDgsMjQuNzc2LDUuMzc3LDI0Ljc5Miw4Ljc4NmMtMC4wMTYsMy40MjctOC4yNzksNi4zNTUtMjQuNzkyLDguNzg2ICAgICAgYy01Ljc4MSwwLjg2Ny0xMS45ODksMS41ODUtMTguNjIyLDIuMTU0Yy05LjM0NCwwLjc5OS0xOS41MjcsMS4zMDQtMzAuNTUzLDEuNTEzdjI2LjA2N2g5MC4wODYgICAgICBjNS4wMDQtNi4wOTIsMTEuMzg3LTEwLjcwOCwxOS4xNDYtMTMuODQ4YzcuNjE4LTMuMDU3LDE2LjU2MS00LjcwNCwyNi44MjktNC45NDZoMS4zMzljMS4xNzMtMC4wMzksMi4zNzMtMC4wMzksMy42MDcsMGgzOC41MjQgICAgICBDMjc2LjYxLDE4OS4xMzIsMjc3LjgxMywxODkuMTMyLDI3OC45ODYsMTg5LjE3MXoiIGNsaXAtcnVsZT0iZXZlbm9kZCIvPiYjeGE7JiN4YTs8L2c+JiN4YTsmI3hhOzxnPiYjeGE7JiN4YTs8cGF0aCBmaWxsLXJ1bGU9ImV2ZW5vZGQiIGZpbGw9IiMzMzMzMzMiIGQ9Ik0yNTYuMDU4LDI2OS40MTNjMy45MDEsMC4wMTQsNy4yMzgsMS40MTEsMTAuMDEsNC4xODggICAgICBjMi43NiwyLjc1MSw0LjEzNyw2LjA2OSw0LjEzMyw5Ljk1MWMwLjAwNCwzLjkwMS0xLjM3Myw3LjIzNy00LjEzMywxMC4wMDljLTIuNzcxLDIuNzU5LTYuMTA4LDQuMTM3LTEwLjAxLDQuMTMgICAgICBjLTMuODgzLDAuMDA3LTcuMTk5LTEuMzcxLTkuOTUyLTQuMTNjLTIuNzgtMi43NzEtNC4xNzYtNi4xMDctNC4xODktMTAuMDA5YzAuMDE0LTMuODgyLDEuNDA5LTcuMiw0LjE4OS05Ljk1MSAgICAgIEMyNDguODU4LDI3MC44MjQsMjUyLjE3NSwyNjkuNDI3LDI1Ni4wNTgsMjY5LjQxM3oiIGNsaXAtcnVsZT0iZXZlbm9kZCIvPiYjeGE7JiN4YTs8L2c+JiN4YTsmI3hhOzwvZz4mI3hhOyYjeGE7PC9nPiYjeGE7JiN4YTs8L3N2Zz4=;" parent="EdHErckxSNiNhH4EqncK-14" vertex="1">
          <mxGeometry x="92.75333333333334" y="44.88499999999997" width="34.41666666666667" height="17.616666666666667" as="geometry" />
        </mxCell>
        <mxCell id="EdHErckxSNiNhH4EqncK-15" value="&lt;font style=&quot;font-size: 27px;&quot; face=&quot;Times New Roman&quot;&gt;...&lt;/font&gt;" style="text;html=1;align=center;verticalAlign=middle;resizable=0;points=[];autosize=1;strokeColor=none;fillColor=none;" parent="EdHErckxSNiNhH4EqncK-14" vertex="1">
          <mxGeometry x="63.82999999999996" y="24.75" width="40" height="50" as="geometry" />
        </mxCell>
        <mxCell id="CkJQmK-AO9A7YE2EVgkL-2" value="" style="group" parent="1" vertex="1" connectable="0">
          <mxGeometry x="489" y="210" width="590" height="170" as="geometry" />
        </mxCell>
        <mxCell id="v15FcyH-daBZKtvoUnET-8" value="&lt;div style=&quot;text-wrap-mode: nowrap;&quot;&gt;&lt;span style=&quot;font-family: &amp;quot;Times New Roman&amp;quot;; font-size: 18px; text-wrap-mode: wrap;&quot;&gt;Choose current timestamp \(T_{cur}^2\) and check if \(|VT_3-T_{cur}^2|&amp;lt;\triangle t \) ?&amp;nbsp;&lt;/span&gt;&lt;/div&gt;&lt;div style=&quot;text-wrap-mode: nowrap;&quot;&gt;&lt;span style=&quot;font-family: &amp;quot;Times New Roman&amp;quot;; font-size: 18px; text-wrap-mode: wrap;&quot;&gt;If yes, then calculate:&lt;/span&gt;&lt;/div&gt;&lt;div style=&quot;&quot;&gt;&lt;span style=&quot;text-wrap-mode: wrap; font-family: &amp;quot;Times New Roman&amp;quot;; font-size: 18px;&quot;&gt;\(wt_j^*=H(PID_j||\sigma_j||B_j^*||Ch_1||...Ch_K||VT_0||RID_i||VT_3)||H(T_{\varrho^{a_i}}(PK_j))\), \(D_i=T_{\varrho^{c_i}}(B_j^*)\ mod\ q\).&amp;nbsp;&amp;nbsp;&lt;/span&gt;&lt;/div&gt;&lt;div style=&quot;&quot;&gt;&lt;span style=&quot;background-color: transparent; font-size: 18px;&quot;&gt;&lt;font face=&quot;Times New Roman&quot;&gt;Verify the authenticity of each drone&#39;s identity using the following formula:&lt;/font&gt;&lt;/span&gt;&lt;/div&gt;&lt;div style=&quot;&quot;&gt;&lt;font face=&quot;Times New Roman&quot;&gt;&lt;span style=&quot;font-size: 18px;&quot;&gt;\(H(T_{\varrho^{c_i+wt_1^*}}(VP_1))||T_{\varrho^{c_i+wt_2^*}}(VP_2)||...||T_{\varrho^{c_i+wt_m^*}}(VP_m) \stackrel{?}{=}H(D_1||D_2||...||D_m)\)&lt;/span&gt;&lt;/font&gt;&lt;/div&gt;" style="rounded=0;whiteSpace=wrap;html=1;labelBorderColor=none;fillColor=#d5e8d4;strokeColor=#82b366;strokeWidth=2;" parent="CkJQmK-AO9A7YE2EVgkL-2" vertex="1">
          <mxGeometry y="20" width="590" height="150" as="geometry" />
        </mxCell>
        <mxCell id="CkJQmK-AO9A7YE2EVgkL-1" value="&lt;font style=&quot;font-size: 18px; color: rgb(255, 255, 255);&quot;&gt;&lt;b&gt;Step 1&lt;/b&gt;&lt;/font&gt;" style="rounded=0;whiteSpace=wrap;html=1;fillColor=#67AB9F;strokeColor=#67AB9F;strokeWidth=2;" parent="CkJQmK-AO9A7YE2EVgkL-2" vertex="1">
          <mxGeometry width="590" height="20" as="geometry" />
        </mxCell>
        <mxCell id="V3z4afdnI8j49kzJQuYH-1" value="" style="group" parent="1" vertex="1" connectable="0">
          <mxGeometry x="489" y="401" width="590" height="170" as="geometry" />
        </mxCell>
        <mxCell id="V3z4afdnI8j49kzJQuYH-2" value="&lt;div style=&quot;&quot;&gt;&lt;font face=&quot;Times New Roman&quot;&gt;&lt;span style=&quot;font-size: 18px;&quot;&gt;&amp;nbsp;\(ECV_i\) then calculates the session keys with these \(m\) drones:&lt;/span&gt;&lt;/font&gt;&lt;/div&gt;&lt;div style=&quot;text-wrap-mode: nowrap;&quot;&gt;&lt;span style=&quot;font-family: &amp;quot;Times New Roman&amp;quot;; font-size: 18px; text-wrap-mode: wrap;&quot;&gt;\(SK_i^j=H(C_i||D_i||wt_j^*)\),&amp;nbsp;&lt;/span&gt;&lt;/div&gt;&lt;div style=&quot;&quot;&gt;&lt;font face=&quot;Times New Roman&quot;&gt;&lt;span style=&quot;font-size: 18px;&quot;&gt;Select partial session key \(psk \in \mathbb{Z}_q^*\) and compute:&lt;/span&gt;&lt;/font&gt;&lt;/div&gt;&lt;div style=&quot;&quot;&gt;&lt;span style=&quot;background-color: transparent; font-size: 18px;&quot;&gt;&lt;font face=&quot;Times New Roman&quot;&gt;\(GSK=T_{\varrho^{H(D_1||D_2||...||D_m||psk)}}(\omega) \ mod\ q\), \(VP_i=T_{\varrho^{c_i-wt_j^*}}(\omega)\ mod\ q\)&lt;/font&gt;&lt;/span&gt;&lt;/div&gt;&lt;div style=&quot;&quot;&gt;&lt;span style=&quot;font-family: &amp;quot;Times New Roman&amp;quot;; font-size: 18px; background-color: transparent; color: light-dark(rgb(0, 0, 0), rgb(255, 255, 255));&quot;&gt;Retrieve the current timestamp \(VT_4\) and&amp;nbsp;&lt;/span&gt;&lt;span style=&quot;background-color: transparent; color: light-dark(rgb(0, 0, 0), rgb(255, 255, 255)); font-family: &amp;quot;Times New Roman&amp;quot;; font-size: 18px;&quot;&gt;broadcast the message to all drones: \(M_4=\{VP_i,VT_4\}\)&lt;/span&gt;&lt;/div&gt;" style="rounded=0;whiteSpace=wrap;html=1;labelBorderColor=none;fillColor=#d5e8d4;strokeColor=#82b366;strokeWidth=2;" parent="V3z4afdnI8j49kzJQuYH-1" vertex="1">
          <mxGeometry y="20" width="590" height="150" as="geometry" />
        </mxCell>
        <mxCell id="V3z4afdnI8j49kzJQuYH-3" value="&lt;font style=&quot;font-size: 18px; color: rgb(255, 255, 255);&quot;&gt;&lt;b&gt;Step 2&lt;/b&gt;&lt;/font&gt;" style="rounded=0;whiteSpace=wrap;html=1;fillColor=#67AB9F;strokeColor=#67AB9F;strokeWidth=2;" parent="V3z4afdnI8j49kzJQuYH-1" vertex="1">
          <mxGeometry width="590" height="20" as="geometry" />
        </mxCell>
        <mxCell id="V3z4afdnI8j49kzJQuYH-4" value="" style="endArrow=none;dashed=1;html=1;rounded=0;strokeWidth=2;" parent="1" edge="1">
          <mxGeometry width="50" height="50" relative="1" as="geometry">
            <mxPoint x="900" y="400" as="sourcePoint" />
            <mxPoint x="900" y="380" as="targetPoint" />
          </mxGeometry>
        </mxCell>
        <mxCell id="V3z4afdnI8j49kzJQuYH-5" value="" style="endArrow=none;dashed=1;html=1;rounded=0;strokeWidth=2;" parent="1" edge="1">
          <mxGeometry width="50" height="50" relative="1" as="geometry">
            <mxPoint x="900" y="770" as="sourcePoint" />
            <mxPoint x="900" y="570" as="targetPoint" />
          </mxGeometry>
        </mxCell>
        <mxCell id="V3z4afdnI8j49kzJQuYH-6" value="" style="group;strokeWidth=2;" parent="1" vertex="1" connectable="0">
          <mxGeometry x="349" y="503" width="140" height="100" as="geometry" />
        </mxCell>
        <mxCell id="V3z4afdnI8j49kzJQuYH-7" value="" style="ellipse;shape=cloud;whiteSpace=wrap;html=1;fillColor=#60a917;fontColor=#ffffff;strokeColor=#2D7600;strokeWidth=2;" parent="V3z4afdnI8j49kzJQuYH-6" vertex="1">
          <mxGeometry width="140" height="100" as="geometry" />
        </mxCell>
        <mxCell id="V3z4afdnI8j49kzJQuYH-8" value="" style="shape=image;verticalLabelPosition=bottom;labelBackgroundColor=default;verticalAlign=top;aspect=fixed;imageAspect=0;editableCssRules=.*;image=data:image/svg+xml,PHN2ZyB4bWxuczp4bGluaz0iaHR0cDovL3d3dy53My5vcmcvMTk5OS94bGluayIgeG1sbnM9Imh0dHA6Ly93d3cudzMub3JnLzIwMDAvc3ZnIiB4bWw6c3BhY2U9InByZXNlcnZlIiB2ZXJzaW9uPSIxLjEiIGlkPSLQodC70L7QuV8xIiB2aWV3Qm94PSIwLjUyNTk4MzgxMDQyNDgwNDcgMTQzLjYwNjUyMTYwNjQ0NTMgNTExLjE4MzAxMzkxNjAxNTYgMjYxLjg1MjA1MDc4MTI1IiBoZWlnaHQ9IjQwOS4xNDM4MjkzNDU3MDMxIiB3aWR0aD0iNzk4LjcyMzQ1OTI0Mzc3NDQiPiYjeGE7JiN4YTs8Zz4mI3hhOyYjeGE7PGc+JiN4YTsmI3hhOzxnPiYjeGE7JiN4YTs8cGF0aCBmaWxsLXJ1bGU9ImV2ZW5vZGQiIGZpbGw9IiMzMzMzMzMiIGQ9Ik0yNTYuMTE1LDI1NS4yNzJjLTcuNzg0LDAuMDEtMTQuNDM4LDIuNzgyLTE5Ljk2LDguMzIxICAgICAgYy01LjUzOSw1LjUyMS04LjMxNSwxMi4xNzUtOC4zMjIsMTkuOTU5YzAuMDA3LDcuODAyLDIuNzgzLDE0LjQ3NSw4LjMyMiwyMC4wMTdjNS41MjIsNS41MTksMTIuMTc2LDguMjczLDE5Ljk2LDguMjYyICAgICAgYzcuODA2LDAuMDEyLDE0LjQ3OC0yLjc0MywyMC4wMjEtOC4yNjJjNS41MTktNS41NDIsOC4yNzQtMTIuMjE1LDguMjYzLTIwLjAxN2MwLjAxMi03Ljc4NC0yLjc0NC0xNC40MzgtOC4yNjMtMTkuOTU5ICAgICAgQzI3MC41OTMsMjU4LjA1NSwyNjMuOTIxLDI1NS4yODIsMjU2LjExNSwyNTUuMjcyeiBNMjc4Ljk4NiwxODkuMTcxaDEuMzM5YzEwLjI2OCwwLjI0MiwxOS4yMTEsMS44OSwyNi44MjgsNC45NDYgICAgICBjNy43NTksMy4xNCwxNC4xNCw3Ljc1NiwxOS4xNDYsMTMuODQ4aDkwLjA4NnYtMjYuMDY3Yy0xMS4wMjctMC4yMDktMjEuMjExLTAuNzE0LTMwLjU1Mi0xLjUxMyAgICAgIGMtNi42MzYtMC41NjktMTIuODQyLTEuMjg3LTE4LjYyMy0yLjE1NGMtMTYuNTEzLTIuNDMxLTI0Ljc3NS01LjM1OS0yNC43OTItOC43ODZjMC4wMTctMy40MDksOC4yNzktNi4zMzgsMjQuNzkyLTguNzg2ICAgICAgYzEzLjk1Ni0yLjAyLDMwLjM0OS0zLjE4NCw0OS4xNzUtMy40OTF2LTEuMjIyYy0wLjAxOC0xLjQzNiwwLjE5Ni0yLjc3MywwLjY0LTQuMDE2YzAuNTY1LTEuNzU4LDEuNTM2LTMuMzQ5LDIuOTA5LTQuNzcxICAgICAgYzIuNDEtMi4zOTQsNS4zMTktMy41NzgsOC43MjktMy41NWMzLjQ1MS0wLjAyOCw2LjQwMSwxLjE1Niw4Ljg0OCwzLjU1YzIuMzIzLDIuMzU1LDMuNTQ0LDUuMTY3LDMuNjY0LDguNDM3ICAgICAgYzAsMC4xMTYsMCwwLjIzMiwwLDAuMzUxdjEuMjIyYzYuMzkzLDAuMTc5LDEyLjUwMywwLjQ3LDE4LjMzMSwwLjg3M2M5Ljk1NSwwLjU1OCwxOS4wNTMsMS40MzEsMjcuMjk1LDIuNjE4ICAgICAgYzAuNDc0LDAuMDg5LDAuOTM5LDAuMTg2LDEuMzk2LDAuMjkxYzE1LjYyNiwyLjM3MiwyMy40NjIsNS4yMDMsMjMuNTEyLDguNDk1Yy0wLjA1LDMuMzMtNy44ODYsNi4xODEtMjMuNTEyLDguNTU0ICAgICAgYy0wLjQ1NywwLjA4NS0wLjkyMywwLjE2Mi0xLjM5NiwwLjIzMmMtMTMuMDUxLDEuOTYxLTI4LjI1OSwzLjE0NC00NS42MjYsMy41NXYyNi4xODVINDUyYzMuNDMxLDAuMDEyLDYuMzYsMS4yMzMsOC43ODgsMy42NjYgICAgICBjMi40MzMsMi40MDgsMy42NTUsNS4zMTgsMy42NjUsOC43MjljLTAuMDA3LDIuNDI3LTAuNjI4LDQuNTk5LTEuODYyLDYuNTE3Yy0yLjExNCwyLjgxMi01LjE4MSw0Ljc4OS05LjE5NSw1LjkzNSAgICAgIGMtMzMuOTg0LDguMTQ2LTY3Ljk3LDE2LjI5My0xMDEuOTU3LDI0LjQzOWwzOC45MzQsODEuNTgyYzAuMjI2LDAuNDAyLDAuNDM5LDAuODEyLDAuNjM5LDEuMjIxICAgICAgYzkuMzMyLDI2LjIzNSwyLjgzMyw0Ny4yNDItMTkuNDk1LDYzLjAxOWMtMi44MDgsMi4wMTQtNS44OSwyLjc1My05LjI1MiwyLjIxMmMtMy4zMjUtMC42MTYtNS45NjUtMi4zNDEtNy45MTUtNS4xODEgICAgICBjLTIuMDE3LTIuNzk4LTIuNzU2LTUuODgyLTIuMjEyLTkuMjUxYzAuNTg0LTMuMzQzLDIuMjczLTYsNS4wNjQtNy45NzFjMTIuMDE3LTguNjE3LDE1LjQ5LTIwLjA2MiwxMC40MTYtMzQuMzMxICAgICAgbC00MC45MTEtODUuMzYybC0xMC42NSwyLjYxOHY0Mi41MzRjMC4wMDUsMy4wMzUtMC43NTMsNS44NjctMi4yNjksOC40OTd2MC4wNTdjLTEuNTM0LDIuNjEzLTMuNjEsNC42NjktNi4yMjcsNi4xNjkgICAgICBsLTQyLjk0OCwyNC43Mjl2MC4wNmMtMi42NTUsMS41MDktNS40ODcsMi4yNjctOC40OTcsMi4yNjljLTMuMDIzLTAuMDI1LTUuODU2LTAuOC04LjQ5NS0yLjMyOGwtNDIuODktMjQuNzg5bC0wLjExOC0wLjA1NyAgICAgIGMtMi41ODUtMS41MzYtNC42MjEtMy42MTEtNi4xMS02LjIyNmMtMS41MTktMi42My0yLjI3My01LjQ0NC0yLjI2OS04LjQzOHYtNDIuNDc4bC0xMC43MDctMi42MThsLTQwLjkxMiw4NS4zNjIgICAgICBjLTUuMDczLDE0LjI3LTEuNjAzLDI1LjcxNCwxMC40MTYsMzQuMzMxYzIuNzkyLDEuOTcxLDQuNDgsNC42MjgsNS4wNjMsNy45NzFjMC41NDYsMy4zNjktMC4xOTMsNi40NTMtMi4yMDksOS4yNTEgICAgICBjLTEuOTUxLDIuODQtNC41OSw0LjU2NC03LjkxNiw1LjE4MWMtMy4zNjIsMC41NDEtNi40NDYtMC4xOTgtOS4yNTItMi4yMTJjLTIyLjMyOC0xNS43NzYtMjguODI3LTM2Ljc4My0xOS40OTUtNjMuMDE5ICAgICAgYzAuMi0wLjQwOSwwLjQxNC0wLjgxOCwwLjYzOS0xLjIyMWwzOC45MzQtODEuNTgyYy0zMy45ODctOC4xNDYtNjcuOTcyLTE2LjI5My0xMDEuOTU5LTI0LjQzOSAgICAgIGMtNC4wMTUtMS4xNDYtNy4wNzktMy4xMjMtOS4xOTMtNS45MzVjLTEuMjM0LTEuOTE4LTEuODU1LTQuMDktMS44NjQtNi41MTdjMC4wMTEtMy40MSwxLjIzMi02LjMyLDMuNjY3LTguNzI5ICAgICAgYzIuNDI4LTIuNDMzLDUuMzU4LTMuNjU0LDguNzg5LTMuNjY2aDEwLjgyM1YxODEuNzhjLTE3LjM2OC0wLjQwNi0zMi41NzYtMS41ODktNDUuNjI0LTMuNTUgICAgICBjLTAuNDczLTAuMDctMC45MzktMC4xNDctMS4zOTYtMC4yMzJjLTE1LjYyNi0yLjM3My0yMy40NjItNS4yMjQtMjMuNTEyLTguNTU0YzAuMDUtMy4yOTIsNy44ODYtNi4xMjMsMjMuNTEyLTguNDk1ICAgICAgYzAuNDU3LTAuMTA1LDAuOTIzLTAuMjAyLDEuMzk2LTAuMjkxYzguMjQzLTEuMTg4LDE3LjM0LTIuMDYxLDI3LjI5Mi0yLjYxOGM1LjgzMS0wLjQwMywxMS45NDEtMC42OTQsMTguMzMyLTAuODczdi0xLjIyMiAgICAgIGMwLTAuMTE4LDAtMC4yMzQsMC0wLjM1MWMwLjEyMy0zLjI3LDEuMzQ0LTYuMDgxLDMuNjY3LTguNDM3YzIuNDQ2LTIuMzk0LDUuMzk0LTMuNTc4LDguODQ1LTMuNTUgICAgICBjMy40MTMtMC4wMjgsNi4zMjIsMS4xNTYsOC43MjksMy41NWMxLjM3NSwxLjQyMywyLjM0NiwzLjAxNCwyLjkxLDQuNzcxYzAuNDQ2LDEuMjQyLDAuNjU5LDIuNTgsMC42NDEsNC4wMTZ2MS4yMjIgICAgICBjMTguODI3LDAuMzA4LDM1LjIyLDEuNDcyLDQ5LjE3NSwzLjQ5MWMxNi41MTMsMi40NDgsMjQuNzc2LDUuMzc3LDI0Ljc5Miw4Ljc4NmMtMC4wMTYsMy40MjctOC4yNzksNi4zNTUtMjQuNzkyLDguNzg2ICAgICAgYy01Ljc4MSwwLjg2Ny0xMS45ODksMS41ODUtMTguNjIyLDIuMTU0Yy05LjM0NCwwLjc5OS0xOS41MjcsMS4zMDQtMzAuNTUzLDEuNTEzdjI2LjA2N2g5MC4wODYgICAgICBjNS4wMDQtNi4wOTIsMTEuMzg3LTEwLjcwOCwxOS4xNDYtMTMuODQ4YzcuNjE4LTMuMDU3LDE2LjU2MS00LjcwNCwyNi44MjktNC45NDZoMS4zMzljMS4xNzMtMC4wMzksMi4zNzMtMC4wMzksMy42MDcsMGgzOC41MjQgICAgICBDMjc2LjYxLDE4OS4xMzIsMjc3LjgxMywxODkuMTMyLDI3OC45ODYsMTg5LjE3MXoiIGNsaXAtcnVsZT0iZXZlbm9kZCIvPiYjeGE7JiN4YTs8L2c+JiN4YTsmI3hhOzxnPiYjeGE7JiN4YTs8cGF0aCBmaWxsLXJ1bGU9ImV2ZW5vZGQiIGZpbGw9IiMzMzMzMzMiIGQ9Ik0yNTYuMDU4LDI2OS40MTNjMy45MDEsMC4wMTQsNy4yMzgsMS40MTEsMTAuMDEsNC4xODggICAgICBjMi43NiwyLjc1MSw0LjEzNyw2LjA2OSw0LjEzMyw5Ljk1MWMwLjAwNCwzLjkwMS0xLjM3Myw3LjIzNy00LjEzMywxMC4wMDljLTIuNzcxLDIuNzU5LTYuMTA4LDQuMTM3LTEwLjAxLDQuMTMgICAgICBjLTMuODgzLDAuMDA3LTcuMTk5LTEuMzcxLTkuOTUyLTQuMTNjLTIuNzgtMi43NzEtNC4xNzYtNi4xMDctNC4xODktMTAuMDA5YzAuMDE0LTMuODgyLDEuNDA5LTcuMiw0LjE4OS05Ljk1MSAgICAgIEMyNDguODU4LDI3MC44MjQsMjUyLjE3NSwyNjkuNDI3LDI1Ni4wNTgsMjY5LjQxM3oiIGNsaXAtcnVsZT0iZXZlbm9kZCIvPiYjeGE7JiN4YTs8L2c+JiN4YTsmI3hhOzwvZz4mI3hhOyYjeGE7PC9nPiYjeGE7JiN4YTs8L3N2Zz4=;" parent="V3z4afdnI8j49kzJQuYH-6" vertex="1">
          <mxGeometry x="35" y="31.12499999999997" width="34.41666666666667" height="17.616666666666667" as="geometry" />
        </mxCell>
        <mxCell id="V3z4afdnI8j49kzJQuYH-9" value="" style="shape=image;verticalLabelPosition=bottom;labelBackgroundColor=default;verticalAlign=top;aspect=fixed;imageAspect=0;editableCssRules=.*;image=data:image/svg+xml,PHN2ZyB4bWxuczp4bGluaz0iaHR0cDovL3d3dy53My5vcmcvMTk5OS94bGluayIgeG1sbnM9Imh0dHA6Ly93d3cudzMub3JnLzIwMDAvc3ZnIiB4bWw6c3BhY2U9InByZXNlcnZlIiB2ZXJzaW9uPSIxLjEiIGlkPSLQodC70L7QuV8xIiB2aWV3Qm94PSIwLjUyNTk4MzgxMDQyNDgwNDcgMTQzLjYwNjUyMTYwNjQ0NTMgNTExLjE4MzAxMzkxNjAxNTYgMjYxLjg1MjA1MDc4MTI1IiBoZWlnaHQ9IjQwOS4xNDM4MjkzNDU3MDMxIiB3aWR0aD0iNzk4LjcyMzQ1OTI0Mzc3NDQiPiYjeGE7JiN4YTs8Zz4mI3hhOyYjeGE7PGc+JiN4YTsmI3hhOzxnPiYjeGE7JiN4YTs8cGF0aCBmaWxsLXJ1bGU9ImV2ZW5vZGQiIGZpbGw9IiMzMzMzMzMiIGQ9Ik0yNTYuMTE1LDI1NS4yNzJjLTcuNzg0LDAuMDEtMTQuNDM4LDIuNzgyLTE5Ljk2LDguMzIxICAgICAgYy01LjUzOSw1LjUyMS04LjMxNSwxMi4xNzUtOC4zMjIsMTkuOTU5YzAuMDA3LDcuODAyLDIuNzgzLDE0LjQ3NSw4LjMyMiwyMC4wMTdjNS41MjIsNS41MTksMTIuMTc2LDguMjczLDE5Ljk2LDguMjYyICAgICAgYzcuODA2LDAuMDEyLDE0LjQ3OC0yLjc0MywyMC4wMjEtOC4yNjJjNS41MTktNS41NDIsOC4yNzQtMTIuMjE1LDguMjYzLTIwLjAxN2MwLjAxMi03Ljc4NC0yLjc0NC0xNC40MzgtOC4yNjMtMTkuOTU5ICAgICAgQzI3MC41OTMsMjU4LjA1NSwyNjMuOTIxLDI1NS4yODIsMjU2LjExNSwyNTUuMjcyeiBNMjc4Ljk4NiwxODkuMTcxaDEuMzM5YzEwLjI2OCwwLjI0MiwxOS4yMTEsMS44OSwyNi44MjgsNC45NDYgICAgICBjNy43NTksMy4xNCwxNC4xNCw3Ljc1NiwxOS4xNDYsMTMuODQ4aDkwLjA4NnYtMjYuMDY3Yy0xMS4wMjctMC4yMDktMjEuMjExLTAuNzE0LTMwLjU1Mi0xLjUxMyAgICAgIGMtNi42MzYtMC41NjktMTIuODQyLTEuMjg3LTE4LjYyMy0yLjE1NGMtMTYuNTEzLTIuNDMxLTI0Ljc3NS01LjM1OS0yNC43OTItOC43ODZjMC4wMTctMy40MDksOC4yNzktNi4zMzgsMjQuNzkyLTguNzg2ICAgICAgYzEzLjk1Ni0yLjAyLDMwLjM0OS0zLjE4NCw0OS4xNzUtMy40OTF2LTEuMjIyYy0wLjAxOC0xLjQzNiwwLjE5Ni0yLjc3MywwLjY0LTQuMDE2YzAuNTY1LTEuNzU4LDEuNTM2LTMuMzQ5LDIuOTA5LTQuNzcxICAgICAgYzIuNDEtMi4zOTQsNS4zMTktMy41NzgsOC43MjktMy41NWMzLjQ1MS0wLjAyOCw2LjQwMSwxLjE1Niw4Ljg0OCwzLjU1YzIuMzIzLDIuMzU1LDMuNTQ0LDUuMTY3LDMuNjY0LDguNDM3ICAgICAgYzAsMC4xMTYsMCwwLjIzMiwwLDAuMzUxdjEuMjIyYzYuMzkzLDAuMTc5LDEyLjUwMywwLjQ3LDE4LjMzMSwwLjg3M2M5Ljk1NSwwLjU1OCwxOS4wNTMsMS40MzEsMjcuMjk1LDIuNjE4ICAgICAgYzAuNDc0LDAuMDg5LDAuOTM5LDAuMTg2LDEuMzk2LDAuMjkxYzE1LjYyNiwyLjM3MiwyMy40NjIsNS4yMDMsMjMuNTEyLDguNDk1Yy0wLjA1LDMuMzMtNy44ODYsNi4xODEtMjMuNTEyLDguNTU0ICAgICAgYy0wLjQ1NywwLjA4NS0wLjkyMywwLjE2Mi0xLjM5NiwwLjIzMmMtMTMuMDUxLDEuOTYxLTI4LjI1OSwzLjE0NC00NS42MjYsMy41NXYyNi4xODVINDUyYzMuNDMxLDAuMDEyLDYuMzYsMS4yMzMsOC43ODgsMy42NjYgICAgICBjMi40MzMsMi40MDgsMy42NTUsNS4zMTgsMy42NjUsOC43MjljLTAuMDA3LDIuNDI3LTAuNjI4LDQuNTk5LTEuODYyLDYuNTE3Yy0yLjExNCwyLjgxMi01LjE4MSw0Ljc4OS05LjE5NSw1LjkzNSAgICAgIGMtMzMuOTg0LDguMTQ2LTY3Ljk3LDE2LjI5My0xMDEuOTU3LDI0LjQzOWwzOC45MzQsODEuNTgyYzAuMjI2LDAuNDAyLDAuNDM5LDAuODEyLDAuNjM5LDEuMjIxICAgICAgYzkuMzMyLDI2LjIzNSwyLjgzMyw0Ny4yNDItMTkuNDk1LDYzLjAxOWMtMi44MDgsMi4wMTQtNS44OSwyLjc1My05LjI1MiwyLjIxMmMtMy4zMjUtMC42MTYtNS45NjUtMi4zNDEtNy45MTUtNS4xODEgICAgICBjLTIuMDE3LTIuNzk4LTIuNzU2LTUuODgyLTIuMjEyLTkuMjUxYzAuNTg0LTMuMzQzLDIuMjczLTYsNS4wNjQtNy45NzFjMTIuMDE3LTguNjE3LDE1LjQ5LTIwLjA2MiwxMC40MTYtMzQuMzMxICAgICAgbC00MC45MTEtODUuMzYybC0xMC42NSwyLjYxOHY0Mi41MzRjMC4wMDUsMy4wMzUtMC43NTMsNS44NjctMi4yNjksOC40OTd2MC4wNTdjLTEuNTM0LDIuNjEzLTMuNjEsNC42NjktNi4yMjcsNi4xNjkgICAgICBsLTQyLjk0OCwyNC43Mjl2MC4wNmMtMi42NTUsMS41MDktNS40ODcsMi4yNjctOC40OTcsMi4yNjljLTMuMDIzLTAuMDI1LTUuODU2LTAuOC04LjQ5NS0yLjMyOGwtNDIuODktMjQuNzg5bC0wLjExOC0wLjA1NyAgICAgIGMtMi41ODUtMS41MzYtNC42MjEtMy42MTEtNi4xMS02LjIyNmMtMS41MTktMi42My0yLjI3My01LjQ0NC0yLjI2OS04LjQzOHYtNDIuNDc4bC0xMC43MDctMi42MThsLTQwLjkxMiw4NS4zNjIgICAgICBjLTUuMDczLDE0LjI3LTEuNjAzLDI1LjcxNCwxMC40MTYsMzQuMzMxYzIuNzkyLDEuOTcxLDQuNDgsNC42MjgsNS4wNjMsNy45NzFjMC41NDYsMy4zNjktMC4xOTMsNi40NTMtMi4yMDksOS4yNTEgICAgICBjLTEuOTUxLDIuODQtNC41OSw0LjU2NC03LjkxNiw1LjE4MWMtMy4zNjIsMC41NDEtNi40NDYtMC4xOTgtOS4yNTItMi4yMTJjLTIyLjMyOC0xNS43NzYtMjguODI3LTM2Ljc4My0xOS40OTUtNjMuMDE5ICAgICAgYzAuMi0wLjQwOSwwLjQxNC0wLjgxOCwwLjYzOS0xLjIyMWwzOC45MzQtODEuNTgyYy0zMy45ODctOC4xNDYtNjcuOTcyLTE2LjI5My0xMDEuOTU5LTI0LjQzOSAgICAgIGMtNC4wMTUtMS4xNDYtNy4wNzktMy4xMjMtOS4xOTMtNS45MzVjLTEuMjM0LTEuOTE4LTEuODU1LTQuMDktMS44NjQtNi41MTdjMC4wMTEtMy40MSwxLjIzMi02LjMyLDMuNjY3LTguNzI5ICAgICAgYzIuNDI4LTIuNDMzLDUuMzU4LTMuNjU0LDguNzg5LTMuNjY2aDEwLjgyM1YxODEuNzhjLTE3LjM2OC0wLjQwNi0zMi41NzYtMS41ODktNDUuNjI0LTMuNTUgICAgICBjLTAuNDczLTAuMDctMC45MzktMC4xNDctMS4zOTYtMC4yMzJjLTE1LjYyNi0yLjM3My0yMy40NjItNS4yMjQtMjMuNTEyLTguNTU0YzAuMDUtMy4yOTIsNy44ODYtNi4xMjMsMjMuNTEyLTguNDk1ICAgICAgYzAuNDU3LTAuMTA1LDAuOTIzLTAuMjAyLDEuMzk2LTAuMjkxYzguMjQzLTEuMTg4LDE3LjM0LTIuMDYxLDI3LjI5Mi0yLjYxOGM1LjgzMS0wLjQwMywxMS45NDEtMC42OTQsMTguMzMyLTAuODczdi0xLjIyMiAgICAgIGMwLTAuMTE4LDAtMC4yMzQsMC0wLjM1MWMwLjEyMy0zLjI3LDEuMzQ0LTYuMDgxLDMuNjY3LTguNDM3YzIuNDQ2LTIuMzk0LDUuMzk0LTMuNTc4LDguODQ1LTMuNTUgICAgICBjMy40MTMtMC4wMjgsNi4zMjIsMS4xNTYsOC43MjksMy41NWMxLjM3NSwxLjQyMywyLjM0NiwzLjAxNCwyLjkxLDQuNzcxYzAuNDQ2LDEuMjQyLDAuNjU5LDIuNTgsMC42NDEsNC4wMTZ2MS4yMjIgICAgICBjMTguODI3LDAuMzA4LDM1LjIyLDEuNDcyLDQ5LjE3NSwzLjQ5MWMxNi41MTMsMi40NDgsMjQuNzc2LDUuMzc3LDI0Ljc5Miw4Ljc4NmMtMC4wMTYsMy40MjctOC4yNzksNi4zNTUtMjQuNzkyLDguNzg2ICAgICAgYy01Ljc4MSwwLjg2Ny0xMS45ODksMS41ODUtMTguNjIyLDIuMTU0Yy05LjM0NCwwLjc5OS0xOS41MjcsMS4zMDQtMzAuNTUzLDEuNTEzdjI2LjA2N2g5MC4wODYgICAgICBjNS4wMDQtNi4wOTIsMTEuMzg3LTEwLjcwOCwxOS4xNDYtMTMuODQ4YzcuNjE4LTMuMDU3LDE2LjU2MS00LjcwNCwyNi44MjktNC45NDZoMS4zMzljMS4xNzMtMC4wMzksMi4zNzMtMC4wMzksMy42MDcsMGgzOC41MjQgICAgICBDMjc2LjYxLDE4OS4xMzIsMjc3LjgxMywxODkuMTMyLDI3OC45ODYsMTg5LjE3MXoiIGNsaXAtcnVsZT0iZXZlbm9kZCIvPiYjeGE7JiN4YTs8L2c+JiN4YTsmI3hhOzxnPiYjeGE7JiN4YTs8cGF0aCBmaWxsLXJ1bGU9ImV2ZW5vZGQiIGZpbGw9IiMzMzMzMzMiIGQ9Ik0yNTYuMDU4LDI2OS40MTNjMy45MDEsMC4wMTQsNy4yMzgsMS40MTEsMTAuMDEsNC4xODggICAgICBjMi43NiwyLjc1MSw0LjEzNyw2LjA2OSw0LjEzMyw5Ljk1MWMwLjAwNCwzLjkwMS0xLjM3Myw3LjIzNy00LjEzMywxMC4wMDljLTIuNzcxLDIuNzU5LTYuMTA4LDQuMTM3LTEwLjAxLDQuMTMgICAgICBjLTMuODgzLDAuMDA3LTcuMTk5LTEuMzcxLTkuOTUyLTQuMTNjLTIuNzgtMi43NzEtNC4xNzYtNi4xMDctNC4xODktMTAuMDA5YzAuMDE0LTMuODgyLDEuNDA5LTcuMiw0LjE4OS05Ljk1MSAgICAgIEMyNDguODU4LDI3MC44MjQsMjUyLjE3NSwyNjkuNDI3LDI1Ni4wNTgsMjY5LjQxM3oiIGNsaXAtcnVsZT0iZXZlbm9kZCIvPiYjeGE7JiN4YTs8L2c+JiN4YTsmI3hhOzwvZz4mI3hhOyYjeGE7PC9nPiYjeGE7JiN4YTs8L3N2Zz4=;" parent="V3z4afdnI8j49kzJQuYH-6" vertex="1">
          <mxGeometry x="46.66666666666667" y="25" width="34.41666666666667" height="17.616666666666667" as="geometry" />
        </mxCell>
        <mxCell id="V3z4afdnI8j49kzJQuYH-10" value="" style="shape=image;verticalLabelPosition=bottom;labelBackgroundColor=default;verticalAlign=top;aspect=fixed;imageAspect=0;editableCssRules=.*;image=data:image/svg+xml,PHN2ZyB4bWxuczp4bGluaz0iaHR0cDovL3d3dy53My5vcmcvMTk5OS94bGluayIgeG1sbnM9Imh0dHA6Ly93d3cudzMub3JnLzIwMDAvc3ZnIiB4bWw6c3BhY2U9InByZXNlcnZlIiB2ZXJzaW9uPSIxLjEiIGlkPSLQodC70L7QuV8xIiB2aWV3Qm94PSIwLjUyNTk4MzgxMDQyNDgwNDcgMTQzLjYwNjUyMTYwNjQ0NTMgNTExLjE4MzAxMzkxNjAxNTYgMjYxLjg1MjA1MDc4MTI1IiBoZWlnaHQ9IjQwOS4xNDM4MjkzNDU3MDMxIiB3aWR0aD0iNzk4LjcyMzQ1OTI0Mzc3NDQiPiYjeGE7JiN4YTs8Zz4mI3hhOyYjeGE7PGc+JiN4YTsmI3hhOzxnPiYjeGE7JiN4YTs8cGF0aCBmaWxsLXJ1bGU9ImV2ZW5vZGQiIGZpbGw9IiMzMzMzMzMiIGQ9Ik0yNTYuMTE1LDI1NS4yNzJjLTcuNzg0LDAuMDEtMTQuNDM4LDIuNzgyLTE5Ljk2LDguMzIxICAgICAgYy01LjUzOSw1LjUyMS04LjMxNSwxMi4xNzUtOC4zMjIsMTkuOTU5YzAuMDA3LDcuODAyLDIuNzgzLDE0LjQ3NSw4LjMyMiwyMC4wMTdjNS41MjIsNS41MTksMTIuMTc2LDguMjczLDE5Ljk2LDguMjYyICAgICAgYzcuODA2LDAuMDEyLDE0LjQ3OC0yLjc0MywyMC4wMjEtOC4yNjJjNS41MTktNS41NDIsOC4yNzQtMTIuMjE1LDguMjYzLTIwLjAxN2MwLjAxMi03Ljc4NC0yLjc0NC0xNC40MzgtOC4yNjMtMTkuOTU5ICAgICAgQzI3MC41OTMsMjU4LjA1NSwyNjMuOTIxLDI1NS4yODIsMjU2LjExNSwyNTUuMjcyeiBNMjc4Ljk4NiwxODkuMTcxaDEuMzM5YzEwLjI2OCwwLjI0MiwxOS4yMTEsMS44OSwyNi44MjgsNC45NDYgICAgICBjNy43NTksMy4xNCwxNC4xNCw3Ljc1NiwxOS4xNDYsMTMuODQ4aDkwLjA4NnYtMjYuMDY3Yy0xMS4wMjctMC4yMDktMjEuMjExLTAuNzE0LTMwLjU1Mi0xLjUxMyAgICAgIGMtNi42MzYtMC41NjktMTIuODQyLTEuMjg3LTE4LjYyMy0yLjE1NGMtMTYuNTEzLTIuNDMxLTI0Ljc3NS01LjM1OS0yNC43OTItOC43ODZjMC4wMTctMy40MDksOC4yNzktNi4zMzgsMjQuNzkyLTguNzg2ICAgICAgYzEzLjk1Ni0yLjAyLDMwLjM0OS0zLjE4NCw0OS4xNzUtMy40OTF2LTEuMjIyYy0wLjAxOC0xLjQzNiwwLjE5Ni0yLjc3MywwLjY0LTQuMDE2YzAuNTY1LTEuNzU4LDEuNTM2LTMuMzQ5LDIuOTA5LTQuNzcxICAgICAgYzIuNDEtMi4zOTQsNS4zMTktMy41NzgsOC43MjktMy41NWMzLjQ1MS0wLjAyOCw2LjQwMSwxLjE1Niw4Ljg0OCwzLjU1YzIuMzIzLDIuMzU1LDMuNTQ0LDUuMTY3LDMuNjY0LDguNDM3ICAgICAgYzAsMC4xMTYsMCwwLjIzMiwwLDAuMzUxdjEuMjIyYzYuMzkzLDAuMTc5LDEyLjUwMywwLjQ3LDE4LjMzMSwwLjg3M2M5Ljk1NSwwLjU1OCwxOS4wNTMsMS40MzEsMjcuMjk1LDIuNjE4ICAgICAgYzAuNDc0LDAuMDg5LDAuOTM5LDAuMTg2LDEuMzk2LDAuMjkxYzE1LjYyNiwyLjM3MiwyMy40NjIsNS4yMDMsMjMuNTEyLDguNDk1Yy0wLjA1LDMuMzMtNy44ODYsNi4xODEtMjMuNTEyLDguNTU0ICAgICAgYy0wLjQ1NywwLjA4NS0wLjkyMywwLjE2Mi0xLjM5NiwwLjIzMmMtMTMuMDUxLDEuOTYxLTI4LjI1OSwzLjE0NC00NS42MjYsMy41NXYyNi4xODVINDUyYzMuNDMxLDAuMDEyLDYuMzYsMS4yMzMsOC43ODgsMy42NjYgICAgICBjMi40MzMsMi40MDgsMy42NTUsNS4zMTgsMy42NjUsOC43MjljLTAuMDA3LDIuNDI3LTAuNjI4LDQuNTk5LTEuODYyLDYuNTE3Yy0yLjExNCwyLjgxMi01LjE4MSw0Ljc4OS05LjE5NSw1LjkzNSAgICAgIGMtMzMuOTg0LDguMTQ2LTY3Ljk3LDE2LjI5My0xMDEuOTU3LDI0LjQzOWwzOC45MzQsODEuNTgyYzAuMjI2LDAuNDAyLDAuNDM5LDAuODEyLDAuNjM5LDEuMjIxICAgICAgYzkuMzMyLDI2LjIzNSwyLjgzMyw0Ny4yNDItMTkuNDk1LDYzLjAxOWMtMi44MDgsMi4wMTQtNS44OSwyLjc1My05LjI1MiwyLjIxMmMtMy4zMjUtMC42MTYtNS45NjUtMi4zNDEtNy45MTUtNS4xODEgICAgICBjLTIuMDE3LTIuNzk4LTIuNzU2LTUuODgyLTIuMjEyLTkuMjUxYzAuNTg0LTMuMzQzLDIuMjczLTYsNS4wNjQtNy45NzFjMTIuMDE3LTguNjE3LDE1LjQ5LTIwLjA2MiwxMC40MTYtMzQuMzMxICAgICAgbC00MC45MTEtODUuMzYybC0xMC42NSwyLjYxOHY0Mi41MzRjMC4wMDUsMy4wMzUtMC43NTMsNS44NjctMi4yNjksOC40OTd2MC4wNTdjLTEuNTM0LDIuNjEzLTMuNjEsNC42NjktNi4yMjcsNi4xNjkgICAgICBsLTQyLjk0OCwyNC43Mjl2MC4wNmMtMi42NTUsMS41MDktNS40ODcsMi4yNjctOC40OTcsMi4yNjljLTMuMDIzLTAuMDI1LTUuODU2LTAuOC04LjQ5NS0yLjMyOGwtNDIuODktMjQuNzg5bC0wLjExOC0wLjA1NyAgICAgIGMtMi41ODUtMS41MzYtNC42MjEtMy42MTEtNi4xMS02LjIyNmMtMS41MTktMi42My0yLjI3My01LjQ0NC0yLjI2OS04LjQzOHYtNDIuNDc4bC0xMC43MDctMi42MThsLTQwLjkxMiw4NS4zNjIgICAgICBjLTUuMDczLDE0LjI3LTEuNjAzLDI1LjcxNCwxMC40MTYsMzQuMzMxYzIuNzkyLDEuOTcxLDQuNDgsNC42MjgsNS4wNjMsNy45NzFjMC41NDYsMy4zNjktMC4xOTMsNi40NTMtMi4yMDksOS4yNTEgICAgICBjLTEuOTUxLDIuODQtNC41OSw0LjU2NC03LjkxNiw1LjE4MWMtMy4zNjIsMC41NDEtNi40NDYtMC4xOTgtOS4yNTItMi4yMTJjLTIyLjMyOC0xNS43NzYtMjguODI3LTM2Ljc4My0xOS40OTUtNjMuMDE5ICAgICAgYzAuMi0wLjQwOSwwLjQxNC0wLjgxOCwwLjYzOS0xLjIyMWwzOC45MzQtODEuNTgyYy0zMy45ODctOC4xNDYtNjcuOTcyLTE2LjI5My0xMDEuOTU5LTI0LjQzOSAgICAgIGMtNC4wMTUtMS4xNDYtNy4wNzktMy4xMjMtOS4xOTMtNS45MzVjLTEuMjM0LTEuOTE4LTEuODU1LTQuMDktMS44NjQtNi41MTdjMC4wMTEtMy40MSwxLjIzMi02LjMyLDMuNjY3LTguNzI5ICAgICAgYzIuNDI4LTIuNDMzLDUuMzU4LTMuNjU0LDguNzg5LTMuNjY2aDEwLjgyM1YxODEuNzhjLTE3LjM2OC0wLjQwNi0zMi41NzYtMS41ODktNDUuNjI0LTMuNTUgICAgICBjLTAuNDczLTAuMDctMC45MzktMC4xNDctMS4zOTYtMC4yMzJjLTE1LjYyNi0yLjM3My0yMy40NjItNS4yMjQtMjMuNTEyLTguNTU0YzAuMDUtMy4yOTIsNy44ODYtNi4xMjMsMjMuNTEyLTguNDk1ICAgICAgYzAuNDU3LTAuMTA1LDAuOTIzLTAuMjAyLDEuMzk2LTAuMjkxYzguMjQzLTEuMTg4LDE3LjM0LTIuMDYxLDI3LjI5Mi0yLjYxOGM1LjgzMS0wLjQwMywxMS45NDEtMC42OTQsMTguMzMyLTAuODczdi0xLjIyMiAgICAgIGMwLTAuMTE4LDAtMC4yMzQsMC0wLjM1MWMwLjEyMy0zLjI3LDEuMzQ0LTYuMDgxLDMuNjY3LTguNDM3YzIuNDQ2LTIuMzk0LDUuMzk0LTMuNTc4LDguODQ1LTMuNTUgICAgICBjMy40MTMtMC4wMjgsNi4zMjIsMS4xNTYsOC43MjksMy41NWMxLjM3NSwxLjQyMywyLjM0NiwzLjAxNCwyLjkxLDQuNzcxYzAuNDQ2LDEuMjQyLDAuNjU5LDIuNTgsMC42NDEsNC4wMTZ2MS4yMjIgICAgICBjMTguODI3LDAuMzA4LDM1LjIyLDEuNDcyLDQ5LjE3NSwzLjQ5MWMxNi41MTMsMi40NDgsMjQuNzc2LDUuMzc3LDI0Ljc5Miw4Ljc4NmMtMC4wMTYsMy40MjctOC4yNzksNi4zNTUtMjQuNzkyLDguNzg2ICAgICAgYy01Ljc4MSwwLjg2Ny0xMS45ODksMS41ODUtMTguNjIyLDIuMTU0Yy05LjM0NCwwLjc5OS0xOS41MjcsMS4zMDQtMzAuNTUzLDEuNTEzdjI2LjA2N2g5MC4wODYgICAgICBjNS4wMDQtNi4wOTIsMTEuMzg3LTEwLjcwOCwxOS4xNDYtMTMuODQ4YzcuNjE4LTMuMDU3LDE2LjU2MS00LjcwNCwyNi44MjktNC45NDZoMS4zMzljMS4xNzMtMC4wMzksMi4zNzMtMC4wMzksMy42MDcsMGgzOC41MjQgICAgICBDMjc2LjYxLDE4OS4xMzIsMjc3LjgxMywxODkuMTMyLDI3OC45ODYsMTg5LjE3MXoiIGNsaXAtcnVsZT0iZXZlbm9kZCIvPiYjeGE7JiN4YTs8L2c+JiN4YTsmI3hhOzxnPiYjeGE7JiN4YTs8cGF0aCBmaWxsLXJ1bGU9ImV2ZW5vZGQiIGZpbGw9IiMzMzMzMzMiIGQ9Ik0yNTYuMDU4LDI2OS40MTNjMy45MDEsMC4wMTQsNy4yMzgsMS40MTEsMTAuMDEsNC4xODggICAgICBjMi43NiwyLjc1MSw0LjEzNyw2LjA2OSw0LjEzMyw5Ljk1MWMwLjAwNCwzLjkwMS0xLjM3Myw3LjIzNy00LjEzMywxMC4wMDljLTIuNzcxLDIuNzU5LTYuMTA4LDQuMTM3LTEwLjAxLDQuMTMgICAgICBjLTMuODgzLDAuMDA3LTcuMTk5LTEuMzcxLTkuOTUyLTQuMTNjLTIuNzgtMi43NzEtNC4xNzYtNi4xMDctNC4xODktMTAuMDA5YzAuMDE0LTMuODgyLDEuNDA5LTcuMiw0LjE4OS05Ljk1MSAgICAgIEMyNDguODU4LDI3MC44MjQsMjUyLjE3NSwyNjkuNDI3LDI1Ni4wNTgsMjY5LjQxM3oiIGNsaXAtcnVsZT0iZXZlbm9kZCIvPiYjeGE7JiN4YTs8L2c+JiN4YTsmI3hhOzwvZz4mI3hhOyYjeGE7PC9nPiYjeGE7JiN4YTs8L3N2Zz4=;" parent="V3z4afdnI8j49kzJQuYH-6" vertex="1">
          <mxGeometry x="69.41666666666667" y="24.750000000000014" width="34.41666666666667" height="17.616666666666667" as="geometry" />
        </mxCell>
        <mxCell id="V3z4afdnI8j49kzJQuYH-11" value="" style="shape=image;verticalLabelPosition=bottom;labelBackgroundColor=default;verticalAlign=top;aspect=fixed;imageAspect=0;editableCssRules=.*;image=data:image/svg+xml,PHN2ZyB4bWxuczp4bGluaz0iaHR0cDovL3d3dy53My5vcmcvMTk5OS94bGluayIgeG1sbnM9Imh0dHA6Ly93d3cudzMub3JnLzIwMDAvc3ZnIiB4bWw6c3BhY2U9InByZXNlcnZlIiB2ZXJzaW9uPSIxLjEiIGlkPSLQodC70L7QuV8xIiB2aWV3Qm94PSIwLjUyNTk4MzgxMDQyNDgwNDcgMTQzLjYwNjUyMTYwNjQ0NTMgNTExLjE4MzAxMzkxNjAxNTYgMjYxLjg1MjA1MDc4MTI1IiBoZWlnaHQ9IjQwOS4xNDM4MjkzNDU3MDMxIiB3aWR0aD0iNzk4LjcyMzQ1OTI0Mzc3NDQiPiYjeGE7JiN4YTs8Zz4mI3hhOyYjeGE7PGc+JiN4YTsmI3hhOzxnPiYjeGE7JiN4YTs8cGF0aCBmaWxsLXJ1bGU9ImV2ZW5vZGQiIGZpbGw9IiMzMzMzMzMiIGQ9Ik0yNTYuMTE1LDI1NS4yNzJjLTcuNzg0LDAuMDEtMTQuNDM4LDIuNzgyLTE5Ljk2LDguMzIxICAgICAgYy01LjUzOSw1LjUyMS04LjMxNSwxMi4xNzUtOC4zMjIsMTkuOTU5YzAuMDA3LDcuODAyLDIuNzgzLDE0LjQ3NSw4LjMyMiwyMC4wMTdjNS41MjIsNS41MTksMTIuMTc2LDguMjczLDE5Ljk2LDguMjYyICAgICAgYzcuODA2LDAuMDEyLDE0LjQ3OC0yLjc0MywyMC4wMjEtOC4yNjJjNS41MTktNS41NDIsOC4yNzQtMTIuMjE1LDguMjYzLTIwLjAxN2MwLjAxMi03Ljc4NC0yLjc0NC0xNC40MzgtOC4yNjMtMTkuOTU5ICAgICAgQzI3MC41OTMsMjU4LjA1NSwyNjMuOTIxLDI1NS4yODIsMjU2LjExNSwyNTUuMjcyeiBNMjc4Ljk4NiwxODkuMTcxaDEuMzM5YzEwLjI2OCwwLjI0MiwxOS4yMTEsMS44OSwyNi44MjgsNC45NDYgICAgICBjNy43NTksMy4xNCwxNC4xNCw3Ljc1NiwxOS4xNDYsMTMuODQ4aDkwLjA4NnYtMjYuMDY3Yy0xMS4wMjctMC4yMDktMjEuMjExLTAuNzE0LTMwLjU1Mi0xLjUxMyAgICAgIGMtNi42MzYtMC41NjktMTIuODQyLTEuMjg3LTE4LjYyMy0yLjE1NGMtMTYuNTEzLTIuNDMxLTI0Ljc3NS01LjM1OS0yNC43OTItOC43ODZjMC4wMTctMy40MDksOC4yNzktNi4zMzgsMjQuNzkyLTguNzg2ICAgICAgYzEzLjk1Ni0yLjAyLDMwLjM0OS0zLjE4NCw0OS4xNzUtMy40OTF2LTEuMjIyYy0wLjAxOC0xLjQzNiwwLjE5Ni0yLjc3MywwLjY0LTQuMDE2YzAuNTY1LTEuNzU4LDEuNTM2LTMuMzQ5LDIuOTA5LTQuNzcxICAgICAgYzIuNDEtMi4zOTQsNS4zMTktMy41NzgsOC43MjktMy41NWMzLjQ1MS0wLjAyOCw2LjQwMSwxLjE1Niw4Ljg0OCwzLjU1YzIuMzIzLDIuMzU1LDMuNTQ0LDUuMTY3LDMuNjY0LDguNDM3ICAgICAgYzAsMC4xMTYsMCwwLjIzMiwwLDAuMzUxdjEuMjIyYzYuMzkzLDAuMTc5LDEyLjUwMywwLjQ3LDE4LjMzMSwwLjg3M2M5Ljk1NSwwLjU1OCwxOS4wNTMsMS40MzEsMjcuMjk1LDIuNjE4ICAgICAgYzAuNDc0LDAuMDg5LDAuOTM5LDAuMTg2LDEuMzk2LDAuMjkxYzE1LjYyNiwyLjM3MiwyMy40NjIsNS4yMDMsMjMuNTEyLDguNDk1Yy0wLjA1LDMuMzMtNy44ODYsNi4xODEtMjMuNTEyLDguNTU0ICAgICAgYy0wLjQ1NywwLjA4NS0wLjkyMywwLjE2Mi0xLjM5NiwwLjIzMmMtMTMuMDUxLDEuOTYxLTI4LjI1OSwzLjE0NC00NS42MjYsMy41NXYyNi4xODVINDUyYzMuNDMxLDAuMDEyLDYuMzYsMS4yMzMsOC43ODgsMy42NjYgICAgICBjMi40MzMsMi40MDgsMy42NTUsNS4zMTgsMy42NjUsOC43MjljLTAuMDA3LDIuNDI3LTAuNjI4LDQuNTk5LTEuODYyLDYuNTE3Yy0yLjExNCwyLjgxMi01LjE4MSw0Ljc4OS05LjE5NSw1LjkzNSAgICAgIGMtMzMuOTg0LDguMTQ2LTY3Ljk3LDE2LjI5My0xMDEuOTU3LDI0LjQzOWwzOC45MzQsODEuNTgyYzAuMjI2LDAuNDAyLDAuNDM5LDAuODEyLDAuNjM5LDEuMjIxICAgICAgYzkuMzMyLDI2LjIzNSwyLjgzMyw0Ny4yNDItMTkuNDk1LDYzLjAxOWMtMi44MDgsMi4wMTQtNS44OSwyLjc1My05LjI1MiwyLjIxMmMtMy4zMjUtMC42MTYtNS45NjUtMi4zNDEtNy45MTUtNS4xODEgICAgICBjLTIuMDE3LTIuNzk4LTIuNzU2LTUuODgyLTIuMjEyLTkuMjUxYzAuNTg0LTMuMzQzLDIuMjczLTYsNS4wNjQtNy45NzFjMTIuMDE3LTguNjE3LDE1LjQ5LTIwLjA2MiwxMC40MTYtMzQuMzMxICAgICAgbC00MC45MTEtODUuMzYybC0xMC42NSwyLjYxOHY0Mi41MzRjMC4wMDUsMy4wMzUtMC43NTMsNS44NjctMi4yNjksOC40OTd2MC4wNTdjLTEuNTM0LDIuNjEzLTMuNjEsNC42NjktNi4yMjcsNi4xNjkgICAgICBsLTQyLjk0OCwyNC43Mjl2MC4wNmMtMi42NTUsMS41MDktNS40ODcsMi4yNjctOC40OTcsMi4yNjljLTMuMDIzLTAuMDI1LTUuODU2LTAuOC04LjQ5NS0yLjMyOGwtNDIuODktMjQuNzg5bC0wLjExOC0wLjA1NyAgICAgIGMtMi41ODUtMS41MzYtNC42MjEtMy42MTEtNi4xMS02LjIyNmMtMS41MTktMi42My0yLjI3My01LjQ0NC0yLjI2OS04LjQzOHYtNDIuNDc4bC0xMC43MDctMi42MThsLTQwLjkxMiw4NS4zNjIgICAgICBjLTUuMDczLDE0LjI3LTEuNjAzLDI1LjcxNCwxMC40MTYsMzQuMzMxYzIuNzkyLDEuOTcxLDQuNDgsNC42MjgsNS4wNjMsNy45NzFjMC41NDYsMy4zNjktMC4xOTMsNi40NTMtMi4yMDksOS4yNTEgICAgICBjLTEuOTUxLDIuODQtNC41OSw0LjU2NC03LjkxNiw1LjE4MWMtMy4zNjIsMC41NDEtNi40NDYtMC4xOTgtOS4yNTItMi4yMTJjLTIyLjMyOC0xNS43NzYtMjguODI3LTM2Ljc4My0xOS40OTUtNjMuMDE5ICAgICAgYzAuMi0wLjQwOSwwLjQxNC0wLjgxOCwwLjYzOS0xLjIyMWwzOC45MzQtODEuNTgyYy0zMy45ODctOC4xNDYtNjcuOTcyLTE2LjI5My0xMDEuOTU5LTI0LjQzOSAgICAgIGMtNC4wMTUtMS4xNDYtNy4wNzktMy4xMjMtOS4xOTMtNS45MzVjLTEuMjM0LTEuOTE4LTEuODU1LTQuMDktMS44NjQtNi41MTdjMC4wMTEtMy40MSwxLjIzMi02LjMyLDMuNjY3LTguNzI5ICAgICAgYzIuNDI4LTIuNDMzLDUuMzU4LTMuNjU0LDguNzg5LTMuNjY2aDEwLjgyM1YxODEuNzhjLTE3LjM2OC0wLjQwNi0zMi41NzYtMS41ODktNDUuNjI0LTMuNTUgICAgICBjLTAuNDczLTAuMDctMC45MzktMC4xNDctMS4zOTYtMC4yMzJjLTE1LjYyNi0yLjM3My0yMy40NjItNS4yMjQtMjMuNTEyLTguNTU0YzAuMDUtMy4yOTIsNy44ODYtNi4xMjMsMjMuNTEyLTguNDk1ICAgICAgYzAuNDU3LTAuMTA1LDAuOTIzLTAuMjAyLDEuMzk2LTAuMjkxYzguMjQzLTEuMTg4LDE3LjM0LTIuMDYxLDI3LjI5Mi0yLjYxOGM1LjgzMS0wLjQwMywxMS45NDEtMC42OTQsMTguMzMyLTAuODczdi0xLjIyMiAgICAgIGMwLTAuMTE4LDAtMC4yMzQsMC0wLjM1MWMwLjEyMy0zLjI3LDEuMzQ0LTYuMDgxLDMuNjY3LTguNDM3YzIuNDQ2LTIuMzk0LDUuMzk0LTMuNTc4LDguODQ1LTMuNTUgICAgICBjMy40MTMtMC4wMjgsNi4zMjIsMS4xNTYsOC43MjksMy41NWMxLjM3NSwxLjQyMywyLjM0NiwzLjAxNCwyLjkxLDQuNzcxYzAuNDQ2LDEuMjQyLDAuNjU5LDIuNTgsMC42NDEsNC4wMTZ2MS4yMjIgICAgICBjMTguODI3LDAuMzA4LDM1LjIyLDEuNDcyLDQ5LjE3NSwzLjQ5MWMxNi41MTMsMi40NDgsMjQuNzc2LDUuMzc3LDI0Ljc5Miw4Ljc4NmMtMC4wMTYsMy40MjctOC4yNzksNi4zNTUtMjQuNzkyLDguNzg2ICAgICAgYy01Ljc4MSwwLjg2Ny0xMS45ODksMS41ODUtMTguNjIyLDIuMTU0Yy05LjM0NCwwLjc5OS0xOS41MjcsMS4zMDQtMzAuNTUzLDEuNTEzdjI2LjA2N2g5MC4wODYgICAgICBjNS4wMDQtNi4wOTIsMTEuMzg3LTEwLjcwOCwxOS4xNDYtMTMuODQ4YzcuNjE4LTMuMDU3LDE2LjU2MS00LjcwNCwyNi44MjktNC45NDZoMS4zMzljMS4xNzMtMC4wMzksMi4zNzMtMC4wMzksMy42MDcsMGgzOC41MjQgICAgICBDMjc2LjYxLDE4OS4xMzIsMjc3LjgxMywxODkuMTMyLDI3OC45ODYsMTg5LjE3MXoiIGNsaXAtcnVsZT0iZXZlbm9kZCIvPiYjeGE7JiN4YTs8L2c+JiN4YTsmI3hhOzxnPiYjeGE7JiN4YTs8cGF0aCBmaWxsLXJ1bGU9ImV2ZW5vZGQiIGZpbGw9IiMzMzMzMzMiIGQ9Ik0yNTYuMDU4LDI2OS40MTNjMy45MDEsMC4wMTQsNy4yMzgsMS40MTEsMTAuMDEsNC4xODggICAgICBjMi43NiwyLjc1MSw0LjEzNyw2LjA2OSw0LjEzMyw5Ljk1MWMwLjAwNCwzLjkwMS0xLjM3Myw3LjIzNy00LjEzMywxMC4wMDljLTIuNzcxLDIuNzU5LTYuMTA4LDQuMTM3LTEwLjAxLDQuMTMgICAgICBjLTMuODgzLDAuMDA3LTcuMTk5LTEuMzcxLTkuOTUyLTQuMTNjLTIuNzgtMi43NzEtNC4xNzYtNi4xMDctNC4xODktMTAuMDA5YzAuMDE0LTMuODgyLDEuNDA5LTcuMiw0LjE4OS05Ljk1MSAgICAgIEMyNDguODU4LDI3MC44MjQsMjUyLjE3NSwyNjkuNDI3LDI1Ni4wNTgsMjY5LjQxM3oiIGNsaXAtcnVsZT0iZXZlbm9kZCIvPiYjeGE7JiN4YTs8L2c+JiN4YTsmI3hhOzwvZz4mI3hhOyYjeGE7PC9nPiYjeGE7JiN4YTs8L3N2Zz4=;" parent="V3z4afdnI8j49kzJQuYH-6" vertex="1">
          <mxGeometry x="58.333333333333336" y="62.5" width="34.41666666666667" height="17.616666666666667" as="geometry" />
        </mxCell>
        <mxCell id="V3z4afdnI8j49kzJQuYH-12" value="" style="shape=image;verticalLabelPosition=bottom;labelBackgroundColor=default;verticalAlign=top;aspect=fixed;imageAspect=0;editableCssRules=.*;image=data:image/svg+xml,PHN2ZyB4bWxuczp4bGluaz0iaHR0cDovL3d3dy53My5vcmcvMTk5OS94bGluayIgeG1sbnM9Imh0dHA6Ly93d3cudzMub3JnLzIwMDAvc3ZnIiB4bWw6c3BhY2U9InByZXNlcnZlIiB2ZXJzaW9uPSIxLjEiIGlkPSLQodC70L7QuV8xIiB2aWV3Qm94PSIwLjUyNTk4MzgxMDQyNDgwNDcgMTQzLjYwNjUyMTYwNjQ0NTMgNTExLjE4MzAxMzkxNjAxNTYgMjYxLjg1MjA1MDc4MTI1IiBoZWlnaHQ9IjQwOS4xNDM4MjkzNDU3MDMxIiB3aWR0aD0iNzk4LjcyMzQ1OTI0Mzc3NDQiPiYjeGE7JiN4YTs8Zz4mI3hhOyYjeGE7PGc+JiN4YTsmI3hhOzxnPiYjeGE7JiN4YTs8cGF0aCBmaWxsLXJ1bGU9ImV2ZW5vZGQiIGZpbGw9IiMzMzMzMzMiIGQ9Ik0yNTYuMTE1LDI1NS4yNzJjLTcuNzg0LDAuMDEtMTQuNDM4LDIuNzgyLTE5Ljk2LDguMzIxICAgICAgYy01LjUzOSw1LjUyMS04LjMxNSwxMi4xNzUtOC4zMjIsMTkuOTU5YzAuMDA3LDcuODAyLDIuNzgzLDE0LjQ3NSw4LjMyMiwyMC4wMTdjNS41MjIsNS41MTksMTIuMTc2LDguMjczLDE5Ljk2LDguMjYyICAgICAgYzcuODA2LDAuMDEyLDE0LjQ3OC0yLjc0MywyMC4wMjEtOC4yNjJjNS41MTktNS41NDIsOC4yNzQtMTIuMjE1LDguMjYzLTIwLjAxN2MwLjAxMi03Ljc4NC0yLjc0NC0xNC40MzgtOC4yNjMtMTkuOTU5ICAgICAgQzI3MC41OTMsMjU4LjA1NSwyNjMuOTIxLDI1NS4yODIsMjU2LjExNSwyNTUuMjcyeiBNMjc4Ljk4NiwxODkuMTcxaDEuMzM5YzEwLjI2OCwwLjI0MiwxOS4yMTEsMS44OSwyNi44MjgsNC45NDYgICAgICBjNy43NTksMy4xNCwxNC4xNCw3Ljc1NiwxOS4xNDYsMTMuODQ4aDkwLjA4NnYtMjYuMDY3Yy0xMS4wMjctMC4yMDktMjEuMjExLTAuNzE0LTMwLjU1Mi0xLjUxMyAgICAgIGMtNi42MzYtMC41NjktMTIuODQyLTEuMjg3LTE4LjYyMy0yLjE1NGMtMTYuNTEzLTIuNDMxLTI0Ljc3NS01LjM1OS0yNC43OTItOC43ODZjMC4wMTctMy40MDksOC4yNzktNi4zMzgsMjQuNzkyLTguNzg2ICAgICAgYzEzLjk1Ni0yLjAyLDMwLjM0OS0zLjE4NCw0OS4xNzUtMy40OTF2LTEuMjIyYy0wLjAxOC0xLjQzNiwwLjE5Ni0yLjc3MywwLjY0LTQuMDE2YzAuNTY1LTEuNzU4LDEuNTM2LTMuMzQ5LDIuOTA5LTQuNzcxICAgICAgYzIuNDEtMi4zOTQsNS4zMTktMy41NzgsOC43MjktMy41NWMzLjQ1MS0wLjAyOCw2LjQwMSwxLjE1Niw4Ljg0OCwzLjU1YzIuMzIzLDIuMzU1LDMuNTQ0LDUuMTY3LDMuNjY0LDguNDM3ICAgICAgYzAsMC4xMTYsMCwwLjIzMiwwLDAuMzUxdjEuMjIyYzYuMzkzLDAuMTc5LDEyLjUwMywwLjQ3LDE4LjMzMSwwLjg3M2M5Ljk1NSwwLjU1OCwxOS4wNTMsMS40MzEsMjcuMjk1LDIuNjE4ICAgICAgYzAuNDc0LDAuMDg5LDAuOTM5LDAuMTg2LDEuMzk2LDAuMjkxYzE1LjYyNiwyLjM3MiwyMy40NjIsNS4yMDMsMjMuNTEyLDguNDk1Yy0wLjA1LDMuMzMtNy44ODYsNi4xODEtMjMuNTEyLDguNTU0ICAgICAgYy0wLjQ1NywwLjA4NS0wLjkyMywwLjE2Mi0xLjM5NiwwLjIzMmMtMTMuMDUxLDEuOTYxLTI4LjI1OSwzLjE0NC00NS42MjYsMy41NXYyNi4xODVINDUyYzMuNDMxLDAuMDEyLDYuMzYsMS4yMzMsOC43ODgsMy42NjYgICAgICBjMi40MzMsMi40MDgsMy42NTUsNS4zMTgsMy42NjUsOC43MjljLTAuMDA3LDIuNDI3LTAuNjI4LDQuNTk5LTEuODYyLDYuNTE3Yy0yLjExNCwyLjgxMi01LjE4MSw0Ljc4OS05LjE5NSw1LjkzNSAgICAgIGMtMzMuOTg0LDguMTQ2LTY3Ljk3LDE2LjI5My0xMDEuOTU3LDI0LjQzOWwzOC45MzQsODEuNTgyYzAuMjI2LDAuNDAyLDAuNDM5LDAuODEyLDAuNjM5LDEuMjIxICAgICAgYzkuMzMyLDI2LjIzNSwyLjgzMyw0Ny4yNDItMTkuNDk1LDYzLjAxOWMtMi44MDgsMi4wMTQtNS44OSwyLjc1My05LjI1MiwyLjIxMmMtMy4zMjUtMC42MTYtNS45NjUtMi4zNDEtNy45MTUtNS4xODEgICAgICBjLTIuMDE3LTIuNzk4LTIuNzU2LTUuODgyLTIuMjEyLTkuMjUxYzAuNTg0LTMuMzQzLDIuMjczLTYsNS4wNjQtNy45NzFjMTIuMDE3LTguNjE3LDE1LjQ5LTIwLjA2MiwxMC40MTYtMzQuMzMxICAgICAgbC00MC45MTEtODUuMzYybC0xMC42NSwyLjYxOHY0Mi41MzRjMC4wMDUsMy4wMzUtMC43NTMsNS44NjctMi4yNjksOC40OTd2MC4wNTdjLTEuNTM0LDIuNjEzLTMuNjEsNC42NjktNi4yMjcsNi4xNjkgICAgICBsLTQyLjk0OCwyNC43Mjl2MC4wNmMtMi42NTUsMS41MDktNS40ODcsMi4yNjctOC40OTcsMi4yNjljLTMuMDIzLTAuMDI1LTUuODU2LTAuOC04LjQ5NS0yLjMyOGwtNDIuODktMjQuNzg5bC0wLjExOC0wLjA1NyAgICAgIGMtMi41ODUtMS41MzYtNC42MjEtMy42MTEtNi4xMS02LjIyNmMtMS41MTktMi42My0yLjI3My01LjQ0NC0yLjI2OS04LjQzOHYtNDIuNDc4bC0xMC43MDctMi42MThsLTQwLjkxMiw4NS4zNjIgICAgICBjLTUuMDczLDE0LjI3LTEuNjAzLDI1LjcxNCwxMC40MTYsMzQuMzMxYzIuNzkyLDEuOTcxLDQuNDgsNC42MjgsNS4wNjMsNy45NzFjMC41NDYsMy4zNjktMC4xOTMsNi40NTMtMi4yMDksOS4yNTEgICAgICBjLTEuOTUxLDIuODQtNC41OSw0LjU2NC03LjkxNiw1LjE4MWMtMy4zNjIsMC41NDEtNi40NDYtMC4xOTgtOS4yNTItMi4yMTJjLTIyLjMyOC0xNS43NzYtMjguODI3LTM2Ljc4My0xOS40OTUtNjMuMDE5ICAgICAgYzAuMi0wLjQwOSwwLjQxNC0wLjgxOCwwLjYzOS0xLjIyMWwzOC45MzQtODEuNTgyYy0zMy45ODctOC4xNDYtNjcuOTcyLTE2LjI5My0xMDEuOTU5LTI0LjQzOSAgICAgIGMtNC4wMTUtMS4xNDYtNy4wNzktMy4xMjMtOS4xOTMtNS45MzVjLTEuMjM0LTEuOTE4LTEuODU1LTQuMDktMS44NjQtNi41MTdjMC4wMTEtMy40MSwxLjIzMi02LjMyLDMuNjY3LTguNzI5ICAgICAgYzIuNDI4LTIuNDMzLDUuMzU4LTMuNjU0LDguNzg5LTMuNjY2aDEwLjgyM1YxODEuNzhjLTE3LjM2OC0wLjQwNi0zMi41NzYtMS41ODktNDUuNjI0LTMuNTUgICAgICBjLTAuNDczLTAuMDctMC45MzktMC4xNDctMS4zOTYtMC4yMzJjLTE1LjYyNi0yLjM3My0yMy40NjItNS4yMjQtMjMuNTEyLTguNTU0YzAuMDUtMy4yOTIsNy44ODYtNi4xMjMsMjMuNTEyLTguNDk1ICAgICAgYzAuNDU3LTAuMTA1LDAuOTIzLTAuMjAyLDEuMzk2LTAuMjkxYzguMjQzLTEuMTg4LDE3LjM0LTIuMDYxLDI3LjI5Mi0yLjYxOGM1LjgzMS0wLjQwMywxMS45NDEtMC42OTQsMTguMzMyLTAuODczdi0xLjIyMiAgICAgIGMwLTAuMTE4LDAtMC4yMzQsMC0wLjM1MWMwLjEyMy0zLjI3LDEuMzQ0LTYuMDgxLDMuNjY3LTguNDM3YzIuNDQ2LTIuMzk0LDUuMzk0LTMuNTc4LDguODQ1LTMuNTUgICAgICBjMy40MTMtMC4wMjgsNi4zMjIsMS4xNTYsOC43MjksMy41NWMxLjM3NSwxLjQyMywyLjM0NiwzLjAxNCwyLjkxLDQuNzcxYzAuNDQ2LDEuMjQyLDAuNjU5LDIuNTgsMC42NDEsNC4wMTZ2MS4yMjIgICAgICBjMTguODI3LDAuMzA4LDM1LjIyLDEuNDcyLDQ5LjE3NSwzLjQ5MWMxNi41MTMsMi40NDgsMjQuNzc2LDUuMzc3LDI0Ljc5Miw4Ljc4NmMtMC4wMTYsMy40MjctOC4yNzksNi4zNTUtMjQuNzkyLDguNzg2ICAgICAgYy01Ljc4MSwwLjg2Ny0xMS45ODksMS41ODUtMTguNjIyLDIuMTU0Yy05LjM0NCwwLjc5OS0xOS41MjcsMS4zMDQtMzAuNTUzLDEuNTEzdjI2LjA2N2g5MC4wODYgICAgICBjNS4wMDQtNi4wOTIsMTEuMzg3LTEwLjcwOCwxOS4xNDYtMTMuODQ4YzcuNjE4LTMuMDU3LDE2LjU2MS00LjcwNCwyNi44MjktNC45NDZoMS4zMzljMS4xNzMtMC4wMzksMi4zNzMtMC4wMzksMy42MDcsMGgzOC41MjQgICAgICBDMjc2LjYxLDE4OS4xMzIsMjc3LjgxMywxODkuMTMyLDI3OC45ODYsMTg5LjE3MXoiIGNsaXAtcnVsZT0iZXZlbm9kZCIvPiYjeGE7JiN4YTs8L2c+JiN4YTsmI3hhOzxnPiYjeGE7JiN4YTs8cGF0aCBmaWxsLXJ1bGU9ImV2ZW5vZGQiIGZpbGw9IiMzMzMzMzMiIGQ9Ik0yNTYuMDU4LDI2OS40MTNjMy45MDEsMC4wMTQsNy4yMzgsMS40MTEsMTAuMDEsNC4xODggICAgICBjMi43NiwyLjc1MSw0LjEzNyw2LjA2OSw0LjEzMyw5Ljk1MWMwLjAwNCwzLjkwMS0xLjM3Myw3LjIzNy00LjEzMywxMC4wMDljLTIuNzcxLDIuNzU5LTYuMTA4LDQuMTM3LTEwLjAxLDQuMTMgICAgICBjLTMuODgzLDAuMDA3LTcuMTk5LTEuMzcxLTkuOTUyLTQuMTNjLTIuNzgtMi43NzEtNC4xNzYtNi4xMDctNC4xODktMTAuMDA5YzAuMDE0LTMuODgyLDEuNDA5LTcuMiw0LjE4OS05Ljk1MSAgICAgIEMyNDguODU4LDI3MC44MjQsMjUyLjE3NSwyNjkuNDI3LDI1Ni4wNTgsMjY5LjQxM3oiIGNsaXAtcnVsZT0iZXZlbm9kZCIvPiYjeGE7JiN4YTs8L2c+JiN4YTsmI3hhOzwvZz4mI3hhOyYjeGE7PC9nPiYjeGE7JiN4YTs8L3N2Zz4=;" parent="V3z4afdnI8j49kzJQuYH-6" vertex="1">
          <mxGeometry x="35" y="50" width="34.41666666666667" height="17.616666666666667" as="geometry" />
        </mxCell>
        <mxCell id="V3z4afdnI8j49kzJQuYH-13" value="" style="shape=image;verticalLabelPosition=bottom;labelBackgroundColor=default;verticalAlign=top;aspect=fixed;imageAspect=0;editableCssRules=.*;image=data:image/svg+xml,PHN2ZyB4bWxuczp4bGluaz0iaHR0cDovL3d3dy53My5vcmcvMTk5OS94bGluayIgeG1sbnM9Imh0dHA6Ly93d3cudzMub3JnLzIwMDAvc3ZnIiB4bWw6c3BhY2U9InByZXNlcnZlIiB2ZXJzaW9uPSIxLjEiIGlkPSLQodC70L7QuV8xIiB2aWV3Qm94PSIwLjUyNTk4MzgxMDQyNDgwNDcgMTQzLjYwNjUyMTYwNjQ0NTMgNTExLjE4MzAxMzkxNjAxNTYgMjYxLjg1MjA1MDc4MTI1IiBoZWlnaHQ9IjQwOS4xNDM4MjkzNDU3MDMxIiB3aWR0aD0iNzk4LjcyMzQ1OTI0Mzc3NDQiPiYjeGE7JiN4YTs8Zz4mI3hhOyYjeGE7PGc+JiN4YTsmI3hhOzxnPiYjeGE7JiN4YTs8cGF0aCBmaWxsLXJ1bGU9ImV2ZW5vZGQiIGZpbGw9IiMzMzMzMzMiIGQ9Ik0yNTYuMTE1LDI1NS4yNzJjLTcuNzg0LDAuMDEtMTQuNDM4LDIuNzgyLTE5Ljk2LDguMzIxICAgICAgYy01LjUzOSw1LjUyMS04LjMxNSwxMi4xNzUtOC4zMjIsMTkuOTU5YzAuMDA3LDcuODAyLDIuNzgzLDE0LjQ3NSw4LjMyMiwyMC4wMTdjNS41MjIsNS41MTksMTIuMTc2LDguMjczLDE5Ljk2LDguMjYyICAgICAgYzcuODA2LDAuMDEyLDE0LjQ3OC0yLjc0MywyMC4wMjEtOC4yNjJjNS41MTktNS41NDIsOC4yNzQtMTIuMjE1LDguMjYzLTIwLjAxN2MwLjAxMi03Ljc4NC0yLjc0NC0xNC40MzgtOC4yNjMtMTkuOTU5ICAgICAgQzI3MC41OTMsMjU4LjA1NSwyNjMuOTIxLDI1NS4yODIsMjU2LjExNSwyNTUuMjcyeiBNMjc4Ljk4NiwxODkuMTcxaDEuMzM5YzEwLjI2OCwwLjI0MiwxOS4yMTEsMS44OSwyNi44MjgsNC45NDYgICAgICBjNy43NTksMy4xNCwxNC4xNCw3Ljc1NiwxOS4xNDYsMTMuODQ4aDkwLjA4NnYtMjYuMDY3Yy0xMS4wMjctMC4yMDktMjEuMjExLTAuNzE0LTMwLjU1Mi0xLjUxMyAgICAgIGMtNi42MzYtMC41NjktMTIuODQyLTEuMjg3LTE4LjYyMy0yLjE1NGMtMTYuNTEzLTIuNDMxLTI0Ljc3NS01LjM1OS0yNC43OTItOC43ODZjMC4wMTctMy40MDksOC4yNzktNi4zMzgsMjQuNzkyLTguNzg2ICAgICAgYzEzLjk1Ni0yLjAyLDMwLjM0OS0zLjE4NCw0OS4xNzUtMy40OTF2LTEuMjIyYy0wLjAxOC0xLjQzNiwwLjE5Ni0yLjc3MywwLjY0LTQuMDE2YzAuNTY1LTEuNzU4LDEuNTM2LTMuMzQ5LDIuOTA5LTQuNzcxICAgICAgYzIuNDEtMi4zOTQsNS4zMTktMy41NzgsOC43MjktMy41NWMzLjQ1MS0wLjAyOCw2LjQwMSwxLjE1Niw4Ljg0OCwzLjU1YzIuMzIzLDIuMzU1LDMuNTQ0LDUuMTY3LDMuNjY0LDguNDM3ICAgICAgYzAsMC4xMTYsMCwwLjIzMiwwLDAuMzUxdjEuMjIyYzYuMzkzLDAuMTc5LDEyLjUwMywwLjQ3LDE4LjMzMSwwLjg3M2M5Ljk1NSwwLjU1OCwxOS4wNTMsMS40MzEsMjcuMjk1LDIuNjE4ICAgICAgYzAuNDc0LDAuMDg5LDAuOTM5LDAuMTg2LDEuMzk2LDAuMjkxYzE1LjYyNiwyLjM3MiwyMy40NjIsNS4yMDMsMjMuNTEyLDguNDk1Yy0wLjA1LDMuMzMtNy44ODYsNi4xODEtMjMuNTEyLDguNTU0ICAgICAgYy0wLjQ1NywwLjA4NS0wLjkyMywwLjE2Mi0xLjM5NiwwLjIzMmMtMTMuMDUxLDEuOTYxLTI4LjI1OSwzLjE0NC00NS42MjYsMy41NXYyNi4xODVINDUyYzMuNDMxLDAuMDEyLDYuMzYsMS4yMzMsOC43ODgsMy42NjYgICAgICBjMi40MzMsMi40MDgsMy42NTUsNS4zMTgsMy42NjUsOC43MjljLTAuMDA3LDIuNDI3LTAuNjI4LDQuNTk5LTEuODYyLDYuNTE3Yy0yLjExNCwyLjgxMi01LjE4MSw0Ljc4OS05LjE5NSw1LjkzNSAgICAgIGMtMzMuOTg0LDguMTQ2LTY3Ljk3LDE2LjI5My0xMDEuOTU3LDI0LjQzOWwzOC45MzQsODEuNTgyYzAuMjI2LDAuNDAyLDAuNDM5LDAuODEyLDAuNjM5LDEuMjIxICAgICAgYzkuMzMyLDI2LjIzNSwyLjgzMyw0Ny4yNDItMTkuNDk1LDYzLjAxOWMtMi44MDgsMi4wMTQtNS44OSwyLjc1My05LjI1MiwyLjIxMmMtMy4zMjUtMC42MTYtNS45NjUtMi4zNDEtNy45MTUtNS4xODEgICAgICBjLTIuMDE3LTIuNzk4LTIuNzU2LTUuODgyLTIuMjEyLTkuMjUxYzAuNTg0LTMuMzQzLDIuMjczLTYsNS4wNjQtNy45NzFjMTIuMDE3LTguNjE3LDE1LjQ5LTIwLjA2MiwxMC40MTYtMzQuMzMxICAgICAgbC00MC45MTEtODUuMzYybC0xMC42NSwyLjYxOHY0Mi41MzRjMC4wMDUsMy4wMzUtMC43NTMsNS44NjctMi4yNjksOC40OTd2MC4wNTdjLTEuNTM0LDIuNjEzLTMuNjEsNC42NjktNi4yMjcsNi4xNjkgICAgICBsLTQyLjk0OCwyNC43Mjl2MC4wNmMtMi42NTUsMS41MDktNS40ODcsMi4yNjctOC40OTcsMi4yNjljLTMuMDIzLTAuMDI1LTUuODU2LTAuOC04LjQ5NS0yLjMyOGwtNDIuODktMjQuNzg5bC0wLjExOC0wLjA1NyAgICAgIGMtMi41ODUtMS41MzYtNC42MjEtMy42MTEtNi4xMS02LjIyNmMtMS41MTktMi42My0yLjI3My01LjQ0NC0yLjI2OS04LjQzOHYtNDIuNDc4bC0xMC43MDctMi42MThsLTQwLjkxMiw4NS4zNjIgICAgICBjLTUuMDczLDE0LjI3LTEuNjAzLDI1LjcxNCwxMC40MTYsMzQuMzMxYzIuNzkyLDEuOTcxLDQuNDgsNC42MjgsNS4wNjMsNy45NzFjMC41NDYsMy4zNjktMC4xOTMsNi40NTMtMi4yMDksOS4yNTEgICAgICBjLTEuOTUxLDIuODQtNC41OSw0LjU2NC03LjkxNiw1LjE4MWMtMy4zNjIsMC41NDEtNi40NDYtMC4xOTgtOS4yNTItMi4yMTJjLTIyLjMyOC0xNS43NzYtMjguODI3LTM2Ljc4My0xOS40OTUtNjMuMDE5ICAgICAgYzAuMi0wLjQwOSwwLjQxNC0wLjgxOCwwLjYzOS0xLjIyMWwzOC45MzQtODEuNTgyYy0zMy45ODctOC4xNDYtNjcuOTcyLTE2LjI5My0xMDEuOTU5LTI0LjQzOSAgICAgIGMtNC4wMTUtMS4xNDYtNy4wNzktMy4xMjMtOS4xOTMtNS45MzVjLTEuMjM0LTEuOTE4LTEuODU1LTQuMDktMS44NjQtNi41MTdjMC4wMTEtMy40MSwxLjIzMi02LjMyLDMuNjY3LTguNzI5ICAgICAgYzIuNDI4LTIuNDMzLDUuMzU4LTMuNjU0LDguNzg5LTMuNjY2aDEwLjgyM1YxODEuNzhjLTE3LjM2OC0wLjQwNi0zMi41NzYtMS41ODktNDUuNjI0LTMuNTUgICAgICBjLTAuNDczLTAuMDctMC45MzktMC4xNDctMS4zOTYtMC4yMzJjLTE1LjYyNi0yLjM3My0yMy40NjItNS4yMjQtMjMuNTEyLTguNTU0YzAuMDUtMy4yOTIsNy44ODYtNi4xMjMsMjMuNTEyLTguNDk1ICAgICAgYzAuNDU3LTAuMTA1LDAuOTIzLTAuMjAyLDEuMzk2LTAuMjkxYzguMjQzLTEuMTg4LDE3LjM0LTIuMDYxLDI3LjI5Mi0yLjYxOGM1LjgzMS0wLjQwMywxMS45NDEtMC42OTQsMTguMzMyLTAuODczdi0xLjIyMiAgICAgIGMwLTAuMTE4LDAtMC4yMzQsMC0wLjM1MWMwLjEyMy0zLjI3LDEuMzQ0LTYuMDgxLDMuNjY3LTguNDM3YzIuNDQ2LTIuMzk0LDUuMzk0LTMuNTc4LDguODQ1LTMuNTUgICAgICBjMy40MTMtMC4wMjgsNi4zMjIsMS4xNTYsOC43MjksMy41NWMxLjM3NSwxLjQyMywyLjM0NiwzLjAxNCwyLjkxLDQuNzcxYzAuNDQ2LDEuMjQyLDAuNjU5LDIuNTgsMC42NDEsNC4wMTZ2MS4yMjIgICAgICBjMTguODI3LDAuMzA4LDM1LjIyLDEuNDcyLDQ5LjE3NSwzLjQ5MWMxNi41MTMsMi40NDgsMjQuNzc2LDUuMzc3LDI0Ljc5Miw4Ljc4NmMtMC4wMTYsMy40MjctOC4yNzksNi4zNTUtMjQuNzkyLDguNzg2ICAgICAgYy01Ljc4MSwwLjg2Ny0xMS45ODksMS41ODUtMTguNjIyLDIuMTU0Yy05LjM0NCwwLjc5OS0xOS41MjcsMS4zMDQtMzAuNTUzLDEuNTEzdjI2LjA2N2g5MC4wODYgICAgICBjNS4wMDQtNi4wOTIsMTEuMzg3LTEwLjcwOCwxOS4xNDYtMTMuODQ4YzcuNjE4LTMuMDU3LDE2LjU2MS00LjcwNCwyNi44MjktNC45NDZoMS4zMzljMS4xNzMtMC4wMzksMi4zNzMtMC4wMzksMy42MDcsMGgzOC41MjQgICAgICBDMjc2LjYxLDE4OS4xMzIsMjc3LjgxMywxODkuMTMyLDI3OC45ODYsMTg5LjE3MXoiIGNsaXAtcnVsZT0iZXZlbm9kZCIvPiYjeGE7JiN4YTs8L2c+JiN4YTsmI3hhOzxnPiYjeGE7JiN4YTs8cGF0aCBmaWxsLXJ1bGU9ImV2ZW5vZGQiIGZpbGw9IiMzMzMzMzMiIGQ9Ik0yNTYuMDU4LDI2OS40MTNjMy45MDEsMC4wMTQsNy4yMzgsMS40MTEsMTAuMDEsNC4xODggICAgICBjMi43NiwyLjc1MSw0LjEzNyw2LjA2OSw0LjEzMyw5Ljk1MWMwLjAwNCwzLjkwMS0xLjM3Myw3LjIzNy00LjEzMywxMC4wMDljLTIuNzcxLDIuNzU5LTYuMTA4LDQuMTM3LTEwLjAxLDQuMTMgICAgICBjLTMuODgzLDAuMDA3LTcuMTk5LTEuMzcxLTkuOTUyLTQuMTNjLTIuNzgtMi43NzEtNC4xNzYtNi4xMDctNC4xODktMTAuMDA5YzAuMDE0LTMuODgyLDEuNDA5LTcuMiw0LjE4OS05Ljk1MSAgICAgIEMyNDguODU4LDI3MC44MjQsMjUyLjE3NSwyNjkuNDI3LDI1Ni4wNTgsMjY5LjQxM3oiIGNsaXAtcnVsZT0iZXZlbm9kZCIvPiYjeGE7JiN4YTs8L2c+JiN4YTsmI3hhOzwvZz4mI3hhOyYjeGE7PC9nPiYjeGE7JiN4YTs8L3N2Zz4=;" parent="V3z4afdnI8j49kzJQuYH-6" vertex="1">
          <mxGeometry x="92.75333333333334" y="44.88499999999997" width="34.41666666666667" height="17.616666666666667" as="geometry" />
        </mxCell>
        <mxCell id="V3z4afdnI8j49kzJQuYH-14" value="&lt;font style=&quot;font-size: 27px;&quot; face=&quot;Times New Roman&quot;&gt;...&lt;/font&gt;" style="text;html=1;align=center;verticalAlign=middle;resizable=0;points=[];autosize=1;strokeColor=none;fillColor=none;" parent="V3z4afdnI8j49kzJQuYH-6" vertex="1">
          <mxGeometry x="63.82999999999996" y="24.75" width="40" height="50" as="geometry" />
        </mxCell>
        <mxCell id="V3z4afdnI8j49kzJQuYH-16" value="" style="endArrow=classic;html=1;rounded=0;strokeColor=#000000;strokeWidth=2;" parent="1" edge="1">
          <mxGeometry relative="1" as="geometry">
            <mxPoint x="900" y="593" as="sourcePoint" />
            <mxPoint x="520" y="596" as="targetPoint" />
          </mxGeometry>
        </mxCell>
        <mxCell id="V3z4afdnI8j49kzJQuYH-17" value="" style="shape=message;html=1;outlineConnect=0;" parent="V3z4afdnI8j49kzJQuYH-16" vertex="1">
          <mxGeometry width="20" height="14" relative="1" as="geometry">
            <mxPoint x="-10" y="-7" as="offset" />
          </mxGeometry>
        </mxCell>
        <mxCell id="V3z4afdnI8j49kzJQuYH-24" value="" style="html=1;verticalLabelPosition=bottom;align=center;labelBackgroundColor=#ffffff;verticalAlign=top;strokeWidth=2;strokeColor=#0080F0;shadow=0;dashed=0;shape=mxgraph.ios7.icons.wifi;pointerEvents=1;rotation=-85;" parent="1" vertex="1">
          <mxGeometry x="489" y="585" width="29.7" height="21" as="geometry" />
        </mxCell>
        <mxCell id="V3z4afdnI8j49kzJQuYH-26" value="" style="group" parent="1" vertex="1" connectable="0">
          <mxGeometry x="310" y="617" width="560" height="129" as="geometry" />
        </mxCell>
        <mxCell id="V3z4afdnI8j49kzJQuYH-27" value="&lt;div style=&quot;&quot;&gt;&lt;font face=&quot;Times New Roman&quot;&gt;&lt;span style=&quot;font-size: 18px;&quot;&gt;After receiving \(M_4\), each drone selects current timestamp \(T_{cur}^3\) to verify&amp;nbsp;&lt;/span&gt;&lt;/font&gt;&lt;span style=&quot;font-family: &amp;quot;Times New Roman&amp;quot;; font-size: 18px; background-color: transparent; color: light-dark(rgb(0, 0, 0), rgb(255, 255, 255));&quot;&gt;if \(|VT_4-T_{cur}^3|&amp;lt;\triangle t \) ?&amp;nbsp;&lt;/span&gt;&lt;span style=&quot;font-family: &amp;quot;Times New Roman&amp;quot;; font-size: 18px; background-color: transparent; color: light-dark(rgb(0, 0, 0), rgb(255, 255, 255));&quot;&gt;If yes, then&lt;/span&gt;&lt;span style=&quot;background-color: transparent; color: light-dark(rgb(0, 0, 0), rgb(255, 255, 255)); font-family: &amp;quot;Times New Roman&amp;quot;; font-size: 18px;&quot;&gt;&amp;nbsp;&lt;/span&gt;&lt;span style=&quot;background-color: transparent; color: light-dark(rgb(0, 0, 0), rgb(255, 255, 255)); font-family: &amp;quot;Times New Roman&amp;quot;; font-size: 18px;&quot;&gt;verify the legitimacy of \(ECV_i\)&lt;/span&gt;&lt;span style=&quot;font-family: &amp;quot;Times New Roman&amp;quot;; font-size: 18px; background-color: transparent; color: light-dark(rgb(0, 0, 0), rgb(255, 255, 255));&quot;&gt;:&lt;/span&gt;&lt;/div&gt;&lt;div style=&quot;&quot;&gt;&lt;span style=&quot;font-family: &amp;quot;Times New Roman&amp;quot;; font-size: 18px; background-color: transparent; color: light-dark(rgb(0, 0, 0), rgb(255, 255, 255));&quot;&gt;\(H(T_{\varrho^{b_j+wt_j}}(VP_i))\stackrel{?}{=}H(T_{\varrho^{b_j}}(C_i))\), if yes, then calculate:&lt;/span&gt;&lt;/div&gt;&lt;div style=&quot;&quot;&gt;&lt;span style=&quot;font-family: &amp;quot;Times New Roman&amp;quot;; font-size: 18px; background-color: transparent; color: light-dark(rgb(0, 0, 0), rgb(255, 255, 255));&quot;&gt;\(D_i^*=T_{\varrho^{b_j}}(C_i)\), \(SK_j^i=H(C_i^*||D_i^*||wt_j)\)&lt;/span&gt;&lt;/div&gt;" style="rounded=0;whiteSpace=wrap;html=1;labelBorderColor=none;fillColor=#d5e8d4;strokeColor=#82b366;strokeWidth=2;" parent="V3z4afdnI8j49kzJQuYH-26" vertex="1">
          <mxGeometry y="15.176470588235292" width="560" height="113.82352941176468" as="geometry" />
        </mxCell>
        <mxCell id="V3z4afdnI8j49kzJQuYH-28" value="&lt;font style=&quot;font-size: 18px; color: rgb(255, 255, 255);&quot;&gt;&lt;b&gt;Step 3&lt;/b&gt;&lt;/font&gt;" style="rounded=0;whiteSpace=wrap;html=1;fillColor=#67AB9F;strokeColor=#67AB9F;strokeWidth=2;" parent="V3z4afdnI8j49kzJQuYH-26" vertex="1">
          <mxGeometry width="560" height="20" as="geometry" />
        </mxCell>
        <mxCell id="V3z4afdnI8j49kzJQuYH-35" value="" style="group" parent="1" vertex="1" connectable="0">
          <mxGeometry x="569" y="749.21" width="510" height="170.79" as="geometry" />
        </mxCell>
        <mxCell id="v15FcyH-daBZKtvoUnET-18" value="&lt;span style=&quot;text-align: start; white-space: pre;&quot;&gt;&lt;font face=&quot;Times New Roman&quot; style=&quot;font-size: 18px;&quot;&gt;Calculate the share &lt;/font&gt;&lt;/span&gt;&lt;font face=&quot;Times New Roman&quot;&gt;&lt;span style=&quot;font-size: 18px; white-space: pre;&quot;&gt;based on the procedure outlined in Algorithm 1,&lt;/span&gt;&lt;/font&gt;&lt;div&gt;&lt;font face=&quot;Times New Roman&quot;&gt;&lt;span style=&quot;font-size: 18px; white-space: pre;&quot;&gt;compute \(r(x)=E_0+E_1x+E_2x^2+...+E_tx^t \ mod \ q ,x=Ch_1^j\),&lt;/span&gt;&lt;/font&gt;&lt;/div&gt;&lt;div&gt;&lt;font face=&quot;Times New Roman&quot;&gt;&lt;span style=&quot;font-size: 18px; white-space: pre;&quot;&gt;broadcast \([g^{share_1^1}h^{r(Ch_1^1)},...,g^{share_1^m}h^{r(Ch_1^m)}]\),&lt;/span&gt;&lt;/font&gt;&lt;/div&gt;&lt;div&gt;&lt;span style=&quot;color: light-dark(rgb(0, 0, 0), rgb(255, 255, 255)); background-color: transparent; font-family: &amp;quot;Times New Roman&amp;quot;; font-size: 18px;&quot;&gt;Retrieve the current timestamp \(VT_5\) and&amp;nbsp;&lt;/span&gt;&lt;span style=&quot;color: light-dark(rgb(0, 0, 0), rgb(255, 255, 255)); background-color: transparent; font-family: &amp;quot;Times New Roman&amp;quot;; font-size: 18px;&quot;&gt;broadcast the message to all drones (&lt;/span&gt;&lt;span style=&quot;background-color: transparent; font-size: 18px;&quot;&gt;&lt;font face=&quot;Times New Roman&quot;&gt;take \(U_j\) as an example for illustration&lt;/font&gt;&lt;/span&gt;&lt;span style=&quot;background-color: transparent; color: light-dark(rgb(0, 0, 0), rgb(255, 255, 255)); font-family: &amp;quot;Times New Roman&amp;quot;; font-size: 18px;&quot;&gt;): \(M_5=\{SEN(SK_i^j)[share_1^j||VT_5]\}\)&lt;/span&gt;&lt;/div&gt;" style="rounded=0;whiteSpace=wrap;html=1;fillColor=#f8cecc;strokeColor=#b85450;strokeWidth=2;" parent="V3z4afdnI8j49kzJQuYH-35" vertex="1">
          <mxGeometry y="19.08268156424581" width="510" height="151.7073184357542" as="geometry" />
        </mxCell>
        <mxCell id="V3z4afdnI8j49kzJQuYH-34" value="&lt;font color=&quot;#ffffff&quot;&gt;&lt;span style=&quot;font-size: 18px;&quot;&gt;&lt;b&gt;Procedural explanation&lt;/b&gt;&lt;/span&gt;&lt;/font&gt;" style="rounded=0;whiteSpace=wrap;html=1;fillColor=#CC0066;strokeColor=#99004D;strokeWidth=2;align=center;verticalAlign=middle;fontFamily=Helvetica;fontSize=12;fontColor=default;" parent="V3z4afdnI8j49kzJQuYH-35" vertex="1">
          <mxGeometry y="10.046470588235294" width="510" height="20.09294117647059" as="geometry" />
        </mxCell>
        <mxCell id="V3z4afdnI8j49kzJQuYH-37" value="c" style="group;strokeWidth=2;" parent="1" vertex="1" connectable="0">
          <mxGeometry x="355" y="837" width="140" height="100" as="geometry" />
        </mxCell>
        <mxCell id="V3z4afdnI8j49kzJQuYH-38" value="" style="ellipse;shape=cloud;whiteSpace=wrap;html=1;fillColor=#F8CECC;fontColor=#ffffff;strokeColor=#CC0066;strokeWidth=2;" parent="V3z4afdnI8j49kzJQuYH-37" vertex="1">
          <mxGeometry width="140" height="100" as="geometry" />
        </mxCell>
        <mxCell id="V3z4afdnI8j49kzJQuYH-39" value="" style="shape=image;verticalLabelPosition=bottom;labelBackgroundColor=default;verticalAlign=top;aspect=fixed;imageAspect=0;editableCssRules=.*;image=data:image/svg+xml,PHN2ZyB4bWxuczp4bGluaz0iaHR0cDovL3d3dy53My5vcmcvMTk5OS94bGluayIgeG1sbnM9Imh0dHA6Ly93d3cudzMub3JnLzIwMDAvc3ZnIiB4bWw6c3BhY2U9InByZXNlcnZlIiB2ZXJzaW9uPSIxLjEiIGlkPSLQodC70L7QuV8xIiB2aWV3Qm94PSIwLjUyNTk4MzgxMDQyNDgwNDcgMTQzLjYwNjUyMTYwNjQ0NTMgNTExLjE4MzAxMzkxNjAxNTYgMjYxLjg1MjA1MDc4MTI1IiBoZWlnaHQ9IjQwOS4xNDM4MjkzNDU3MDMxIiB3aWR0aD0iNzk4LjcyMzQ1OTI0Mzc3NDQiPiYjeGE7JiN4YTs8Zz4mI3hhOyYjeGE7PGc+JiN4YTsmI3hhOzxnPiYjeGE7JiN4YTs8cGF0aCBmaWxsLXJ1bGU9ImV2ZW5vZGQiIGZpbGw9IiMzMzMzMzMiIGQ9Ik0yNTYuMTE1LDI1NS4yNzJjLTcuNzg0LDAuMDEtMTQuNDM4LDIuNzgyLTE5Ljk2LDguMzIxICAgICAgYy01LjUzOSw1LjUyMS04LjMxNSwxMi4xNzUtOC4zMjIsMTkuOTU5YzAuMDA3LDcuODAyLDIuNzgzLDE0LjQ3NSw4LjMyMiwyMC4wMTdjNS41MjIsNS41MTksMTIuMTc2LDguMjczLDE5Ljk2LDguMjYyICAgICAgYzcuODA2LDAuMDEyLDE0LjQ3OC0yLjc0MywyMC4wMjEtOC4yNjJjNS41MTktNS41NDIsOC4yNzQtMTIuMjE1LDguMjYzLTIwLjAxN2MwLjAxMi03Ljc4NC0yLjc0NC0xNC40MzgtOC4yNjMtMTkuOTU5ICAgICAgQzI3MC41OTMsMjU4LjA1NSwyNjMuOTIxLDI1NS4yODIsMjU2LjExNSwyNTUuMjcyeiBNMjc4Ljk4NiwxODkuMTcxaDEuMzM5YzEwLjI2OCwwLjI0MiwxOS4yMTEsMS44OSwyNi44MjgsNC45NDYgICAgICBjNy43NTksMy4xNCwxNC4xNCw3Ljc1NiwxOS4xNDYsMTMuODQ4aDkwLjA4NnYtMjYuMDY3Yy0xMS4wMjctMC4yMDktMjEuMjExLTAuNzE0LTMwLjU1Mi0xLjUxMyAgICAgIGMtNi42MzYtMC41NjktMTIuODQyLTEuMjg3LTE4LjYyMy0yLjE1NGMtMTYuNTEzLTIuNDMxLTI0Ljc3NS01LjM1OS0yNC43OTItOC43ODZjMC4wMTctMy40MDksOC4yNzktNi4zMzgsMjQuNzkyLTguNzg2ICAgICAgYzEzLjk1Ni0yLjAyLDMwLjM0OS0zLjE4NCw0OS4xNzUtMy40OTF2LTEuMjIyYy0wLjAxOC0xLjQzNiwwLjE5Ni0yLjc3MywwLjY0LTQuMDE2YzAuNTY1LTEuNzU4LDEuNTM2LTMuMzQ5LDIuOTA5LTQuNzcxICAgICAgYzIuNDEtMi4zOTQsNS4zMTktMy41NzgsOC43MjktMy41NWMzLjQ1MS0wLjAyOCw2LjQwMSwxLjE1Niw4Ljg0OCwzLjU1YzIuMzIzLDIuMzU1LDMuNTQ0LDUuMTY3LDMuNjY0LDguNDM3ICAgICAgYzAsMC4xMTYsMCwwLjIzMiwwLDAuMzUxdjEuMjIyYzYuMzkzLDAuMTc5LDEyLjUwMywwLjQ3LDE4LjMzMSwwLjg3M2M5Ljk1NSwwLjU1OCwxOS4wNTMsMS40MzEsMjcuMjk1LDIuNjE4ICAgICAgYzAuNDc0LDAuMDg5LDAuOTM5LDAuMTg2LDEuMzk2LDAuMjkxYzE1LjYyNiwyLjM3MiwyMy40NjIsNS4yMDMsMjMuNTEyLDguNDk1Yy0wLjA1LDMuMzMtNy44ODYsNi4xODEtMjMuNTEyLDguNTU0ICAgICAgYy0wLjQ1NywwLjA4NS0wLjkyMywwLjE2Mi0xLjM5NiwwLjIzMmMtMTMuMDUxLDEuOTYxLTI4LjI1OSwzLjE0NC00NS42MjYsMy41NXYyNi4xODVINDUyYzMuNDMxLDAuMDEyLDYuMzYsMS4yMzMsOC43ODgsMy42NjYgICAgICBjMi40MzMsMi40MDgsMy42NTUsNS4zMTgsMy42NjUsOC43MjljLTAuMDA3LDIuNDI3LTAuNjI4LDQuNTk5LTEuODYyLDYuNTE3Yy0yLjExNCwyLjgxMi01LjE4MSw0Ljc4OS05LjE5NSw1LjkzNSAgICAgIGMtMzMuOTg0LDguMTQ2LTY3Ljk3LDE2LjI5My0xMDEuOTU3LDI0LjQzOWwzOC45MzQsODEuNTgyYzAuMjI2LDAuNDAyLDAuNDM5LDAuODEyLDAuNjM5LDEuMjIxICAgICAgYzkuMzMyLDI2LjIzNSwyLjgzMyw0Ny4yNDItMTkuNDk1LDYzLjAxOWMtMi44MDgsMi4wMTQtNS44OSwyLjc1My05LjI1MiwyLjIxMmMtMy4zMjUtMC42MTYtNS45NjUtMi4zNDEtNy45MTUtNS4xODEgICAgICBjLTIuMDE3LTIuNzk4LTIuNzU2LTUuODgyLTIuMjEyLTkuMjUxYzAuNTg0LTMuMzQzLDIuMjczLTYsNS4wNjQtNy45NzFjMTIuMDE3LTguNjE3LDE1LjQ5LTIwLjA2MiwxMC40MTYtMzQuMzMxICAgICAgbC00MC45MTEtODUuMzYybC0xMC42NSwyLjYxOHY0Mi41MzRjMC4wMDUsMy4wMzUtMC43NTMsNS44NjctMi4yNjksOC40OTd2MC4wNTdjLTEuNTM0LDIuNjEzLTMuNjEsNC42NjktNi4yMjcsNi4xNjkgICAgICBsLTQyLjk0OCwyNC43Mjl2MC4wNmMtMi42NTUsMS41MDktNS40ODcsMi4yNjctOC40OTcsMi4yNjljLTMuMDIzLTAuMDI1LTUuODU2LTAuOC04LjQ5NS0yLjMyOGwtNDIuODktMjQuNzg5bC0wLjExOC0wLjA1NyAgICAgIGMtMi41ODUtMS41MzYtNC42MjEtMy42MTEtNi4xMS02LjIyNmMtMS41MTktMi42My0yLjI3My01LjQ0NC0yLjI2OS04LjQzOHYtNDIuNDc4bC0xMC43MDctMi42MThsLTQwLjkxMiw4NS4zNjIgICAgICBjLTUuMDczLDE0LjI3LTEuNjAzLDI1LjcxNCwxMC40MTYsMzQuMzMxYzIuNzkyLDEuOTcxLDQuNDgsNC42MjgsNS4wNjMsNy45NzFjMC41NDYsMy4zNjktMC4xOTMsNi40NTMtMi4yMDksOS4yNTEgICAgICBjLTEuOTUxLDIuODQtNC41OSw0LjU2NC03LjkxNiw1LjE4MWMtMy4zNjIsMC41NDEtNi40NDYtMC4xOTgtOS4yNTItMi4yMTJjLTIyLjMyOC0xNS43NzYtMjguODI3LTM2Ljc4My0xOS40OTUtNjMuMDE5ICAgICAgYzAuMi0wLjQwOSwwLjQxNC0wLjgxOCwwLjYzOS0xLjIyMWwzOC45MzQtODEuNTgyYy0zMy45ODctOC4xNDYtNjcuOTcyLTE2LjI5My0xMDEuOTU5LTI0LjQzOSAgICAgIGMtNC4wMTUtMS4xNDYtNy4wNzktMy4xMjMtOS4xOTMtNS45MzVjLTEuMjM0LTEuOTE4LTEuODU1LTQuMDktMS44NjQtNi41MTdjMC4wMTEtMy40MSwxLjIzMi02LjMyLDMuNjY3LTguNzI5ICAgICAgYzIuNDI4LTIuNDMzLDUuMzU4LTMuNjU0LDguNzg5LTMuNjY2aDEwLjgyM1YxODEuNzhjLTE3LjM2OC0wLjQwNi0zMi41NzYtMS41ODktNDUuNjI0LTMuNTUgICAgICBjLTAuNDczLTAuMDctMC45MzktMC4xNDctMS4zOTYtMC4yMzJjLTE1LjYyNi0yLjM3My0yMy40NjItNS4yMjQtMjMuNTEyLTguNTU0YzAuMDUtMy4yOTIsNy44ODYtNi4xMjMsMjMuNTEyLTguNDk1ICAgICAgYzAuNDU3LTAuMTA1LDAuOTIzLTAuMjAyLDEuMzk2LTAuMjkxYzguMjQzLTEuMTg4LDE3LjM0LTIuMDYxLDI3LjI5Mi0yLjYxOGM1LjgzMS0wLjQwMywxMS45NDEtMC42OTQsMTguMzMyLTAuODczdi0xLjIyMiAgICAgIGMwLTAuMTE4LDAtMC4yMzQsMC0wLjM1MWMwLjEyMy0zLjI3LDEuMzQ0LTYuMDgxLDMuNjY3LTguNDM3YzIuNDQ2LTIuMzk0LDUuMzk0LTMuNTc4LDguODQ1LTMuNTUgICAgICBjMy40MTMtMC4wMjgsNi4zMjIsMS4xNTYsOC43MjksMy41NWMxLjM3NSwxLjQyMywyLjM0NiwzLjAxNCwyLjkxLDQuNzcxYzAuNDQ2LDEuMjQyLDAuNjU5LDIuNTgsMC42NDEsNC4wMTZ2MS4yMjIgICAgICBjMTguODI3LDAuMzA4LDM1LjIyLDEuNDcyLDQ5LjE3NSwzLjQ5MWMxNi41MTMsMi40NDgsMjQuNzc2LDUuMzc3LDI0Ljc5Miw4Ljc4NmMtMC4wMTYsMy40MjctOC4yNzksNi4zNTUtMjQuNzkyLDguNzg2ICAgICAgYy01Ljc4MSwwLjg2Ny0xMS45ODksMS41ODUtMTguNjIyLDIuMTU0Yy05LjM0NCwwLjc5OS0xOS41MjcsMS4zMDQtMzAuNTUzLDEuNTEzdjI2LjA2N2g5MC4wODYgICAgICBjNS4wMDQtNi4wOTIsMTEuMzg3LTEwLjcwOCwxOS4xNDYtMTMuODQ4YzcuNjE4LTMuMDU3LDE2LjU2MS00LjcwNCwyNi44MjktNC45NDZoMS4zMzljMS4xNzMtMC4wMzksMi4zNzMtMC4wMzksMy42MDcsMGgzOC41MjQgICAgICBDMjc2LjYxLDE4OS4xMzIsMjc3LjgxMywxODkuMTMyLDI3OC45ODYsMTg5LjE3MXoiIGNsaXAtcnVsZT0iZXZlbm9kZCIvPiYjeGE7JiN4YTs8L2c+JiN4YTsmI3hhOzxnPiYjeGE7JiN4YTs8cGF0aCBmaWxsLXJ1bGU9ImV2ZW5vZGQiIGZpbGw9IiMzMzMzMzMiIGQ9Ik0yNTYuMDU4LDI2OS40MTNjMy45MDEsMC4wMTQsNy4yMzgsMS40MTEsMTAuMDEsNC4xODggICAgICBjMi43NiwyLjc1MSw0LjEzNyw2LjA2OSw0LjEzMyw5Ljk1MWMwLjAwNCwzLjkwMS0xLjM3Myw3LjIzNy00LjEzMywxMC4wMDljLTIuNzcxLDIuNzU5LTYuMTA4LDQuMTM3LTEwLjAxLDQuMTMgICAgICBjLTMuODgzLDAuMDA3LTcuMTk5LTEuMzcxLTkuOTUyLTQuMTNjLTIuNzgtMi43NzEtNC4xNzYtNi4xMDctNC4xODktMTAuMDA5YzAuMDE0LTMuODgyLDEuNDA5LTcuMiw0LjE4OS05Ljk1MSAgICAgIEMyNDguODU4LDI3MC44MjQsMjUyLjE3NSwyNjkuNDI3LDI1Ni4wNTgsMjY5LjQxM3oiIGNsaXAtcnVsZT0iZXZlbm9kZCIvPiYjeGE7JiN4YTs8L2c+JiN4YTsmI3hhOzwvZz4mI3hhOyYjeGE7PC9nPiYjeGE7JiN4YTs8L3N2Zz4=;" parent="V3z4afdnI8j49kzJQuYH-37" vertex="1">
          <mxGeometry x="35" y="31.12499999999997" width="34.41666666666667" height="17.616666666666667" as="geometry" />
        </mxCell>
        <mxCell id="V3z4afdnI8j49kzJQuYH-40" value="" style="shape=image;verticalLabelPosition=bottom;labelBackgroundColor=default;verticalAlign=top;aspect=fixed;imageAspect=0;editableCssRules=.*;image=data:image/svg+xml,PHN2ZyB4bWxuczp4bGluaz0iaHR0cDovL3d3dy53My5vcmcvMTk5OS94bGluayIgeG1sbnM9Imh0dHA6Ly93d3cudzMub3JnLzIwMDAvc3ZnIiB4bWw6c3BhY2U9InByZXNlcnZlIiB2ZXJzaW9uPSIxLjEiIGlkPSLQodC70L7QuV8xIiB2aWV3Qm94PSIwLjUyNTk4MzgxMDQyNDgwNDcgMTQzLjYwNjUyMTYwNjQ0NTMgNTExLjE4MzAxMzkxNjAxNTYgMjYxLjg1MjA1MDc4MTI1IiBoZWlnaHQ9IjQwOS4xNDM4MjkzNDU3MDMxIiB3aWR0aD0iNzk4LjcyMzQ1OTI0Mzc3NDQiPiYjeGE7JiN4YTs8Zz4mI3hhOyYjeGE7PGc+JiN4YTsmI3hhOzxnPiYjeGE7JiN4YTs8cGF0aCBmaWxsLXJ1bGU9ImV2ZW5vZGQiIGZpbGw9IiMzMzMzMzMiIGQ9Ik0yNTYuMTE1LDI1NS4yNzJjLTcuNzg0LDAuMDEtMTQuNDM4LDIuNzgyLTE5Ljk2LDguMzIxICAgICAgYy01LjUzOSw1LjUyMS04LjMxNSwxMi4xNzUtOC4zMjIsMTkuOTU5YzAuMDA3LDcuODAyLDIuNzgzLDE0LjQ3NSw4LjMyMiwyMC4wMTdjNS41MjIsNS41MTksMTIuMTc2LDguMjczLDE5Ljk2LDguMjYyICAgICAgYzcuODA2LDAuMDEyLDE0LjQ3OC0yLjc0MywyMC4wMjEtOC4yNjJjNS41MTktNS41NDIsOC4yNzQtMTIuMjE1LDguMjYzLTIwLjAxN2MwLjAxMi03Ljc4NC0yLjc0NC0xNC40MzgtOC4yNjMtMTkuOTU5ICAgICAgQzI3MC41OTMsMjU4LjA1NSwyNjMuOTIxLDI1NS4yODIsMjU2LjExNSwyNTUuMjcyeiBNMjc4Ljk4NiwxODkuMTcxaDEuMzM5YzEwLjI2OCwwLjI0MiwxOS4yMTEsMS44OSwyNi44MjgsNC45NDYgICAgICBjNy43NTksMy4xNCwxNC4xNCw3Ljc1NiwxOS4xNDYsMTMuODQ4aDkwLjA4NnYtMjYuMDY3Yy0xMS4wMjctMC4yMDktMjEuMjExLTAuNzE0LTMwLjU1Mi0xLjUxMyAgICAgIGMtNi42MzYtMC41NjktMTIuODQyLTEuMjg3LTE4LjYyMy0yLjE1NGMtMTYuNTEzLTIuNDMxLTI0Ljc3NS01LjM1OS0yNC43OTItOC43ODZjMC4wMTctMy40MDksOC4yNzktNi4zMzgsMjQuNzkyLTguNzg2ICAgICAgYzEzLjk1Ni0yLjAyLDMwLjM0OS0zLjE4NCw0OS4xNzUtMy40OTF2LTEuMjIyYy0wLjAxOC0xLjQzNiwwLjE5Ni0yLjc3MywwLjY0LTQuMDE2YzAuNTY1LTEuNzU4LDEuNTM2LTMuMzQ5LDIuOTA5LTQuNzcxICAgICAgYzIuNDEtMi4zOTQsNS4zMTktMy41NzgsOC43MjktMy41NWMzLjQ1MS0wLjAyOCw2LjQwMSwxLjE1Niw4Ljg0OCwzLjU1YzIuMzIzLDIuMzU1LDMuNTQ0LDUuMTY3LDMuNjY0LDguNDM3ICAgICAgYzAsMC4xMTYsMCwwLjIzMiwwLDAuMzUxdjEuMjIyYzYuMzkzLDAuMTc5LDEyLjUwMywwLjQ3LDE4LjMzMSwwLjg3M2M5Ljk1NSwwLjU1OCwxOS4wNTMsMS40MzEsMjcuMjk1LDIuNjE4ICAgICAgYzAuNDc0LDAuMDg5LDAuOTM5LDAuMTg2LDEuMzk2LDAuMjkxYzE1LjYyNiwyLjM3MiwyMy40NjIsNS4yMDMsMjMuNTEyLDguNDk1Yy0wLjA1LDMuMzMtNy44ODYsNi4xODEtMjMuNTEyLDguNTU0ICAgICAgYy0wLjQ1NywwLjA4NS0wLjkyMywwLjE2Mi0xLjM5NiwwLjIzMmMtMTMuMDUxLDEuOTYxLTI4LjI1OSwzLjE0NC00NS42MjYsMy41NXYyNi4xODVINDUyYzMuNDMxLDAuMDEyLDYuMzYsMS4yMzMsOC43ODgsMy42NjYgICAgICBjMi40MzMsMi40MDgsMy42NTUsNS4zMTgsMy42NjUsOC43MjljLTAuMDA3LDIuNDI3LTAuNjI4LDQuNTk5LTEuODYyLDYuNTE3Yy0yLjExNCwyLjgxMi01LjE4MSw0Ljc4OS05LjE5NSw1LjkzNSAgICAgIGMtMzMuOTg0LDguMTQ2LTY3Ljk3LDE2LjI5My0xMDEuOTU3LDI0LjQzOWwzOC45MzQsODEuNTgyYzAuMjI2LDAuNDAyLDAuNDM5LDAuODEyLDAuNjM5LDEuMjIxICAgICAgYzkuMzMyLDI2LjIzNSwyLjgzMyw0Ny4yNDItMTkuNDk1LDYzLjAxOWMtMi44MDgsMi4wMTQtNS44OSwyLjc1My05LjI1MiwyLjIxMmMtMy4zMjUtMC42MTYtNS45NjUtMi4zNDEtNy45MTUtNS4xODEgICAgICBjLTIuMDE3LTIuNzk4LTIuNzU2LTUuODgyLTIuMjEyLTkuMjUxYzAuNTg0LTMuMzQzLDIuMjczLTYsNS4wNjQtNy45NzFjMTIuMDE3LTguNjE3LDE1LjQ5LTIwLjA2MiwxMC40MTYtMzQuMzMxICAgICAgbC00MC45MTEtODUuMzYybC0xMC42NSwyLjYxOHY0Mi41MzRjMC4wMDUsMy4wMzUtMC43NTMsNS44NjctMi4yNjksOC40OTd2MC4wNTdjLTEuNTM0LDIuNjEzLTMuNjEsNC42NjktNi4yMjcsNi4xNjkgICAgICBsLTQyLjk0OCwyNC43Mjl2MC4wNmMtMi42NTUsMS41MDktNS40ODcsMi4yNjctOC40OTcsMi4yNjljLTMuMDIzLTAuMDI1LTUuODU2LTAuOC04LjQ5NS0yLjMyOGwtNDIuODktMjQuNzg5bC0wLjExOC0wLjA1NyAgICAgIGMtMi41ODUtMS41MzYtNC42MjEtMy42MTEtNi4xMS02LjIyNmMtMS41MTktMi42My0yLjI3My01LjQ0NC0yLjI2OS04LjQzOHYtNDIuNDc4bC0xMC43MDctMi42MThsLTQwLjkxMiw4NS4zNjIgICAgICBjLTUuMDczLDE0LjI3LTEuNjAzLDI1LjcxNCwxMC40MTYsMzQuMzMxYzIuNzkyLDEuOTcxLDQuNDgsNC42MjgsNS4wNjMsNy45NzFjMC41NDYsMy4zNjktMC4xOTMsNi40NTMtMi4yMDksOS4yNTEgICAgICBjLTEuOTUxLDIuODQtNC41OSw0LjU2NC03LjkxNiw1LjE4MWMtMy4zNjIsMC41NDEtNi40NDYtMC4xOTgtOS4yNTItMi4yMTJjLTIyLjMyOC0xNS43NzYtMjguODI3LTM2Ljc4My0xOS40OTUtNjMuMDE5ICAgICAgYzAuMi0wLjQwOSwwLjQxNC0wLjgxOCwwLjYzOS0xLjIyMWwzOC45MzQtODEuNTgyYy0zMy45ODctOC4xNDYtNjcuOTcyLTE2LjI5My0xMDEuOTU5LTI0LjQzOSAgICAgIGMtNC4wMTUtMS4xNDYtNy4wNzktMy4xMjMtOS4xOTMtNS45MzVjLTEuMjM0LTEuOTE4LTEuODU1LTQuMDktMS44NjQtNi41MTdjMC4wMTEtMy40MSwxLjIzMi02LjMyLDMuNjY3LTguNzI5ICAgICAgYzIuNDI4LTIuNDMzLDUuMzU4LTMuNjU0LDguNzg5LTMuNjY2aDEwLjgyM1YxODEuNzhjLTE3LjM2OC0wLjQwNi0zMi41NzYtMS41ODktNDUuNjI0LTMuNTUgICAgICBjLTAuNDczLTAuMDctMC45MzktMC4xNDctMS4zOTYtMC4yMzJjLTE1LjYyNi0yLjM3My0yMy40NjItNS4yMjQtMjMuNTEyLTguNTU0YzAuMDUtMy4yOTIsNy44ODYtNi4xMjMsMjMuNTEyLTguNDk1ICAgICAgYzAuNDU3LTAuMTA1LDAuOTIzLTAuMjAyLDEuMzk2LTAuMjkxYzguMjQzLTEuMTg4LDE3LjM0LTIuMDYxLDI3LjI5Mi0yLjYxOGM1LjgzMS0wLjQwMywxMS45NDEtMC42OTQsMTguMzMyLTAuODczdi0xLjIyMiAgICAgIGMwLTAuMTE4LDAtMC4yMzQsMC0wLjM1MWMwLjEyMy0zLjI3LDEuMzQ0LTYuMDgxLDMuNjY3LTguNDM3YzIuNDQ2LTIuMzk0LDUuMzk0LTMuNTc4LDguODQ1LTMuNTUgICAgICBjMy40MTMtMC4wMjgsNi4zMjIsMS4xNTYsOC43MjksMy41NWMxLjM3NSwxLjQyMywyLjM0NiwzLjAxNCwyLjkxLDQuNzcxYzAuNDQ2LDEuMjQyLDAuNjU5LDIuNTgsMC42NDEsNC4wMTZ2MS4yMjIgICAgICBjMTguODI3LDAuMzA4LDM1LjIyLDEuNDcyLDQ5LjE3NSwzLjQ5MWMxNi41MTMsMi40NDgsMjQuNzc2LDUuMzc3LDI0Ljc5Miw4Ljc4NmMtMC4wMTYsMy40MjctOC4yNzksNi4zNTUtMjQuNzkyLDguNzg2ICAgICAgYy01Ljc4MSwwLjg2Ny0xMS45ODksMS41ODUtMTguNjIyLDIuMTU0Yy05LjM0NCwwLjc5OS0xOS41MjcsMS4zMDQtMzAuNTUzLDEuNTEzdjI2LjA2N2g5MC4wODYgICAgICBjNS4wMDQtNi4wOTIsMTEuMzg3LTEwLjcwOCwxOS4xNDYtMTMuODQ4YzcuNjE4LTMuMDU3LDE2LjU2MS00LjcwNCwyNi44MjktNC45NDZoMS4zMzljMS4xNzMtMC4wMzksMi4zNzMtMC4wMzksMy42MDcsMGgzOC41MjQgICAgICBDMjc2LjYxLDE4OS4xMzIsMjc3LjgxMywxODkuMTMyLDI3OC45ODYsMTg5LjE3MXoiIGNsaXAtcnVsZT0iZXZlbm9kZCIvPiYjeGE7JiN4YTs8L2c+JiN4YTsmI3hhOzxnPiYjeGE7JiN4YTs8cGF0aCBmaWxsLXJ1bGU9ImV2ZW5vZGQiIGZpbGw9IiMzMzMzMzMiIGQ9Ik0yNTYuMDU4LDI2OS40MTNjMy45MDEsMC4wMTQsNy4yMzgsMS40MTEsMTAuMDEsNC4xODggICAgICBjMi43NiwyLjc1MSw0LjEzNyw2LjA2OSw0LjEzMyw5Ljk1MWMwLjAwNCwzLjkwMS0xLjM3Myw3LjIzNy00LjEzMywxMC4wMDljLTIuNzcxLDIuNzU5LTYuMTA4LDQuMTM3LTEwLjAxLDQuMTMgICAgICBjLTMuODgzLDAuMDA3LTcuMTk5LTEuMzcxLTkuOTUyLTQuMTNjLTIuNzgtMi43NzEtNC4xNzYtNi4xMDctNC4xODktMTAuMDA5YzAuMDE0LTMuODgyLDEuNDA5LTcuMiw0LjE4OS05Ljk1MSAgICAgIEMyNDguODU4LDI3MC44MjQsMjUyLjE3NSwyNjkuNDI3LDI1Ni4wNTgsMjY5LjQxM3oiIGNsaXAtcnVsZT0iZXZlbm9kZCIvPiYjeGE7JiN4YTs8L2c+JiN4YTsmI3hhOzwvZz4mI3hhOyYjeGE7PC9nPiYjeGE7JiN4YTs8L3N2Zz4=;" parent="V3z4afdnI8j49kzJQuYH-37" vertex="1">
          <mxGeometry x="46.66666666666667" y="25" width="34.41666666666667" height="17.616666666666667" as="geometry" />
        </mxCell>
        <mxCell id="V3z4afdnI8j49kzJQuYH-41" value="" style="shape=image;verticalLabelPosition=bottom;labelBackgroundColor=default;verticalAlign=top;aspect=fixed;imageAspect=0;editableCssRules=.*;image=data:image/svg+xml,PHN2ZyB4bWxuczp4bGluaz0iaHR0cDovL3d3dy53My5vcmcvMTk5OS94bGluayIgeG1sbnM9Imh0dHA6Ly93d3cudzMub3JnLzIwMDAvc3ZnIiB4bWw6c3BhY2U9InByZXNlcnZlIiB2ZXJzaW9uPSIxLjEiIGlkPSLQodC70L7QuV8xIiB2aWV3Qm94PSIwLjUyNTk4MzgxMDQyNDgwNDcgMTQzLjYwNjUyMTYwNjQ0NTMgNTExLjE4MzAxMzkxNjAxNTYgMjYxLjg1MjA1MDc4MTI1IiBoZWlnaHQ9IjQwOS4xNDM4MjkzNDU3MDMxIiB3aWR0aD0iNzk4LjcyMzQ1OTI0Mzc3NDQiPiYjeGE7JiN4YTs8Zz4mI3hhOyYjeGE7PGc+JiN4YTsmI3hhOzxnPiYjeGE7JiN4YTs8cGF0aCBmaWxsLXJ1bGU9ImV2ZW5vZGQiIGZpbGw9IiMzMzMzMzMiIGQ9Ik0yNTYuMTE1LDI1NS4yNzJjLTcuNzg0LDAuMDEtMTQuNDM4LDIuNzgyLTE5Ljk2LDguMzIxICAgICAgYy01LjUzOSw1LjUyMS04LjMxNSwxMi4xNzUtOC4zMjIsMTkuOTU5YzAuMDA3LDcuODAyLDIuNzgzLDE0LjQ3NSw4LjMyMiwyMC4wMTdjNS41MjIsNS41MTksMTIuMTc2LDguMjczLDE5Ljk2LDguMjYyICAgICAgYzcuODA2LDAuMDEyLDE0LjQ3OC0yLjc0MywyMC4wMjEtOC4yNjJjNS41MTktNS41NDIsOC4yNzQtMTIuMjE1LDguMjYzLTIwLjAxN2MwLjAxMi03Ljc4NC0yLjc0NC0xNC40MzgtOC4yNjMtMTkuOTU5ICAgICAgQzI3MC41OTMsMjU4LjA1NSwyNjMuOTIxLDI1NS4yODIsMjU2LjExNSwyNTUuMjcyeiBNMjc4Ljk4NiwxODkuMTcxaDEuMzM5YzEwLjI2OCwwLjI0MiwxOS4yMTEsMS44OSwyNi44MjgsNC45NDYgICAgICBjNy43NTksMy4xNCwxNC4xNCw3Ljc1NiwxOS4xNDYsMTMuODQ4aDkwLjA4NnYtMjYuMDY3Yy0xMS4wMjctMC4yMDktMjEuMjExLTAuNzE0LTMwLjU1Mi0xLjUxMyAgICAgIGMtNi42MzYtMC41NjktMTIuODQyLTEuMjg3LTE4LjYyMy0yLjE1NGMtMTYuNTEzLTIuNDMxLTI0Ljc3NS01LjM1OS0yNC43OTItOC43ODZjMC4wMTctMy40MDksOC4yNzktNi4zMzgsMjQuNzkyLTguNzg2ICAgICAgYzEzLjk1Ni0yLjAyLDMwLjM0OS0zLjE4NCw0OS4xNzUtMy40OTF2LTEuMjIyYy0wLjAxOC0xLjQzNiwwLjE5Ni0yLjc3MywwLjY0LTQuMDE2YzAuNTY1LTEuNzU4LDEuNTM2LTMuMzQ5LDIuOTA5LTQuNzcxICAgICAgYzIuNDEtMi4zOTQsNS4zMTktMy41NzgsOC43MjktMy41NWMzLjQ1MS0wLjAyOCw2LjQwMSwxLjE1Niw4Ljg0OCwzLjU1YzIuMzIzLDIuMzU1LDMuNTQ0LDUuMTY3LDMuNjY0LDguNDM3ICAgICAgYzAsMC4xMTYsMCwwLjIzMiwwLDAuMzUxdjEuMjIyYzYuMzkzLDAuMTc5LDEyLjUwMywwLjQ3LDE4LjMzMSwwLjg3M2M5Ljk1NSwwLjU1OCwxOS4wNTMsMS40MzEsMjcuMjk1LDIuNjE4ICAgICAgYzAuNDc0LDAuMDg5LDAuOTM5LDAuMTg2LDEuMzk2LDAuMjkxYzE1LjYyNiwyLjM3MiwyMy40NjIsNS4yMDMsMjMuNTEyLDguNDk1Yy0wLjA1LDMuMzMtNy44ODYsNi4xODEtMjMuNTEyLDguNTU0ICAgICAgYy0wLjQ1NywwLjA4NS0wLjkyMywwLjE2Mi0xLjM5NiwwLjIzMmMtMTMuMDUxLDEuOTYxLTI4LjI1OSwzLjE0NC00NS42MjYsMy41NXYyNi4xODVINDUyYzMuNDMxLDAuMDEyLDYuMzYsMS4yMzMsOC43ODgsMy42NjYgICAgICBjMi40MzMsMi40MDgsMy42NTUsNS4zMTgsMy42NjUsOC43MjljLTAuMDA3LDIuNDI3LTAuNjI4LDQuNTk5LTEuODYyLDYuNTE3Yy0yLjExNCwyLjgxMi01LjE4MSw0Ljc4OS05LjE5NSw1LjkzNSAgICAgIGMtMzMuOTg0LDguMTQ2LTY3Ljk3LDE2LjI5My0xMDEuOTU3LDI0LjQzOWwzOC45MzQsODEuNTgyYzAuMjI2LDAuNDAyLDAuNDM5LDAuODEyLDAuNjM5LDEuMjIxICAgICAgYzkuMzMyLDI2LjIzNSwyLjgzMyw0Ny4yNDItMTkuNDk1LDYzLjAxOWMtMi44MDgsMi4wMTQtNS44OSwyLjc1My05LjI1MiwyLjIxMmMtMy4zMjUtMC42MTYtNS45NjUtMi4zNDEtNy45MTUtNS4xODEgICAgICBjLTIuMDE3LTIuNzk4LTIuNzU2LTUuODgyLTIuMjEyLTkuMjUxYzAuNTg0LTMuMzQzLDIuMjczLTYsNS4wNjQtNy45NzFjMTIuMDE3LTguNjE3LDE1LjQ5LTIwLjA2MiwxMC40MTYtMzQuMzMxICAgICAgbC00MC45MTEtODUuMzYybC0xMC42NSwyLjYxOHY0Mi41MzRjMC4wMDUsMy4wMzUtMC43NTMsNS44NjctMi4yNjksOC40OTd2MC4wNTdjLTEuNTM0LDIuNjEzLTMuNjEsNC42NjktNi4yMjcsNi4xNjkgICAgICBsLTQyLjk0OCwyNC43Mjl2MC4wNmMtMi42NTUsMS41MDktNS40ODcsMi4yNjctOC40OTcsMi4yNjljLTMuMDIzLTAuMDI1LTUuODU2LTAuOC04LjQ5NS0yLjMyOGwtNDIuODktMjQuNzg5bC0wLjExOC0wLjA1NyAgICAgIGMtMi41ODUtMS41MzYtNC42MjEtMy42MTEtNi4xMS02LjIyNmMtMS41MTktMi42My0yLjI3My01LjQ0NC0yLjI2OS04LjQzOHYtNDIuNDc4bC0xMC43MDctMi42MThsLTQwLjkxMiw4NS4zNjIgICAgICBjLTUuMDczLDE0LjI3LTEuNjAzLDI1LjcxNCwxMC40MTYsMzQuMzMxYzIuNzkyLDEuOTcxLDQuNDgsNC42MjgsNS4wNjMsNy45NzFjMC41NDYsMy4zNjktMC4xOTMsNi40NTMtMi4yMDksOS4yNTEgICAgICBjLTEuOTUxLDIuODQtNC41OSw0LjU2NC03LjkxNiw1LjE4MWMtMy4zNjIsMC41NDEtNi40NDYtMC4xOTgtOS4yNTItMi4yMTJjLTIyLjMyOC0xNS43NzYtMjguODI3LTM2Ljc4My0xOS40OTUtNjMuMDE5ICAgICAgYzAuMi0wLjQwOSwwLjQxNC0wLjgxOCwwLjYzOS0xLjIyMWwzOC45MzQtODEuNTgyYy0zMy45ODctOC4xNDYtNjcuOTcyLTE2LjI5My0xMDEuOTU5LTI0LjQzOSAgICAgIGMtNC4wMTUtMS4xNDYtNy4wNzktMy4xMjMtOS4xOTMtNS45MzVjLTEuMjM0LTEuOTE4LTEuODU1LTQuMDktMS44NjQtNi41MTdjMC4wMTEtMy40MSwxLjIzMi02LjMyLDMuNjY3LTguNzI5ICAgICAgYzIuNDI4LTIuNDMzLDUuMzU4LTMuNjU0LDguNzg5LTMuNjY2aDEwLjgyM1YxODEuNzhjLTE3LjM2OC0wLjQwNi0zMi41NzYtMS41ODktNDUuNjI0LTMuNTUgICAgICBjLTAuNDczLTAuMDctMC45MzktMC4xNDctMS4zOTYtMC4yMzJjLTE1LjYyNi0yLjM3My0yMy40NjItNS4yMjQtMjMuNTEyLTguNTU0YzAuMDUtMy4yOTIsNy44ODYtNi4xMjMsMjMuNTEyLTguNDk1ICAgICAgYzAuNDU3LTAuMTA1LDAuOTIzLTAuMjAyLDEuMzk2LTAuMjkxYzguMjQzLTEuMTg4LDE3LjM0LTIuMDYxLDI3LjI5Mi0yLjYxOGM1LjgzMS0wLjQwMywxMS45NDEtMC42OTQsMTguMzMyLTAuODczdi0xLjIyMiAgICAgIGMwLTAuMTE4LDAtMC4yMzQsMC0wLjM1MWMwLjEyMy0zLjI3LDEuMzQ0LTYuMDgxLDMuNjY3LTguNDM3YzIuNDQ2LTIuMzk0LDUuMzk0LTMuNTc4LDguODQ1LTMuNTUgICAgICBjMy40MTMtMC4wMjgsNi4zMjIsMS4xNTYsOC43MjksMy41NWMxLjM3NSwxLjQyMywyLjM0NiwzLjAxNCwyLjkxLDQuNzcxYzAuNDQ2LDEuMjQyLDAuNjU5LDIuNTgsMC42NDEsNC4wMTZ2MS4yMjIgICAgICBjMTguODI3LDAuMzA4LDM1LjIyLDEuNDcyLDQ5LjE3NSwzLjQ5MWMxNi41MTMsMi40NDgsMjQuNzc2LDUuMzc3LDI0Ljc5Miw4Ljc4NmMtMC4wMTYsMy40MjctOC4yNzksNi4zNTUtMjQuNzkyLDguNzg2ICAgICAgYy01Ljc4MSwwLjg2Ny0xMS45ODksMS41ODUtMTguNjIyLDIuMTU0Yy05LjM0NCwwLjc5OS0xOS41MjcsMS4zMDQtMzAuNTUzLDEuNTEzdjI2LjA2N2g5MC4wODYgICAgICBjNS4wMDQtNi4wOTIsMTEuMzg3LTEwLjcwOCwxOS4xNDYtMTMuODQ4YzcuNjE4LTMuMDU3LDE2LjU2MS00LjcwNCwyNi44MjktNC45NDZoMS4zMzljMS4xNzMtMC4wMzksMi4zNzMtMC4wMzksMy42MDcsMGgzOC41MjQgICAgICBDMjc2LjYxLDE4OS4xMzIsMjc3LjgxMywxODkuMTMyLDI3OC45ODYsMTg5LjE3MXoiIGNsaXAtcnVsZT0iZXZlbm9kZCIvPiYjeGE7JiN4YTs8L2c+JiN4YTsmI3hhOzxnPiYjeGE7JiN4YTs8cGF0aCBmaWxsLXJ1bGU9ImV2ZW5vZGQiIGZpbGw9IiMzMzMzMzMiIGQ9Ik0yNTYuMDU4LDI2OS40MTNjMy45MDEsMC4wMTQsNy4yMzgsMS40MTEsMTAuMDEsNC4xODggICAgICBjMi43NiwyLjc1MSw0LjEzNyw2LjA2OSw0LjEzMyw5Ljk1MWMwLjAwNCwzLjkwMS0xLjM3Myw3LjIzNy00LjEzMywxMC4wMDljLTIuNzcxLDIuNzU5LTYuMTA4LDQuMTM3LTEwLjAxLDQuMTMgICAgICBjLTMuODgzLDAuMDA3LTcuMTk5LTEuMzcxLTkuOTUyLTQuMTNjLTIuNzgtMi43NzEtNC4xNzYtNi4xMDctNC4xODktMTAuMDA5YzAuMDE0LTMuODgyLDEuNDA5LTcuMiw0LjE4OS05Ljk1MSAgICAgIEMyNDguODU4LDI3MC44MjQsMjUyLjE3NSwyNjkuNDI3LDI1Ni4wNTgsMjY5LjQxM3oiIGNsaXAtcnVsZT0iZXZlbm9kZCIvPiYjeGE7JiN4YTs8L2c+JiN4YTsmI3hhOzwvZz4mI3hhOyYjeGE7PC9nPiYjeGE7JiN4YTs8L3N2Zz4=;" parent="V3z4afdnI8j49kzJQuYH-37" vertex="1">
          <mxGeometry x="69.41666666666667" y="24.750000000000014" width="34.41666666666667" height="17.616666666666667" as="geometry" />
        </mxCell>
        <mxCell id="V3z4afdnI8j49kzJQuYH-42" value="" style="shape=image;verticalLabelPosition=bottom;labelBackgroundColor=default;verticalAlign=top;aspect=fixed;imageAspect=0;editableCssRules=.*;image=data:image/svg+xml,PHN2ZyB4bWxuczp4bGluaz0iaHR0cDovL3d3dy53My5vcmcvMTk5OS94bGluayIgeG1sbnM9Imh0dHA6Ly93d3cudzMub3JnLzIwMDAvc3ZnIiB4bWw6c3BhY2U9InByZXNlcnZlIiB2ZXJzaW9uPSIxLjEiIGlkPSLQodC70L7QuV8xIiB2aWV3Qm94PSIwLjUyNTk4MzgxMDQyNDgwNDcgMTQzLjYwNjUyMTYwNjQ0NTMgNTExLjE4MzAxMzkxNjAxNTYgMjYxLjg1MjA1MDc4MTI1IiBoZWlnaHQ9IjQwOS4xNDM4MjkzNDU3MDMxIiB3aWR0aD0iNzk4LjcyMzQ1OTI0Mzc3NDQiPiYjeGE7JiN4YTs8Zz4mI3hhOyYjeGE7PGc+JiN4YTsmI3hhOzxnPiYjeGE7JiN4YTs8cGF0aCBmaWxsLXJ1bGU9ImV2ZW5vZGQiIGZpbGw9IiMzMzMzMzMiIGQ9Ik0yNTYuMTE1LDI1NS4yNzJjLTcuNzg0LDAuMDEtMTQuNDM4LDIuNzgyLTE5Ljk2LDguMzIxICAgICAgYy01LjUzOSw1LjUyMS04LjMxNSwxMi4xNzUtOC4zMjIsMTkuOTU5YzAuMDA3LDcuODAyLDIuNzgzLDE0LjQ3NSw4LjMyMiwyMC4wMTdjNS41MjIsNS41MTksMTIuMTc2LDguMjczLDE5Ljk2LDguMjYyICAgICAgYzcuODA2LDAuMDEyLDE0LjQ3OC0yLjc0MywyMC4wMjEtOC4yNjJjNS41MTktNS41NDIsOC4yNzQtMTIuMjE1LDguMjYzLTIwLjAxN2MwLjAxMi03Ljc4NC0yLjc0NC0xNC40MzgtOC4yNjMtMTkuOTU5ICAgICAgQzI3MC41OTMsMjU4LjA1NSwyNjMuOTIxLDI1NS4yODIsMjU2LjExNSwyNTUuMjcyeiBNMjc4Ljk4NiwxODkuMTcxaDEuMzM5YzEwLjI2OCwwLjI0MiwxOS4yMTEsMS44OSwyNi44MjgsNC45NDYgICAgICBjNy43NTksMy4xNCwxNC4xNCw3Ljc1NiwxOS4xNDYsMTMuODQ4aDkwLjA4NnYtMjYuMDY3Yy0xMS4wMjctMC4yMDktMjEuMjExLTAuNzE0LTMwLjU1Mi0xLjUxMyAgICAgIGMtNi42MzYtMC41NjktMTIuODQyLTEuMjg3LTE4LjYyMy0yLjE1NGMtMTYuNTEzLTIuNDMxLTI0Ljc3NS01LjM1OS0yNC43OTItOC43ODZjMC4wMTctMy40MDksOC4yNzktNi4zMzgsMjQuNzkyLTguNzg2ICAgICAgYzEzLjk1Ni0yLjAyLDMwLjM0OS0zLjE4NCw0OS4xNzUtMy40OTF2LTEuMjIyYy0wLjAxOC0xLjQzNiwwLjE5Ni0yLjc3MywwLjY0LTQuMDE2YzAuNTY1LTEuNzU4LDEuNTM2LTMuMzQ5LDIuOTA5LTQuNzcxICAgICAgYzIuNDEtMi4zOTQsNS4zMTktMy41NzgsOC43MjktMy41NWMzLjQ1MS0wLjAyOCw2LjQwMSwxLjE1Niw4Ljg0OCwzLjU1YzIuMzIzLDIuMzU1LDMuNTQ0LDUuMTY3LDMuNjY0LDguNDM3ICAgICAgYzAsMC4xMTYsMCwwLjIzMiwwLDAuMzUxdjEuMjIyYzYuMzkzLDAuMTc5LDEyLjUwMywwLjQ3LDE4LjMzMSwwLjg3M2M5Ljk1NSwwLjU1OCwxOS4wNTMsMS40MzEsMjcuMjk1LDIuNjE4ICAgICAgYzAuNDc0LDAuMDg5LDAuOTM5LDAuMTg2LDEuMzk2LDAuMjkxYzE1LjYyNiwyLjM3MiwyMy40NjIsNS4yMDMsMjMuNTEyLDguNDk1Yy0wLjA1LDMuMzMtNy44ODYsNi4xODEtMjMuNTEyLDguNTU0ICAgICAgYy0wLjQ1NywwLjA4NS0wLjkyMywwLjE2Mi0xLjM5NiwwLjIzMmMtMTMuMDUxLDEuOTYxLTI4LjI1OSwzLjE0NC00NS42MjYsMy41NXYyNi4xODVINDUyYzMuNDMxLDAuMDEyLDYuMzYsMS4yMzMsOC43ODgsMy42NjYgICAgICBjMi40MzMsMi40MDgsMy42NTUsNS4zMTgsMy42NjUsOC43MjljLTAuMDA3LDIuNDI3LTAuNjI4LDQuNTk5LTEuODYyLDYuNTE3Yy0yLjExNCwyLjgxMi01LjE4MSw0Ljc4OS05LjE5NSw1LjkzNSAgICAgIGMtMzMuOTg0LDguMTQ2LTY3Ljk3LDE2LjI5My0xMDEuOTU3LDI0LjQzOWwzOC45MzQsODEuNTgyYzAuMjI2LDAuNDAyLDAuNDM5LDAuODEyLDAuNjM5LDEuMjIxICAgICAgYzkuMzMyLDI2LjIzNSwyLjgzMyw0Ny4yNDItMTkuNDk1LDYzLjAxOWMtMi44MDgsMi4wMTQtNS44OSwyLjc1My05LjI1MiwyLjIxMmMtMy4zMjUtMC42MTYtNS45NjUtMi4zNDEtNy45MTUtNS4xODEgICAgICBjLTIuMDE3LTIuNzk4LTIuNzU2LTUuODgyLTIuMjEyLTkuMjUxYzAuNTg0LTMuMzQzLDIuMjczLTYsNS4wNjQtNy45NzFjMTIuMDE3LTguNjE3LDE1LjQ5LTIwLjA2MiwxMC40MTYtMzQuMzMxICAgICAgbC00MC45MTEtODUuMzYybC0xMC42NSwyLjYxOHY0Mi41MzRjMC4wMDUsMy4wMzUtMC43NTMsNS44NjctMi4yNjksOC40OTd2MC4wNTdjLTEuNTM0LDIuNjEzLTMuNjEsNC42NjktNi4yMjcsNi4xNjkgICAgICBsLTQyLjk0OCwyNC43Mjl2MC4wNmMtMi42NTUsMS41MDktNS40ODcsMi4yNjctOC40OTcsMi4yNjljLTMuMDIzLTAuMDI1LTUuODU2LTAuOC04LjQ5NS0yLjMyOGwtNDIuODktMjQuNzg5bC0wLjExOC0wLjA1NyAgICAgIGMtMi41ODUtMS41MzYtNC42MjEtMy42MTEtNi4xMS02LjIyNmMtMS41MTktMi42My0yLjI3My01LjQ0NC0yLjI2OS04LjQzOHYtNDIuNDc4bC0xMC43MDctMi42MThsLTQwLjkxMiw4NS4zNjIgICAgICBjLTUuMDczLDE0LjI3LTEuNjAzLDI1LjcxNCwxMC40MTYsMzQuMzMxYzIuNzkyLDEuOTcxLDQuNDgsNC42MjgsNS4wNjMsNy45NzFjMC41NDYsMy4zNjktMC4xOTMsNi40NTMtMi4yMDksOS4yNTEgICAgICBjLTEuOTUxLDIuODQtNC41OSw0LjU2NC03LjkxNiw1LjE4MWMtMy4zNjIsMC41NDEtNi40NDYtMC4xOTgtOS4yNTItMi4yMTJjLTIyLjMyOC0xNS43NzYtMjguODI3LTM2Ljc4My0xOS40OTUtNjMuMDE5ICAgICAgYzAuMi0wLjQwOSwwLjQxNC0wLjgxOCwwLjYzOS0xLjIyMWwzOC45MzQtODEuNTgyYy0zMy45ODctOC4xNDYtNjcuOTcyLTE2LjI5My0xMDEuOTU5LTI0LjQzOSAgICAgIGMtNC4wMTUtMS4xNDYtNy4wNzktMy4xMjMtOS4xOTMtNS45MzVjLTEuMjM0LTEuOTE4LTEuODU1LTQuMDktMS44NjQtNi41MTdjMC4wMTEtMy40MSwxLjIzMi02LjMyLDMuNjY3LTguNzI5ICAgICAgYzIuNDI4LTIuNDMzLDUuMzU4LTMuNjU0LDguNzg5LTMuNjY2aDEwLjgyM1YxODEuNzhjLTE3LjM2OC0wLjQwNi0zMi41NzYtMS41ODktNDUuNjI0LTMuNTUgICAgICBjLTAuNDczLTAuMDctMC45MzktMC4xNDctMS4zOTYtMC4yMzJjLTE1LjYyNi0yLjM3My0yMy40NjItNS4yMjQtMjMuNTEyLTguNTU0YzAuMDUtMy4yOTIsNy44ODYtNi4xMjMsMjMuNTEyLTguNDk1ICAgICAgYzAuNDU3LTAuMTA1LDAuOTIzLTAuMjAyLDEuMzk2LTAuMjkxYzguMjQzLTEuMTg4LDE3LjM0LTIuMDYxLDI3LjI5Mi0yLjYxOGM1LjgzMS0wLjQwMywxMS45NDEtMC42OTQsMTguMzMyLTAuODczdi0xLjIyMiAgICAgIGMwLTAuMTE4LDAtMC4yMzQsMC0wLjM1MWMwLjEyMy0zLjI3LDEuMzQ0LTYuMDgxLDMuNjY3LTguNDM3YzIuNDQ2LTIuMzk0LDUuMzk0LTMuNTc4LDguODQ1LTMuNTUgICAgICBjMy40MTMtMC4wMjgsNi4zMjIsMS4xNTYsOC43MjksMy41NWMxLjM3NSwxLjQyMywyLjM0NiwzLjAxNCwyLjkxLDQuNzcxYzAuNDQ2LDEuMjQyLDAuNjU5LDIuNTgsMC42NDEsNC4wMTZ2MS4yMjIgICAgICBjMTguODI3LDAuMzA4LDM1LjIyLDEuNDcyLDQ5LjE3NSwzLjQ5MWMxNi41MTMsMi40NDgsMjQuNzc2LDUuMzc3LDI0Ljc5Miw4Ljc4NmMtMC4wMTYsMy40MjctOC4yNzksNi4zNTUtMjQuNzkyLDguNzg2ICAgICAgYy01Ljc4MSwwLjg2Ny0xMS45ODksMS41ODUtMTguNjIyLDIuMTU0Yy05LjM0NCwwLjc5OS0xOS41MjcsMS4zMDQtMzAuNTUzLDEuNTEzdjI2LjA2N2g5MC4wODYgICAgICBjNS4wMDQtNi4wOTIsMTEuMzg3LTEwLjcwOCwxOS4xNDYtMTMuODQ4YzcuNjE4LTMuMDU3LDE2LjU2MS00LjcwNCwyNi44MjktNC45NDZoMS4zMzljMS4xNzMtMC4wMzksMi4zNzMtMC4wMzksMy42MDcsMGgzOC41MjQgICAgICBDMjc2LjYxLDE4OS4xMzIsMjc3LjgxMywxODkuMTMyLDI3OC45ODYsMTg5LjE3MXoiIGNsaXAtcnVsZT0iZXZlbm9kZCIvPiYjeGE7JiN4YTs8L2c+JiN4YTsmI3hhOzxnPiYjeGE7JiN4YTs8cGF0aCBmaWxsLXJ1bGU9ImV2ZW5vZGQiIGZpbGw9IiMzMzMzMzMiIGQ9Ik0yNTYuMDU4LDI2OS40MTNjMy45MDEsMC4wMTQsNy4yMzgsMS40MTEsMTAuMDEsNC4xODggICAgICBjMi43NiwyLjc1MSw0LjEzNyw2LjA2OSw0LjEzMyw5Ljk1MWMwLjAwNCwzLjkwMS0xLjM3Myw3LjIzNy00LjEzMywxMC4wMDljLTIuNzcxLDIuNzU5LTYuMTA4LDQuMTM3LTEwLjAxLDQuMTMgICAgICBjLTMuODgzLDAuMDA3LTcuMTk5LTEuMzcxLTkuOTUyLTQuMTNjLTIuNzgtMi43NzEtNC4xNzYtNi4xMDctNC4xODktMTAuMDA5YzAuMDE0LTMuODgyLDEuNDA5LTcuMiw0LjE4OS05Ljk1MSAgICAgIEMyNDguODU4LDI3MC44MjQsMjUyLjE3NSwyNjkuNDI3LDI1Ni4wNTgsMjY5LjQxM3oiIGNsaXAtcnVsZT0iZXZlbm9kZCIvPiYjeGE7JiN4YTs8L2c+JiN4YTsmI3hhOzwvZz4mI3hhOyYjeGE7PC9nPiYjeGE7JiN4YTs8L3N2Zz4=;" parent="V3z4afdnI8j49kzJQuYH-37" vertex="1">
          <mxGeometry x="58.333333333333336" y="62.5" width="34.41666666666667" height="17.616666666666667" as="geometry" />
        </mxCell>
        <mxCell id="V3z4afdnI8j49kzJQuYH-43" value="" style="shape=image;verticalLabelPosition=bottom;labelBackgroundColor=default;verticalAlign=top;aspect=fixed;imageAspect=0;editableCssRules=.*;image=data:image/svg+xml,PHN2ZyB4bWxuczp4bGluaz0iaHR0cDovL3d3dy53My5vcmcvMTk5OS94bGluayIgeG1sbnM9Imh0dHA6Ly93d3cudzMub3JnLzIwMDAvc3ZnIiB4bWw6c3BhY2U9InByZXNlcnZlIiB2ZXJzaW9uPSIxLjEiIGlkPSLQodC70L7QuV8xIiB2aWV3Qm94PSIwLjUyNTk4MzgxMDQyNDgwNDcgMTQzLjYwNjUyMTYwNjQ0NTMgNTExLjE4MzAxMzkxNjAxNTYgMjYxLjg1MjA1MDc4MTI1IiBoZWlnaHQ9IjQwOS4xNDM4MjkzNDU3MDMxIiB3aWR0aD0iNzk4LjcyMzQ1OTI0Mzc3NDQiPiYjeGE7JiN4YTs8Zz4mI3hhOyYjeGE7PGc+JiN4YTsmI3hhOzxnPiYjeGE7JiN4YTs8cGF0aCBmaWxsLXJ1bGU9ImV2ZW5vZGQiIGZpbGw9IiMzMzMzMzMiIGQ9Ik0yNTYuMTE1LDI1NS4yNzJjLTcuNzg0LDAuMDEtMTQuNDM4LDIuNzgyLTE5Ljk2LDguMzIxICAgICAgYy01LjUzOSw1LjUyMS04LjMxNSwxMi4xNzUtOC4zMjIsMTkuOTU5YzAuMDA3LDcuODAyLDIuNzgzLDE0LjQ3NSw4LjMyMiwyMC4wMTdjNS41MjIsNS41MTksMTIuMTc2LDguMjczLDE5Ljk2LDguMjYyICAgICAgYzcuODA2LDAuMDEyLDE0LjQ3OC0yLjc0MywyMC4wMjEtOC4yNjJjNS41MTktNS41NDIsOC4yNzQtMTIuMjE1LDguMjYzLTIwLjAxN2MwLjAxMi03Ljc4NC0yLjc0NC0xNC40MzgtOC4yNjMtMTkuOTU5ICAgICAgQzI3MC41OTMsMjU4LjA1NSwyNjMuOTIxLDI1NS4yODIsMjU2LjExNSwyNTUuMjcyeiBNMjc4Ljk4NiwxODkuMTcxaDEuMzM5YzEwLjI2OCwwLjI0MiwxOS4yMTEsMS44OSwyNi44MjgsNC45NDYgICAgICBjNy43NTksMy4xNCwxNC4xNCw3Ljc1NiwxOS4xNDYsMTMuODQ4aDkwLjA4NnYtMjYuMDY3Yy0xMS4wMjctMC4yMDktMjEuMjExLTAuNzE0LTMwLjU1Mi0xLjUxMyAgICAgIGMtNi42MzYtMC41NjktMTIuODQyLTEuMjg3LTE4LjYyMy0yLjE1NGMtMTYuNTEzLTIuNDMxLTI0Ljc3NS01LjM1OS0yNC43OTItOC43ODZjMC4wMTctMy40MDksOC4yNzktNi4zMzgsMjQuNzkyLTguNzg2ICAgICAgYzEzLjk1Ni0yLjAyLDMwLjM0OS0zLjE4NCw0OS4xNzUtMy40OTF2LTEuMjIyYy0wLjAxOC0xLjQzNiwwLjE5Ni0yLjc3MywwLjY0LTQuMDE2YzAuNTY1LTEuNzU4LDEuNTM2LTMuMzQ5LDIuOTA5LTQuNzcxICAgICAgYzIuNDEtMi4zOTQsNS4zMTktMy41NzgsOC43MjktMy41NWMzLjQ1MS0wLjAyOCw2LjQwMSwxLjE1Niw4Ljg0OCwzLjU1YzIuMzIzLDIuMzU1LDMuNTQ0LDUuMTY3LDMuNjY0LDguNDM3ICAgICAgYzAsMC4xMTYsMCwwLjIzMiwwLDAuMzUxdjEuMjIyYzYuMzkzLDAuMTc5LDEyLjUwMywwLjQ3LDE4LjMzMSwwLjg3M2M5Ljk1NSwwLjU1OCwxOS4wNTMsMS40MzEsMjcuMjk1LDIuNjE4ICAgICAgYzAuNDc0LDAuMDg5LDAuOTM5LDAuMTg2LDEuMzk2LDAuMjkxYzE1LjYyNiwyLjM3MiwyMy40NjIsNS4yMDMsMjMuNTEyLDguNDk1Yy0wLjA1LDMuMzMtNy44ODYsNi4xODEtMjMuNTEyLDguNTU0ICAgICAgYy0wLjQ1NywwLjA4NS0wLjkyMywwLjE2Mi0xLjM5NiwwLjIzMmMtMTMuMDUxLDEuOTYxLTI4LjI1OSwzLjE0NC00NS42MjYsMy41NXYyNi4xODVINDUyYzMuNDMxLDAuMDEyLDYuMzYsMS4yMzMsOC43ODgsMy42NjYgICAgICBjMi40MzMsMi40MDgsMy42NTUsNS4zMTgsMy42NjUsOC43MjljLTAuMDA3LDIuNDI3LTAuNjI4LDQuNTk5LTEuODYyLDYuNTE3Yy0yLjExNCwyLjgxMi01LjE4MSw0Ljc4OS05LjE5NSw1LjkzNSAgICAgIGMtMzMuOTg0LDguMTQ2LTY3Ljk3LDE2LjI5My0xMDEuOTU3LDI0LjQzOWwzOC45MzQsODEuNTgyYzAuMjI2LDAuNDAyLDAuNDM5LDAuODEyLDAuNjM5LDEuMjIxICAgICAgYzkuMzMyLDI2LjIzNSwyLjgzMyw0Ny4yNDItMTkuNDk1LDYzLjAxOWMtMi44MDgsMi4wMTQtNS44OSwyLjc1My05LjI1MiwyLjIxMmMtMy4zMjUtMC42MTYtNS45NjUtMi4zNDEtNy45MTUtNS4xODEgICAgICBjLTIuMDE3LTIuNzk4LTIuNzU2LTUuODgyLTIuMjEyLTkuMjUxYzAuNTg0LTMuMzQzLDIuMjczLTYsNS4wNjQtNy45NzFjMTIuMDE3LTguNjE3LDE1LjQ5LTIwLjA2MiwxMC40MTYtMzQuMzMxICAgICAgbC00MC45MTEtODUuMzYybC0xMC42NSwyLjYxOHY0Mi41MzRjMC4wMDUsMy4wMzUtMC43NTMsNS44NjctMi4yNjksOC40OTd2MC4wNTdjLTEuNTM0LDIuNjEzLTMuNjEsNC42NjktNi4yMjcsNi4xNjkgICAgICBsLTQyLjk0OCwyNC43Mjl2MC4wNmMtMi42NTUsMS41MDktNS40ODcsMi4yNjctOC40OTcsMi4yNjljLTMuMDIzLTAuMDI1LTUuODU2LTAuOC04LjQ5NS0yLjMyOGwtNDIuODktMjQuNzg5bC0wLjExOC0wLjA1NyAgICAgIGMtMi41ODUtMS41MzYtNC42MjEtMy42MTEtNi4xMS02LjIyNmMtMS41MTktMi42My0yLjI3My01LjQ0NC0yLjI2OS04LjQzOHYtNDIuNDc4bC0xMC43MDctMi42MThsLTQwLjkxMiw4NS4zNjIgICAgICBjLTUuMDczLDE0LjI3LTEuNjAzLDI1LjcxNCwxMC40MTYsMzQuMzMxYzIuNzkyLDEuOTcxLDQuNDgsNC42MjgsNS4wNjMsNy45NzFjMC41NDYsMy4zNjktMC4xOTMsNi40NTMtMi4yMDksOS4yNTEgICAgICBjLTEuOTUxLDIuODQtNC41OSw0LjU2NC03LjkxNiw1LjE4MWMtMy4zNjIsMC41NDEtNi40NDYtMC4xOTgtOS4yNTItMi4yMTJjLTIyLjMyOC0xNS43NzYtMjguODI3LTM2Ljc4My0xOS40OTUtNjMuMDE5ICAgICAgYzAuMi0wLjQwOSwwLjQxNC0wLjgxOCwwLjYzOS0xLjIyMWwzOC45MzQtODEuNTgyYy0zMy45ODctOC4xNDYtNjcuOTcyLTE2LjI5My0xMDEuOTU5LTI0LjQzOSAgICAgIGMtNC4wMTUtMS4xNDYtNy4wNzktMy4xMjMtOS4xOTMtNS45MzVjLTEuMjM0LTEuOTE4LTEuODU1LTQuMDktMS44NjQtNi41MTdjMC4wMTEtMy40MSwxLjIzMi02LjMyLDMuNjY3LTguNzI5ICAgICAgYzIuNDI4LTIuNDMzLDUuMzU4LTMuNjU0LDguNzg5LTMuNjY2aDEwLjgyM1YxODEuNzhjLTE3LjM2OC0wLjQwNi0zMi41NzYtMS41ODktNDUuNjI0LTMuNTUgICAgICBjLTAuNDczLTAuMDctMC45MzktMC4xNDctMS4zOTYtMC4yMzJjLTE1LjYyNi0yLjM3My0yMy40NjItNS4yMjQtMjMuNTEyLTguNTU0YzAuMDUtMy4yOTIsNy44ODYtNi4xMjMsMjMuNTEyLTguNDk1ICAgICAgYzAuNDU3LTAuMTA1LDAuOTIzLTAuMjAyLDEuMzk2LTAuMjkxYzguMjQzLTEuMTg4LDE3LjM0LTIuMDYxLDI3LjI5Mi0yLjYxOGM1LjgzMS0wLjQwMywxMS45NDEtMC42OTQsMTguMzMyLTAuODczdi0xLjIyMiAgICAgIGMwLTAuMTE4LDAtMC4yMzQsMC0wLjM1MWMwLjEyMy0zLjI3LDEuMzQ0LTYuMDgxLDMuNjY3LTguNDM3YzIuNDQ2LTIuMzk0LDUuMzk0LTMuNTc4LDguODQ1LTMuNTUgICAgICBjMy40MTMtMC4wMjgsNi4zMjIsMS4xNTYsOC43MjksMy41NWMxLjM3NSwxLjQyMywyLjM0NiwzLjAxNCwyLjkxLDQuNzcxYzAuNDQ2LDEuMjQyLDAuNjU5LDIuNTgsMC42NDEsNC4wMTZ2MS4yMjIgICAgICBjMTguODI3LDAuMzA4LDM1LjIyLDEuNDcyLDQ5LjE3NSwzLjQ5MWMxNi41MTMsMi40NDgsMjQuNzc2LDUuMzc3LDI0Ljc5Miw4Ljc4NmMtMC4wMTYsMy40MjctOC4yNzksNi4zNTUtMjQuNzkyLDguNzg2ICAgICAgYy01Ljc4MSwwLjg2Ny0xMS45ODksMS41ODUtMTguNjIyLDIuMTU0Yy05LjM0NCwwLjc5OS0xOS41MjcsMS4zMDQtMzAuNTUzLDEuNTEzdjI2LjA2N2g5MC4wODYgICAgICBjNS4wMDQtNi4wOTIsMTEuMzg3LTEwLjcwOCwxOS4xNDYtMTMuODQ4YzcuNjE4LTMuMDU3LDE2LjU2MS00LjcwNCwyNi44MjktNC45NDZoMS4zMzljMS4xNzMtMC4wMzksMi4zNzMtMC4wMzksMy42MDcsMGgzOC41MjQgICAgICBDMjc2LjYxLDE4OS4xMzIsMjc3LjgxMywxODkuMTMyLDI3OC45ODYsMTg5LjE3MXoiIGNsaXAtcnVsZT0iZXZlbm9kZCIvPiYjeGE7JiN4YTs8L2c+JiN4YTsmI3hhOzxnPiYjeGE7JiN4YTs8cGF0aCBmaWxsLXJ1bGU9ImV2ZW5vZGQiIGZpbGw9IiMzMzMzMzMiIGQ9Ik0yNTYuMDU4LDI2OS40MTNjMy45MDEsMC4wMTQsNy4yMzgsMS40MTEsMTAuMDEsNC4xODggICAgICBjMi43NiwyLjc1MSw0LjEzNyw2LjA2OSw0LjEzMyw5Ljk1MWMwLjAwNCwzLjkwMS0xLjM3Myw3LjIzNy00LjEzMywxMC4wMDljLTIuNzcxLDIuNzU5LTYuMTA4LDQuMTM3LTEwLjAxLDQuMTMgICAgICBjLTMuODgzLDAuMDA3LTcuMTk5LTEuMzcxLTkuOTUyLTQuMTNjLTIuNzgtMi43NzEtNC4xNzYtNi4xMDctNC4xODktMTAuMDA5YzAuMDE0LTMuODgyLDEuNDA5LTcuMiw0LjE4OS05Ljk1MSAgICAgIEMyNDguODU4LDI3MC44MjQsMjUyLjE3NSwyNjkuNDI3LDI1Ni4wNTgsMjY5LjQxM3oiIGNsaXAtcnVsZT0iZXZlbm9kZCIvPiYjeGE7JiN4YTs8L2c+JiN4YTsmI3hhOzwvZz4mI3hhOyYjeGE7PC9nPiYjeGE7JiN4YTs8L3N2Zz4=;" parent="V3z4afdnI8j49kzJQuYH-37" vertex="1">
          <mxGeometry x="35" y="50" width="34.41666666666667" height="17.616666666666667" as="geometry" />
        </mxCell>
        <mxCell id="V3z4afdnI8j49kzJQuYH-44" value="" style="shape=image;verticalLabelPosition=bottom;labelBackgroundColor=default;verticalAlign=top;aspect=fixed;imageAspect=0;editableCssRules=.*;image=data:image/svg+xml,PHN2ZyB4bWxuczp4bGluaz0iaHR0cDovL3d3dy53My5vcmcvMTk5OS94bGluayIgeG1sbnM9Imh0dHA6Ly93d3cudzMub3JnLzIwMDAvc3ZnIiB4bWw6c3BhY2U9InByZXNlcnZlIiB2ZXJzaW9uPSIxLjEiIGlkPSLQodC70L7QuV8xIiB2aWV3Qm94PSIwLjUyNTk4MzgxMDQyNDgwNDcgMTQzLjYwNjUyMTYwNjQ0NTMgNTExLjE4MzAxMzkxNjAxNTYgMjYxLjg1MjA1MDc4MTI1IiBoZWlnaHQ9IjQwOS4xNDM4MjkzNDU3MDMxIiB3aWR0aD0iNzk4LjcyMzQ1OTI0Mzc3NDQiPiYjeGE7JiN4YTs8Zz4mI3hhOyYjeGE7PGc+JiN4YTsmI3hhOzxnPiYjeGE7JiN4YTs8cGF0aCBmaWxsLXJ1bGU9ImV2ZW5vZGQiIGZpbGw9IiMzMzMzMzMiIGQ9Ik0yNTYuMTE1LDI1NS4yNzJjLTcuNzg0LDAuMDEtMTQuNDM4LDIuNzgyLTE5Ljk2LDguMzIxICAgICAgYy01LjUzOSw1LjUyMS04LjMxNSwxMi4xNzUtOC4zMjIsMTkuOTU5YzAuMDA3LDcuODAyLDIuNzgzLDE0LjQ3NSw4LjMyMiwyMC4wMTdjNS41MjIsNS41MTksMTIuMTc2LDguMjczLDE5Ljk2LDguMjYyICAgICAgYzcuODA2LDAuMDEyLDE0LjQ3OC0yLjc0MywyMC4wMjEtOC4yNjJjNS41MTktNS41NDIsOC4yNzQtMTIuMjE1LDguMjYzLTIwLjAxN2MwLjAxMi03Ljc4NC0yLjc0NC0xNC40MzgtOC4yNjMtMTkuOTU5ICAgICAgQzI3MC41OTMsMjU4LjA1NSwyNjMuOTIxLDI1NS4yODIsMjU2LjExNSwyNTUuMjcyeiBNMjc4Ljk4NiwxODkuMTcxaDEuMzM5YzEwLjI2OCwwLjI0MiwxOS4yMTEsMS44OSwyNi44MjgsNC45NDYgICAgICBjNy43NTksMy4xNCwxNC4xNCw3Ljc1NiwxOS4xNDYsMTMuODQ4aDkwLjA4NnYtMjYuMDY3Yy0xMS4wMjctMC4yMDktMjEuMjExLTAuNzE0LTMwLjU1Mi0xLjUxMyAgICAgIGMtNi42MzYtMC41NjktMTIuODQyLTEuMjg3LTE4LjYyMy0yLjE1NGMtMTYuNTEzLTIuNDMxLTI0Ljc3NS01LjM1OS0yNC43OTItOC43ODZjMC4wMTctMy40MDksOC4yNzktNi4zMzgsMjQuNzkyLTguNzg2ICAgICAgYzEzLjk1Ni0yLjAyLDMwLjM0OS0zLjE4NCw0OS4xNzUtMy40OTF2LTEuMjIyYy0wLjAxOC0xLjQzNiwwLjE5Ni0yLjc3MywwLjY0LTQuMDE2YzAuNTY1LTEuNzU4LDEuNTM2LTMuMzQ5LDIuOTA5LTQuNzcxICAgICAgYzIuNDEtMi4zOTQsNS4zMTktMy41NzgsOC43MjktMy41NWMzLjQ1MS0wLjAyOCw2LjQwMSwxLjE1Niw4Ljg0OCwzLjU1YzIuMzIzLDIuMzU1LDMuNTQ0LDUuMTY3LDMuNjY0LDguNDM3ICAgICAgYzAsMC4xMTYsMCwwLjIzMiwwLDAuMzUxdjEuMjIyYzYuMzkzLDAuMTc5LDEyLjUwMywwLjQ3LDE4LjMzMSwwLjg3M2M5Ljk1NSwwLjU1OCwxOS4wNTMsMS40MzEsMjcuMjk1LDIuNjE4ICAgICAgYzAuNDc0LDAuMDg5LDAuOTM5LDAuMTg2LDEuMzk2LDAuMjkxYzE1LjYyNiwyLjM3MiwyMy40NjIsNS4yMDMsMjMuNTEyLDguNDk1Yy0wLjA1LDMuMzMtNy44ODYsNi4xODEtMjMuNTEyLDguNTU0ICAgICAgYy0wLjQ1NywwLjA4NS0wLjkyMywwLjE2Mi0xLjM5NiwwLjIzMmMtMTMuMDUxLDEuOTYxLTI4LjI1OSwzLjE0NC00NS42MjYsMy41NXYyNi4xODVINDUyYzMuNDMxLDAuMDEyLDYuMzYsMS4yMzMsOC43ODgsMy42NjYgICAgICBjMi40MzMsMi40MDgsMy42NTUsNS4zMTgsMy42NjUsOC43MjljLTAuMDA3LDIuNDI3LTAuNjI4LDQuNTk5LTEuODYyLDYuNTE3Yy0yLjExNCwyLjgxMi01LjE4MSw0Ljc4OS05LjE5NSw1LjkzNSAgICAgIGMtMzMuOTg0LDguMTQ2LTY3Ljk3LDE2LjI5My0xMDEuOTU3LDI0LjQzOWwzOC45MzQsODEuNTgyYzAuMjI2LDAuNDAyLDAuNDM5LDAuODEyLDAuNjM5LDEuMjIxICAgICAgYzkuMzMyLDI2LjIzNSwyLjgzMyw0Ny4yNDItMTkuNDk1LDYzLjAxOWMtMi44MDgsMi4wMTQtNS44OSwyLjc1My05LjI1MiwyLjIxMmMtMy4zMjUtMC42MTYtNS45NjUtMi4zNDEtNy45MTUtNS4xODEgICAgICBjLTIuMDE3LTIuNzk4LTIuNzU2LTUuODgyLTIuMjEyLTkuMjUxYzAuNTg0LTMuMzQzLDIuMjczLTYsNS4wNjQtNy45NzFjMTIuMDE3LTguNjE3LDE1LjQ5LTIwLjA2MiwxMC40MTYtMzQuMzMxICAgICAgbC00MC45MTEtODUuMzYybC0xMC42NSwyLjYxOHY0Mi41MzRjMC4wMDUsMy4wMzUtMC43NTMsNS44NjctMi4yNjksOC40OTd2MC4wNTdjLTEuNTM0LDIuNjEzLTMuNjEsNC42NjktNi4yMjcsNi4xNjkgICAgICBsLTQyLjk0OCwyNC43Mjl2MC4wNmMtMi42NTUsMS41MDktNS40ODcsMi4yNjctOC40OTcsMi4yNjljLTMuMDIzLTAuMDI1LTUuODU2LTAuOC04LjQ5NS0yLjMyOGwtNDIuODktMjQuNzg5bC0wLjExOC0wLjA1NyAgICAgIGMtMi41ODUtMS41MzYtNC42MjEtMy42MTEtNi4xMS02LjIyNmMtMS41MTktMi42My0yLjI3My01LjQ0NC0yLjI2OS04LjQzOHYtNDIuNDc4bC0xMC43MDctMi42MThsLTQwLjkxMiw4NS4zNjIgICAgICBjLTUuMDczLDE0LjI3LTEuNjAzLDI1LjcxNCwxMC40MTYsMzQuMzMxYzIuNzkyLDEuOTcxLDQuNDgsNC42MjgsNS4wNjMsNy45NzFjMC41NDYsMy4zNjktMC4xOTMsNi40NTMtMi4yMDksOS4yNTEgICAgICBjLTEuOTUxLDIuODQtNC41OSw0LjU2NC03LjkxNiw1LjE4MWMtMy4zNjIsMC41NDEtNi40NDYtMC4xOTgtOS4yNTItMi4yMTJjLTIyLjMyOC0xNS43NzYtMjguODI3LTM2Ljc4My0xOS40OTUtNjMuMDE5ICAgICAgYzAuMi0wLjQwOSwwLjQxNC0wLjgxOCwwLjYzOS0xLjIyMWwzOC45MzQtODEuNTgyYy0zMy45ODctOC4xNDYtNjcuOTcyLTE2LjI5My0xMDEuOTU5LTI0LjQzOSAgICAgIGMtNC4wMTUtMS4xNDYtNy4wNzktMy4xMjMtOS4xOTMtNS45MzVjLTEuMjM0LTEuOTE4LTEuODU1LTQuMDktMS44NjQtNi41MTdjMC4wMTEtMy40MSwxLjIzMi02LjMyLDMuNjY3LTguNzI5ICAgICAgYzIuNDI4LTIuNDMzLDUuMzU4LTMuNjU0LDguNzg5LTMuNjY2aDEwLjgyM1YxODEuNzhjLTE3LjM2OC0wLjQwNi0zMi41NzYtMS41ODktNDUuNjI0LTMuNTUgICAgICBjLTAuNDczLTAuMDctMC45MzktMC4xNDctMS4zOTYtMC4yMzJjLTE1LjYyNi0yLjM3My0yMy40NjItNS4yMjQtMjMuNTEyLTguNTU0YzAuMDUtMy4yOTIsNy44ODYtNi4xMjMsMjMuNTEyLTguNDk1ICAgICAgYzAuNDU3LTAuMTA1LDAuOTIzLTAuMjAyLDEuMzk2LTAuMjkxYzguMjQzLTEuMTg4LDE3LjM0LTIuMDYxLDI3LjI5Mi0yLjYxOGM1LjgzMS0wLjQwMywxMS45NDEtMC42OTQsMTguMzMyLTAuODczdi0xLjIyMiAgICAgIGMwLTAuMTE4LDAtMC4yMzQsMC0wLjM1MWMwLjEyMy0zLjI3LDEuMzQ0LTYuMDgxLDMuNjY3LTguNDM3YzIuNDQ2LTIuMzk0LDUuMzk0LTMuNTc4LDguODQ1LTMuNTUgICAgICBjMy40MTMtMC4wMjgsNi4zMjIsMS4xNTYsOC43MjksMy41NWMxLjM3NSwxLjQyMywyLjM0NiwzLjAxNCwyLjkxLDQuNzcxYzAuNDQ2LDEuMjQyLDAuNjU5LDIuNTgsMC42NDEsNC4wMTZ2MS4yMjIgICAgICBjMTguODI3LDAuMzA4LDM1LjIyLDEuNDcyLDQ5LjE3NSwzLjQ5MWMxNi41MTMsMi40NDgsMjQuNzc2LDUuMzc3LDI0Ljc5Miw4Ljc4NmMtMC4wMTYsMy40MjctOC4yNzksNi4zNTUtMjQuNzkyLDguNzg2ICAgICAgYy01Ljc4MSwwLjg2Ny0xMS45ODksMS41ODUtMTguNjIyLDIuMTU0Yy05LjM0NCwwLjc5OS0xOS41MjcsMS4zMDQtMzAuNTUzLDEuNTEzdjI2LjA2N2g5MC4wODYgICAgICBjNS4wMDQtNi4wOTIsMTEuMzg3LTEwLjcwOCwxOS4xNDYtMTMuODQ4YzcuNjE4LTMuMDU3LDE2LjU2MS00LjcwNCwyNi44MjktNC45NDZoMS4zMzljMS4xNzMtMC4wMzksMi4zNzMtMC4wMzksMy42MDcsMGgzOC41MjQgICAgICBDMjc2LjYxLDE4OS4xMzIsMjc3LjgxMywxODkuMTMyLDI3OC45ODYsMTg5LjE3MXoiIGNsaXAtcnVsZT0iZXZlbm9kZCIvPiYjeGE7JiN4YTs8L2c+JiN4YTsmI3hhOzxnPiYjeGE7JiN4YTs8cGF0aCBmaWxsLXJ1bGU9ImV2ZW5vZGQiIGZpbGw9IiMzMzMzMzMiIGQ9Ik0yNTYuMDU4LDI2OS40MTNjMy45MDEsMC4wMTQsNy4yMzgsMS40MTEsMTAuMDEsNC4xODggICAgICBjMi43NiwyLjc1MSw0LjEzNyw2LjA2OSw0LjEzMyw5Ljk1MWMwLjAwNCwzLjkwMS0xLjM3Myw3LjIzNy00LjEzMywxMC4wMDljLTIuNzcxLDIuNzU5LTYuMTA4LDQuMTM3LTEwLjAxLDQuMTMgICAgICBjLTMuODgzLDAuMDA3LTcuMTk5LTEuMzcxLTkuOTUyLTQuMTNjLTIuNzgtMi43NzEtNC4xNzYtNi4xMDctNC4xODktMTAuMDA5YzAuMDE0LTMuODgyLDEuNDA5LTcuMiw0LjE4OS05Ljk1MSAgICAgIEMyNDguODU4LDI3MC44MjQsMjUyLjE3NSwyNjkuNDI3LDI1Ni4wNTgsMjY5LjQxM3oiIGNsaXAtcnVsZT0iZXZlbm9kZCIvPiYjeGE7JiN4YTs8L2c+JiN4YTsmI3hhOzwvZz4mI3hhOyYjeGE7PC9nPiYjeGE7JiN4YTs8L3N2Zz4=;" parent="V3z4afdnI8j49kzJQuYH-37" vertex="1">
          <mxGeometry x="92.75333333333334" y="44.88499999999997" width="34.41666666666667" height="17.616666666666667" as="geometry" />
        </mxCell>
        <mxCell id="V3z4afdnI8j49kzJQuYH-45" value="&lt;font style=&quot;font-size: 27px;&quot; face=&quot;Times New Roman&quot;&gt;...&lt;/font&gt;" style="text;html=1;align=center;verticalAlign=middle;resizable=0;points=[];autosize=1;strokeColor=none;fillColor=none;" parent="V3z4afdnI8j49kzJQuYH-37" vertex="1">
          <mxGeometry x="63.82999999999996" y="24.75" width="40" height="50" as="geometry" />
        </mxCell>
        <mxCell id="V3z4afdnI8j49kzJQuYH-46" value="" style="endArrow=classic;html=1;rounded=0;strokeColor=#000000;strokeWidth=2;" parent="1" edge="1">
          <mxGeometry relative="1" as="geometry">
            <mxPoint x="900" y="931" as="sourcePoint" />
            <mxPoint x="520" y="934" as="targetPoint" />
          </mxGeometry>
        </mxCell>
        <mxCell id="V3z4afdnI8j49kzJQuYH-47" value="" style="shape=message;html=1;outlineConnect=0;" parent="V3z4afdnI8j49kzJQuYH-46" vertex="1">
          <mxGeometry width="20" height="14" relative="1" as="geometry">
            <mxPoint x="-10" y="-7" as="offset" />
          </mxGeometry>
        </mxCell>
        <mxCell id="V3z4afdnI8j49kzJQuYH-48" value="" style="endArrow=none;dashed=1;html=1;rounded=0;strokeWidth=2;" parent="1" edge="1">
          <mxGeometry width="50" height="50" relative="1" as="geometry">
            <mxPoint x="900" y="1270" as="sourcePoint" />
            <mxPoint x="900" y="917" as="targetPoint" />
          </mxGeometry>
        </mxCell>
        <mxCell id="V3z4afdnI8j49kzJQuYH-49" value="" style="html=1;verticalLabelPosition=bottom;align=center;labelBackgroundColor=#ffffff;verticalAlign=top;strokeWidth=2;strokeColor=#0080F0;shadow=0;dashed=0;shape=mxgraph.ios7.icons.wifi;pointerEvents=1;rotation=-85;" parent="1" vertex="1">
          <mxGeometry x="491.904307109766" y="922.2086265655129" width="29.7" height="21" as="geometry" />
        </mxCell>
        <mxCell id="V3z4afdnI8j49kzJQuYH-51" value="" style="endArrow=none;dashed=1;html=1;rounded=0;strokeWidth=2;" parent="1" edge="1">
          <mxGeometry width="50" height="50" relative="1" as="geometry">
            <mxPoint x="349" y="960" as="sourcePoint" />
            <mxPoint x="349" y="745" as="targetPoint" />
          </mxGeometry>
        </mxCell>
        <mxCell id="V3z4afdnI8j49kzJQuYH-54" value="" style="group;fillColor=#fff2cc;strokeColor=#d6b656;strokeWidth=2;" parent="1" vertex="1" connectable="0">
          <mxGeometry x="310" y="962" width="570" height="138" as="geometry" />
        </mxCell>
        <mxCell id="v15FcyH-daBZKtvoUnET-28" value="&lt;font face=&quot;Times New Roman&quot;&gt;&lt;span style=&quot;font-size: 18px;&quot;&gt;After receiving \(M_5\), each drone computes&amp;nbsp;&lt;/span&gt;&lt;/font&gt;&lt;span style=&quot;background-color: transparent; color: light-dark(rgb(0, 0, 0), rgb(255, 255, 255)); font-family: &amp;quot;Times New Roman&amp;quot;; font-size: 18px;&quot;&gt;\(SDE(SK_j^i)[M_5]=\{share_1^j, VT_5\}\)&amp;nbsp;&lt;/span&gt;&lt;span style=&quot;background-color: transparent; color: light-dark(rgb(0, 0, 0), rgb(255, 255, 255)); font-family: &amp;quot;Times New Roman&amp;quot;; font-size: 18px;&quot;&gt;&amp;nbsp;&lt;/span&gt;&lt;font style=&quot;background-color: transparent; color: light-dark(rgb(0, 0, 0), rgb(255, 255, 255));&quot; face=&quot;Times New Roman&quot;&gt;&lt;span style=&quot;font-size: 18px;&quot;&gt;Selects current timestamp \(T_{cur}^4\) to verify&amp;nbsp;&lt;/span&gt;&lt;/font&gt;&lt;span style=&quot;background-color: transparent; color: light-dark(rgb(0, 0, 0), rgb(255, 255, 255)); font-family: &amp;quot;Times New Roman&amp;quot;; font-size: 18px;&quot;&gt;if \(|VT_5-T_{cur}^4|&amp;lt;\triangle t \) ?&amp;nbsp;&lt;/span&gt;&lt;div&gt;&lt;span style=&quot;background-color: transparent; color: light-dark(rgb(0, 0, 0), rgb(255, 255, 255)); font-family: &amp;quot;Times New Roman&amp;quot;; font-size: 18px;&quot;&gt;If yes, then&lt;/span&gt;&lt;span style=&quot;background-color: transparent; color: light-dark(rgb(0, 0, 0), rgb(255, 255, 255)); font-family: &amp;quot;Times New Roman&amp;quot;; font-size: 18px;&quot;&gt;&amp;nbsp;&lt;/span&gt;&lt;span style=&quot;background-color: transparent; color: light-dark(rgb(0, 0, 0), rgb(255, 255, 255)); font-size: 18px; font-family: &amp;quot;Times New Roman&amp;quot;;&quot;&gt;choose&amp;nbsp;&lt;/span&gt;&lt;span style=&quot;background-color: transparent; color: light-dark(rgb(0, 0, 0), rgb(255, 255, 255)); font-size: 18px; font-family: &amp;quot;Times New Roman&amp;quot;; text-align: start; white-space: pre;&quot;&gt;a polynomial \((z(.))\) of degree \(m-t-2\)  &lt;/span&gt;&lt;/div&gt;&lt;div&gt;&lt;span style=&quot;background-color: transparent; color: light-dark(rgb(0, 0, 0), rgb(255, 255, 255)); font-size: 18px; font-family: &amp;quot;Times New Roman&amp;quot;; text-align: start; white-space: pre;&quot;&gt;Check: &lt;/span&gt;&lt;span style=&quot;font-size: 18px; font-family: &amp;quot;Times New Roman&amp;quot;; background-color: transparent; color: light-dark(rgb(0, 0, 0), rgb(255, 255, 255));&quot;&gt;\(\prod_{j=1}^mv[j]^{z(j) \cdot \lambda_j} \stackrel{?}{=}1_{\mathbb{G}}\),&amp;nbsp;&lt;/span&gt;&lt;span style=&quot;font-size: 18px; font-family: &amp;quot;Times New Roman&amp;quot;; background-color: transparent; color: light-dark(rgb(0, 0, 0), rgb(255, 255, 255));&quot;&gt;\(v(j) \stackrel{?}{=}g^{share_1^j}h^{r(Ch_1^j)}\)&lt;/span&gt;&lt;/div&gt;" style="rounded=0;whiteSpace=wrap;html=1;fillColor=#FFE6CC;strokeColor=#d6b656;strokeWidth=2;" parent="V3z4afdnI8j49kzJQuYH-54" vertex="1">
          <mxGeometry y="17.25" width="570" height="120.75" as="geometry" />
        </mxCell>
        <mxCell id="V3z4afdnI8j49kzJQuYH-53" value="&lt;font color=&quot;#ffffff&quot;&gt;&lt;span style=&quot;font-size: 18px;&quot;&gt;&lt;b&gt;Procedural explanation&lt;/b&gt;&lt;/span&gt;&lt;/font&gt;" style="rounded=0;whiteSpace=wrap;html=1;fillColor=#FF8000;strokeColor=#99004D;strokeWidth=2;align=center;verticalAlign=middle;fontFamily=Helvetica;fontSize=12;fontColor=default;" parent="V3z4afdnI8j49kzJQuYH-54" vertex="1">
          <mxGeometry width="570" height="20" as="geometry" />
        </mxCell>
        <mxCell id="V3z4afdnI8j49kzJQuYH-57" value="" style="group" parent="1" vertex="1" connectable="0">
          <mxGeometry x="316" y="1110" width="384" height="94.63" as="geometry" />
        </mxCell>
        <mxCell id="wgA1eYtuguO1ax2D-Wl9-3" value="&lt;font style=&quot;font-size: 18px;&quot; face=&quot;Times New Roman&quot;&gt;\(p(x)=\sum_{j=1}^{t+1}[share_1^j]\prod_{k=1,k \neq j}^{t+1}(\frac{x-Ch_1^k}{Ch_1^j-Ch_1^k})] \ mod \ q\)&lt;/font&gt;&lt;div&gt;&lt;font face=&quot;Times New Roman&quot;&gt;&lt;span style=&quot;font-size: 18px;&quot;&gt;\(GSK=p(0)=D_0=T_{\varrho^{H(D_1||D_2||...||D-m||psk)}}(\omega)\ mod\ q\)&lt;/span&gt;&lt;/font&gt;&lt;/div&gt;" style="rounded=0;whiteSpace=wrap;html=1;fillColor=#E5CCFF;strokeColor=#10739e;strokeWidth=2;" parent="V3z4afdnI8j49kzJQuYH-57" vertex="1">
          <mxGeometry y="24.749384615384614" width="384" height="69.88061538461538" as="geometry" />
        </mxCell>
        <mxCell id="V3z4afdnI8j49kzJQuYH-56" value="&lt;font color=&quot;#ffffff&quot;&gt;&lt;span style=&quot;font-size: 18px;&quot;&gt;&lt;b&gt;Procedural explanation&lt;/b&gt;&lt;/span&gt;&lt;/font&gt;" style="rounded=0;whiteSpace=wrap;html=1;fillColor=#7F00FF;strokeColor=#000099;strokeWidth=2;align=center;verticalAlign=middle;fontFamily=Helvetica;fontSize=12;fontColor=default;" parent="V3z4afdnI8j49kzJQuYH-57" vertex="1">
          <mxGeometry width="384" height="24.749384615384614" as="geometry" />
        </mxCell>
        <mxCell id="V3z4afdnI8j49kzJQuYH-59" value="c" style="group;strokeWidth=2;" parent="1" vertex="1" connectable="0">
          <mxGeometry x="754" y="1103.99" width="140" height="120" as="geometry" />
        </mxCell>
        <mxCell id="V3z4afdnI8j49kzJQuYH-60" value="" style="ellipse;shape=cloud;whiteSpace=wrap;html=1;fillColor=#E5CCFF;fontColor=#ffffff;strokeColor=#6600CC;strokeWidth=2;" parent="V3z4afdnI8j49kzJQuYH-59" vertex="1">
          <mxGeometry width="140" height="100" as="geometry" />
        </mxCell>
        <mxCell id="V3z4afdnI8j49kzJQuYH-69" value="" style="group" parent="V3z4afdnI8j49kzJQuYH-59" vertex="1" connectable="0">
          <mxGeometry x="35" y="24.75" width="92.17000000000002" height="55.366666666666674" as="geometry" />
        </mxCell>
        <mxCell id="V3z4afdnI8j49kzJQuYH-61" value="" style="shape=image;verticalLabelPosition=bottom;labelBackgroundColor=default;verticalAlign=top;aspect=fixed;imageAspect=0;editableCssRules=.*;image=data:image/svg+xml,PHN2ZyB4bWxuczp4bGluaz0iaHR0cDovL3d3dy53My5vcmcvMTk5OS94bGluayIgeG1sbnM9Imh0dHA6Ly93d3cudzMub3JnLzIwMDAvc3ZnIiB4bWw6c3BhY2U9InByZXNlcnZlIiB2ZXJzaW9uPSIxLjEiIGlkPSLQodC70L7QuV8xIiB2aWV3Qm94PSIwLjUyNTk4MzgxMDQyNDgwNDcgMTQzLjYwNjUyMTYwNjQ0NTMgNTExLjE4MzAxMzkxNjAxNTYgMjYxLjg1MjA1MDc4MTI1IiBoZWlnaHQ9IjQwOS4xNDM4MjkzNDU3MDMxIiB3aWR0aD0iNzk4LjcyMzQ1OTI0Mzc3NDQiPiYjeGE7JiN4YTs8Zz4mI3hhOyYjeGE7PGc+JiN4YTsmI3hhOzxnPiYjeGE7JiN4YTs8cGF0aCBmaWxsLXJ1bGU9ImV2ZW5vZGQiIGZpbGw9IiMzMzMzMzMiIGQ9Ik0yNTYuMTE1LDI1NS4yNzJjLTcuNzg0LDAuMDEtMTQuNDM4LDIuNzgyLTE5Ljk2LDguMzIxICAgICAgYy01LjUzOSw1LjUyMS04LjMxNSwxMi4xNzUtOC4zMjIsMTkuOTU5YzAuMDA3LDcuODAyLDIuNzgzLDE0LjQ3NSw4LjMyMiwyMC4wMTdjNS41MjIsNS41MTksMTIuMTc2LDguMjczLDE5Ljk2LDguMjYyICAgICAgYzcuODA2LDAuMDEyLDE0LjQ3OC0yLjc0MywyMC4wMjEtOC4yNjJjNS41MTktNS41NDIsOC4yNzQtMTIuMjE1LDguMjYzLTIwLjAxN2MwLjAxMi03Ljc4NC0yLjc0NC0xNC40MzgtOC4yNjMtMTkuOTU5ICAgICAgQzI3MC41OTMsMjU4LjA1NSwyNjMuOTIxLDI1NS4yODIsMjU2LjExNSwyNTUuMjcyeiBNMjc4Ljk4NiwxODkuMTcxaDEuMzM5YzEwLjI2OCwwLjI0MiwxOS4yMTEsMS44OSwyNi44MjgsNC45NDYgICAgICBjNy43NTksMy4xNCwxNC4xNCw3Ljc1NiwxOS4xNDYsMTMuODQ4aDkwLjA4NnYtMjYuMDY3Yy0xMS4wMjctMC4yMDktMjEuMjExLTAuNzE0LTMwLjU1Mi0xLjUxMyAgICAgIGMtNi42MzYtMC41NjktMTIuODQyLTEuMjg3LTE4LjYyMy0yLjE1NGMtMTYuNTEzLTIuNDMxLTI0Ljc3NS01LjM1OS0yNC43OTItOC43ODZjMC4wMTctMy40MDksOC4yNzktNi4zMzgsMjQuNzkyLTguNzg2ICAgICAgYzEzLjk1Ni0yLjAyLDMwLjM0OS0zLjE4NCw0OS4xNzUtMy40OTF2LTEuMjIyYy0wLjAxOC0xLjQzNiwwLjE5Ni0yLjc3MywwLjY0LTQuMDE2YzAuNTY1LTEuNzU4LDEuNTM2LTMuMzQ5LDIuOTA5LTQuNzcxICAgICAgYzIuNDEtMi4zOTQsNS4zMTktMy41NzgsOC43MjktMy41NWMzLjQ1MS0wLjAyOCw2LjQwMSwxLjE1Niw4Ljg0OCwzLjU1YzIuMzIzLDIuMzU1LDMuNTQ0LDUuMTY3LDMuNjY0LDguNDM3ICAgICAgYzAsMC4xMTYsMCwwLjIzMiwwLDAuMzUxdjEuMjIyYzYuMzkzLDAuMTc5LDEyLjUwMywwLjQ3LDE4LjMzMSwwLjg3M2M5Ljk1NSwwLjU1OCwxOS4wNTMsMS40MzEsMjcuMjk1LDIuNjE4ICAgICAgYzAuNDc0LDAuMDg5LDAuOTM5LDAuMTg2LDEuMzk2LDAuMjkxYzE1LjYyNiwyLjM3MiwyMy40NjIsNS4yMDMsMjMuNTEyLDguNDk1Yy0wLjA1LDMuMzMtNy44ODYsNi4xODEtMjMuNTEyLDguNTU0ICAgICAgYy0wLjQ1NywwLjA4NS0wLjkyMywwLjE2Mi0xLjM5NiwwLjIzMmMtMTMuMDUxLDEuOTYxLTI4LjI1OSwzLjE0NC00NS42MjYsMy41NXYyNi4xODVINDUyYzMuNDMxLDAuMDEyLDYuMzYsMS4yMzMsOC43ODgsMy42NjYgICAgICBjMi40MzMsMi40MDgsMy42NTUsNS4zMTgsMy42NjUsOC43MjljLTAuMDA3LDIuNDI3LTAuNjI4LDQuNTk5LTEuODYyLDYuNTE3Yy0yLjExNCwyLjgxMi01LjE4MSw0Ljc4OS05LjE5NSw1LjkzNSAgICAgIGMtMzMuOTg0LDguMTQ2LTY3Ljk3LDE2LjI5My0xMDEuOTU3LDI0LjQzOWwzOC45MzQsODEuNTgyYzAuMjI2LDAuNDAyLDAuNDM5LDAuODEyLDAuNjM5LDEuMjIxICAgICAgYzkuMzMyLDI2LjIzNSwyLjgzMyw0Ny4yNDItMTkuNDk1LDYzLjAxOWMtMi44MDgsMi4wMTQtNS44OSwyLjc1My05LjI1MiwyLjIxMmMtMy4zMjUtMC42MTYtNS45NjUtMi4zNDEtNy45MTUtNS4xODEgICAgICBjLTIuMDE3LTIuNzk4LTIuNzU2LTUuODgyLTIuMjEyLTkuMjUxYzAuNTg0LTMuMzQzLDIuMjczLTYsNS4wNjQtNy45NzFjMTIuMDE3LTguNjE3LDE1LjQ5LTIwLjA2MiwxMC40MTYtMzQuMzMxICAgICAgbC00MC45MTEtODUuMzYybC0xMC42NSwyLjYxOHY0Mi41MzRjMC4wMDUsMy4wMzUtMC43NTMsNS44NjctMi4yNjksOC40OTd2MC4wNTdjLTEuNTM0LDIuNjEzLTMuNjEsNC42NjktNi4yMjcsNi4xNjkgICAgICBsLTQyLjk0OCwyNC43Mjl2MC4wNmMtMi42NTUsMS41MDktNS40ODcsMi4yNjctOC40OTcsMi4yNjljLTMuMDIzLTAuMDI1LTUuODU2LTAuOC04LjQ5NS0yLjMyOGwtNDIuODktMjQuNzg5bC0wLjExOC0wLjA1NyAgICAgIGMtMi41ODUtMS41MzYtNC42MjEtMy42MTEtNi4xMS02LjIyNmMtMS41MTktMi42My0yLjI3My01LjQ0NC0yLjI2OS04LjQzOHYtNDIuNDc4bC0xMC43MDctMi42MThsLTQwLjkxMiw4NS4zNjIgICAgICBjLTUuMDczLDE0LjI3LTEuNjAzLDI1LjcxNCwxMC40MTYsMzQuMzMxYzIuNzkyLDEuOTcxLDQuNDgsNC42MjgsNS4wNjMsNy45NzFjMC41NDYsMy4zNjktMC4xOTMsNi40NTMtMi4yMDksOS4yNTEgICAgICBjLTEuOTUxLDIuODQtNC41OSw0LjU2NC03LjkxNiw1LjE4MWMtMy4zNjIsMC41NDEtNi40NDYtMC4xOTgtOS4yNTItMi4yMTJjLTIyLjMyOC0xNS43NzYtMjguODI3LTM2Ljc4My0xOS40OTUtNjMuMDE5ICAgICAgYzAuMi0wLjQwOSwwLjQxNC0wLjgxOCwwLjYzOS0xLjIyMWwzOC45MzQtODEuNTgyYy0zMy45ODctOC4xNDYtNjcuOTcyLTE2LjI5My0xMDEuOTU5LTI0LjQzOSAgICAgIGMtNC4wMTUtMS4xNDYtNy4wNzktMy4xMjMtOS4xOTMtNS45MzVjLTEuMjM0LTEuOTE4LTEuODU1LTQuMDktMS44NjQtNi41MTdjMC4wMTEtMy40MSwxLjIzMi02LjMyLDMuNjY3LTguNzI5ICAgICAgYzIuNDI4LTIuNDMzLDUuMzU4LTMuNjU0LDguNzg5LTMuNjY2aDEwLjgyM1YxODEuNzhjLTE3LjM2OC0wLjQwNi0zMi41NzYtMS41ODktNDUuNjI0LTMuNTUgICAgICBjLTAuNDczLTAuMDctMC45MzktMC4xNDctMS4zOTYtMC4yMzJjLTE1LjYyNi0yLjM3My0yMy40NjItNS4yMjQtMjMuNTEyLTguNTU0YzAuMDUtMy4yOTIsNy44ODYtNi4xMjMsMjMuNTEyLTguNDk1ICAgICAgYzAuNDU3LTAuMTA1LDAuOTIzLTAuMjAyLDEuMzk2LTAuMjkxYzguMjQzLTEuMTg4LDE3LjM0LTIuMDYxLDI3LjI5Mi0yLjYxOGM1LjgzMS0wLjQwMywxMS45NDEtMC42OTQsMTguMzMyLTAuODczdi0xLjIyMiAgICAgIGMwLTAuMTE4LDAtMC4yMzQsMC0wLjM1MWMwLjEyMy0zLjI3LDEuMzQ0LTYuMDgxLDMuNjY3LTguNDM3YzIuNDQ2LTIuMzk0LDUuMzk0LTMuNTc4LDguODQ1LTMuNTUgICAgICBjMy40MTMtMC4wMjgsNi4zMjIsMS4xNTYsOC43MjksMy41NWMxLjM3NSwxLjQyMywyLjM0NiwzLjAxNCwyLjkxLDQuNzcxYzAuNDQ2LDEuMjQyLDAuNjU5LDIuNTgsMC42NDEsNC4wMTZ2MS4yMjIgICAgICBjMTguODI3LDAuMzA4LDM1LjIyLDEuNDcyLDQ5LjE3NSwzLjQ5MWMxNi41MTMsMi40NDgsMjQuNzc2LDUuMzc3LDI0Ljc5Miw4Ljc4NmMtMC4wMTYsMy40MjctOC4yNzksNi4zNTUtMjQuNzkyLDguNzg2ICAgICAgYy01Ljc4MSwwLjg2Ny0xMS45ODksMS41ODUtMTguNjIyLDIuMTU0Yy05LjM0NCwwLjc5OS0xOS41MjcsMS4zMDQtMzAuNTUzLDEuNTEzdjI2LjA2N2g5MC4wODYgICAgICBjNS4wMDQtNi4wOTIsMTEuMzg3LTEwLjcwOCwxOS4xNDYtMTMuODQ4YzcuNjE4LTMuMDU3LDE2LjU2MS00LjcwNCwyNi44MjktNC45NDZoMS4zMzljMS4xNzMtMC4wMzksMi4zNzMtMC4wMzksMy42MDcsMGgzOC41MjQgICAgICBDMjc2LjYxLDE4OS4xMzIsMjc3LjgxMywxODkuMTMyLDI3OC45ODYsMTg5LjE3MXoiIGNsaXAtcnVsZT0iZXZlbm9kZCIvPiYjeGE7JiN4YTs8L2c+JiN4YTsmI3hhOzxnPiYjeGE7JiN4YTs8cGF0aCBmaWxsLXJ1bGU9ImV2ZW5vZGQiIGZpbGw9IiMzMzMzMzMiIGQ9Ik0yNTYuMDU4LDI2OS40MTNjMy45MDEsMC4wMTQsNy4yMzgsMS40MTEsMTAuMDEsNC4xODggICAgICBjMi43NiwyLjc1MSw0LjEzNyw2LjA2OSw0LjEzMyw5Ljk1MWMwLjAwNCwzLjkwMS0xLjM3Myw3LjIzNy00LjEzMywxMC4wMDljLTIuNzcxLDIuNzU5LTYuMTA4LDQuMTM3LTEwLjAxLDQuMTMgICAgICBjLTMuODgzLDAuMDA3LTcuMTk5LTEuMzcxLTkuOTUyLTQuMTNjLTIuNzgtMi43NzEtNC4xNzYtNi4xMDctNC4xODktMTAuMDA5YzAuMDE0LTMuODgyLDEuNDA5LTcuMiw0LjE4OS05Ljk1MSAgICAgIEMyNDguODU4LDI3MC44MjQsMjUyLjE3NSwyNjkuNDI3LDI1Ni4wNTgsMjY5LjQxM3oiIGNsaXAtcnVsZT0iZXZlbm9kZCIvPiYjeGE7JiN4YTs8L2c+JiN4YTsmI3hhOzwvZz4mI3hhOyYjeGE7PC9nPiYjeGE7JiN4YTs8L3N2Zz4=;" parent="V3z4afdnI8j49kzJQuYH-69" vertex="1">
          <mxGeometry y="6.374999999999972" width="34.41666666666667" height="17.616666666666667" as="geometry" />
        </mxCell>
        <mxCell id="V3z4afdnI8j49kzJQuYH-62" value="" style="shape=image;verticalLabelPosition=bottom;labelBackgroundColor=default;verticalAlign=top;aspect=fixed;imageAspect=0;editableCssRules=.*;image=data:image/svg+xml,PHN2ZyB4bWxuczp4bGluaz0iaHR0cDovL3d3dy53My5vcmcvMTk5OS94bGluayIgeG1sbnM9Imh0dHA6Ly93d3cudzMub3JnLzIwMDAvc3ZnIiB4bWw6c3BhY2U9InByZXNlcnZlIiB2ZXJzaW9uPSIxLjEiIGlkPSLQodC70L7QuV8xIiB2aWV3Qm94PSIwLjUyNTk4MzgxMDQyNDgwNDcgMTQzLjYwNjUyMTYwNjQ0NTMgNTExLjE4MzAxMzkxNjAxNTYgMjYxLjg1MjA1MDc4MTI1IiBoZWlnaHQ9IjQwOS4xNDM4MjkzNDU3MDMxIiB3aWR0aD0iNzk4LjcyMzQ1OTI0Mzc3NDQiPiYjeGE7JiN4YTs8Zz4mI3hhOyYjeGE7PGc+JiN4YTsmI3hhOzxnPiYjeGE7JiN4YTs8cGF0aCBmaWxsLXJ1bGU9ImV2ZW5vZGQiIGZpbGw9IiMzMzMzMzMiIGQ9Ik0yNTYuMTE1LDI1NS4yNzJjLTcuNzg0LDAuMDEtMTQuNDM4LDIuNzgyLTE5Ljk2LDguMzIxICAgICAgYy01LjUzOSw1LjUyMS04LjMxNSwxMi4xNzUtOC4zMjIsMTkuOTU5YzAuMDA3LDcuODAyLDIuNzgzLDE0LjQ3NSw4LjMyMiwyMC4wMTdjNS41MjIsNS41MTksMTIuMTc2LDguMjczLDE5Ljk2LDguMjYyICAgICAgYzcuODA2LDAuMDEyLDE0LjQ3OC0yLjc0MywyMC4wMjEtOC4yNjJjNS41MTktNS41NDIsOC4yNzQtMTIuMjE1LDguMjYzLTIwLjAxN2MwLjAxMi03Ljc4NC0yLjc0NC0xNC40MzgtOC4yNjMtMTkuOTU5ICAgICAgQzI3MC41OTMsMjU4LjA1NSwyNjMuOTIxLDI1NS4yODIsMjU2LjExNSwyNTUuMjcyeiBNMjc4Ljk4NiwxODkuMTcxaDEuMzM5YzEwLjI2OCwwLjI0MiwxOS4yMTEsMS44OSwyNi44MjgsNC45NDYgICAgICBjNy43NTksMy4xNCwxNC4xNCw3Ljc1NiwxOS4xNDYsMTMuODQ4aDkwLjA4NnYtMjYuMDY3Yy0xMS4wMjctMC4yMDktMjEuMjExLTAuNzE0LTMwLjU1Mi0xLjUxMyAgICAgIGMtNi42MzYtMC41NjktMTIuODQyLTEuMjg3LTE4LjYyMy0yLjE1NGMtMTYuNTEzLTIuNDMxLTI0Ljc3NS01LjM1OS0yNC43OTItOC43ODZjMC4wMTctMy40MDksOC4yNzktNi4zMzgsMjQuNzkyLTguNzg2ICAgICAgYzEzLjk1Ni0yLjAyLDMwLjM0OS0zLjE4NCw0OS4xNzUtMy40OTF2LTEuMjIyYy0wLjAxOC0xLjQzNiwwLjE5Ni0yLjc3MywwLjY0LTQuMDE2YzAuNTY1LTEuNzU4LDEuNTM2LTMuMzQ5LDIuOTA5LTQuNzcxICAgICAgYzIuNDEtMi4zOTQsNS4zMTktMy41NzgsOC43MjktMy41NWMzLjQ1MS0wLjAyOCw2LjQwMSwxLjE1Niw4Ljg0OCwzLjU1YzIuMzIzLDIuMzU1LDMuNTQ0LDUuMTY3LDMuNjY0LDguNDM3ICAgICAgYzAsMC4xMTYsMCwwLjIzMiwwLDAuMzUxdjEuMjIyYzYuMzkzLDAuMTc5LDEyLjUwMywwLjQ3LDE4LjMzMSwwLjg3M2M5Ljk1NSwwLjU1OCwxOS4wNTMsMS40MzEsMjcuMjk1LDIuNjE4ICAgICAgYzAuNDc0LDAuMDg5LDAuOTM5LDAuMTg2LDEuMzk2LDAuMjkxYzE1LjYyNiwyLjM3MiwyMy40NjIsNS4yMDMsMjMuNTEyLDguNDk1Yy0wLjA1LDMuMzMtNy44ODYsNi4xODEtMjMuNTEyLDguNTU0ICAgICAgYy0wLjQ1NywwLjA4NS0wLjkyMywwLjE2Mi0xLjM5NiwwLjIzMmMtMTMuMDUxLDEuOTYxLTI4LjI1OSwzLjE0NC00NS42MjYsMy41NXYyNi4xODVINDUyYzMuNDMxLDAuMDEyLDYuMzYsMS4yMzMsOC43ODgsMy42NjYgICAgICBjMi40MzMsMi40MDgsMy42NTUsNS4zMTgsMy42NjUsOC43MjljLTAuMDA3LDIuNDI3LTAuNjI4LDQuNTk5LTEuODYyLDYuNTE3Yy0yLjExNCwyLjgxMi01LjE4MSw0Ljc4OS05LjE5NSw1LjkzNSAgICAgIGMtMzMuOTg0LDguMTQ2LTY3Ljk3LDE2LjI5My0xMDEuOTU3LDI0LjQzOWwzOC45MzQsODEuNTgyYzAuMjI2LDAuNDAyLDAuNDM5LDAuODEyLDAuNjM5LDEuMjIxICAgICAgYzkuMzMyLDI2LjIzNSwyLjgzMyw0Ny4yNDItMTkuNDk1LDYzLjAxOWMtMi44MDgsMi4wMTQtNS44OSwyLjc1My05LjI1MiwyLjIxMmMtMy4zMjUtMC42MTYtNS45NjUtMi4zNDEtNy45MTUtNS4xODEgICAgICBjLTIuMDE3LTIuNzk4LTIuNzU2LTUuODgyLTIuMjEyLTkuMjUxYzAuNTg0LTMuMzQzLDIuMjczLTYsNS4wNjQtNy45NzFjMTIuMDE3LTguNjE3LDE1LjQ5LTIwLjA2MiwxMC40MTYtMzQuMzMxICAgICAgbC00MC45MTEtODUuMzYybC0xMC42NSwyLjYxOHY0Mi41MzRjMC4wMDUsMy4wMzUtMC43NTMsNS44NjctMi4yNjksOC40OTd2MC4wNTdjLTEuNTM0LDIuNjEzLTMuNjEsNC42NjktNi4yMjcsNi4xNjkgICAgICBsLTQyLjk0OCwyNC43Mjl2MC4wNmMtMi42NTUsMS41MDktNS40ODcsMi4yNjctOC40OTcsMi4yNjljLTMuMDIzLTAuMDI1LTUuODU2LTAuOC04LjQ5NS0yLjMyOGwtNDIuODktMjQuNzg5bC0wLjExOC0wLjA1NyAgICAgIGMtMi41ODUtMS41MzYtNC42MjEtMy42MTEtNi4xMS02LjIyNmMtMS41MTktMi42My0yLjI3My01LjQ0NC0yLjI2OS04LjQzOHYtNDIuNDc4bC0xMC43MDctMi42MThsLTQwLjkxMiw4NS4zNjIgICAgICBjLTUuMDczLDE0LjI3LTEuNjAzLDI1LjcxNCwxMC40MTYsMzQuMzMxYzIuNzkyLDEuOTcxLDQuNDgsNC42MjgsNS4wNjMsNy45NzFjMC41NDYsMy4zNjktMC4xOTMsNi40NTMtMi4yMDksOS4yNTEgICAgICBjLTEuOTUxLDIuODQtNC41OSw0LjU2NC03LjkxNiw1LjE4MWMtMy4zNjIsMC41NDEtNi40NDYtMC4xOTgtOS4yNTItMi4yMTJjLTIyLjMyOC0xNS43NzYtMjguODI3LTM2Ljc4My0xOS40OTUtNjMuMDE5ICAgICAgYzAuMi0wLjQwOSwwLjQxNC0wLjgxOCwwLjYzOS0xLjIyMWwzOC45MzQtODEuNTgyYy0zMy45ODctOC4xNDYtNjcuOTcyLTE2LjI5My0xMDEuOTU5LTI0LjQzOSAgICAgIGMtNC4wMTUtMS4xNDYtNy4wNzktMy4xMjMtOS4xOTMtNS45MzVjLTEuMjM0LTEuOTE4LTEuODU1LTQuMDktMS44NjQtNi41MTdjMC4wMTEtMy40MSwxLjIzMi02LjMyLDMuNjY3LTguNzI5ICAgICAgYzIuNDI4LTIuNDMzLDUuMzU4LTMuNjU0LDguNzg5LTMuNjY2aDEwLjgyM1YxODEuNzhjLTE3LjM2OC0wLjQwNi0zMi41NzYtMS41ODktNDUuNjI0LTMuNTUgICAgICBjLTAuNDczLTAuMDctMC45MzktMC4xNDctMS4zOTYtMC4yMzJjLTE1LjYyNi0yLjM3My0yMy40NjItNS4yMjQtMjMuNTEyLTguNTU0YzAuMDUtMy4yOTIsNy44ODYtNi4xMjMsMjMuNTEyLTguNDk1ICAgICAgYzAuNDU3LTAuMTA1LDAuOTIzLTAuMjAyLDEuMzk2LTAuMjkxYzguMjQzLTEuMTg4LDE3LjM0LTIuMDYxLDI3LjI5Mi0yLjYxOGM1LjgzMS0wLjQwMywxMS45NDEtMC42OTQsMTguMzMyLTAuODczdi0xLjIyMiAgICAgIGMwLTAuMTE4LDAtMC4yMzQsMC0wLjM1MWMwLjEyMy0zLjI3LDEuMzQ0LTYuMDgxLDMuNjY3LTguNDM3YzIuNDQ2LTIuMzk0LDUuMzk0LTMuNTc4LDguODQ1LTMuNTUgICAgICBjMy40MTMtMC4wMjgsNi4zMjIsMS4xNTYsOC43MjksMy41NWMxLjM3NSwxLjQyMywyLjM0NiwzLjAxNCwyLjkxLDQuNzcxYzAuNDQ2LDEuMjQyLDAuNjU5LDIuNTgsMC42NDEsNC4wMTZ2MS4yMjIgICAgICBjMTguODI3LDAuMzA4LDM1LjIyLDEuNDcyLDQ5LjE3NSwzLjQ5MWMxNi41MTMsMi40NDgsMjQuNzc2LDUuMzc3LDI0Ljc5Miw4Ljc4NmMtMC4wMTYsMy40MjctOC4yNzksNi4zNTUtMjQuNzkyLDguNzg2ICAgICAgYy01Ljc4MSwwLjg2Ny0xMS45ODksMS41ODUtMTguNjIyLDIuMTU0Yy05LjM0NCwwLjc5OS0xOS41MjcsMS4zMDQtMzAuNTUzLDEuNTEzdjI2LjA2N2g5MC4wODYgICAgICBjNS4wMDQtNi4wOTIsMTEuMzg3LTEwLjcwOCwxOS4xNDYtMTMuODQ4YzcuNjE4LTMuMDU3LDE2LjU2MS00LjcwNCwyNi44MjktNC45NDZoMS4zMzljMS4xNzMtMC4wMzksMi4zNzMtMC4wMzksMy42MDcsMGgzOC41MjQgICAgICBDMjc2LjYxLDE4OS4xMzIsMjc3LjgxMywxODkuMTMyLDI3OC45ODYsMTg5LjE3MXoiIGNsaXAtcnVsZT0iZXZlbm9kZCIvPiYjeGE7JiN4YTs8L2c+JiN4YTsmI3hhOzxnPiYjeGE7JiN4YTs8cGF0aCBmaWxsLXJ1bGU9ImV2ZW5vZGQiIGZpbGw9IiMzMzMzMzMiIGQ9Ik0yNTYuMDU4LDI2OS40MTNjMy45MDEsMC4wMTQsNy4yMzgsMS40MTEsMTAuMDEsNC4xODggICAgICBjMi43NiwyLjc1MSw0LjEzNyw2LjA2OSw0LjEzMyw5Ljk1MWMwLjAwNCwzLjkwMS0xLjM3Myw3LjIzNy00LjEzMywxMC4wMDljLTIuNzcxLDIuNzU5LTYuMTA4LDQuMTM3LTEwLjAxLDQuMTMgICAgICBjLTMuODgzLDAuMDA3LTcuMTk5LTEuMzcxLTkuOTUyLTQuMTNjLTIuNzgtMi43NzEtNC4xNzYtNi4xMDctNC4xODktMTAuMDA5YzAuMDE0LTMuODgyLDEuNDA5LTcuMiw0LjE4OS05Ljk1MSAgICAgIEMyNDguODU4LDI3MC44MjQsMjUyLjE3NSwyNjkuNDI3LDI1Ni4wNTgsMjY5LjQxM3oiIGNsaXAtcnVsZT0iZXZlbm9kZCIvPiYjeGE7JiN4YTs8L2c+JiN4YTsmI3hhOzwvZz4mI3hhOyYjeGE7PC9nPiYjeGE7JiN4YTs8L3N2Zz4=;" parent="V3z4afdnI8j49kzJQuYH-69" vertex="1">
          <mxGeometry x="11.666666666666671" y="0.25" width="34.41666666666667" height="17.616666666666667" as="geometry" />
        </mxCell>
        <mxCell id="V3z4afdnI8j49kzJQuYH-63" value="" style="shape=image;verticalLabelPosition=bottom;labelBackgroundColor=default;verticalAlign=top;aspect=fixed;imageAspect=0;editableCssRules=.*;image=data:image/svg+xml,PHN2ZyB4bWxuczp4bGluaz0iaHR0cDovL3d3dy53My5vcmcvMTk5OS94bGluayIgeG1sbnM9Imh0dHA6Ly93d3cudzMub3JnLzIwMDAvc3ZnIiB4bWw6c3BhY2U9InByZXNlcnZlIiB2ZXJzaW9uPSIxLjEiIGlkPSLQodC70L7QuV8xIiB2aWV3Qm94PSIwLjUyNTk4MzgxMDQyNDgwNDcgMTQzLjYwNjUyMTYwNjQ0NTMgNTExLjE4MzAxMzkxNjAxNTYgMjYxLjg1MjA1MDc4MTI1IiBoZWlnaHQ9IjQwOS4xNDM4MjkzNDU3MDMxIiB3aWR0aD0iNzk4LjcyMzQ1OTI0Mzc3NDQiPiYjeGE7JiN4YTs8Zz4mI3hhOyYjeGE7PGc+JiN4YTsmI3hhOzxnPiYjeGE7JiN4YTs8cGF0aCBmaWxsLXJ1bGU9ImV2ZW5vZGQiIGZpbGw9IiMzMzMzMzMiIGQ9Ik0yNTYuMTE1LDI1NS4yNzJjLTcuNzg0LDAuMDEtMTQuNDM4LDIuNzgyLTE5Ljk2LDguMzIxICAgICAgYy01LjUzOSw1LjUyMS04LjMxNSwxMi4xNzUtOC4zMjIsMTkuOTU5YzAuMDA3LDcuODAyLDIuNzgzLDE0LjQ3NSw4LjMyMiwyMC4wMTdjNS41MjIsNS41MTksMTIuMTc2LDguMjczLDE5Ljk2LDguMjYyICAgICAgYzcuODA2LDAuMDEyLDE0LjQ3OC0yLjc0MywyMC4wMjEtOC4yNjJjNS41MTktNS41NDIsOC4yNzQtMTIuMjE1LDguMjYzLTIwLjAxN2MwLjAxMi03Ljc4NC0yLjc0NC0xNC40MzgtOC4yNjMtMTkuOTU5ICAgICAgQzI3MC41OTMsMjU4LjA1NSwyNjMuOTIxLDI1NS4yODIsMjU2LjExNSwyNTUuMjcyeiBNMjc4Ljk4NiwxODkuMTcxaDEuMzM5YzEwLjI2OCwwLjI0MiwxOS4yMTEsMS44OSwyNi44MjgsNC45NDYgICAgICBjNy43NTksMy4xNCwxNC4xNCw3Ljc1NiwxOS4xNDYsMTMuODQ4aDkwLjA4NnYtMjYuMDY3Yy0xMS4wMjctMC4yMDktMjEuMjExLTAuNzE0LTMwLjU1Mi0xLjUxMyAgICAgIGMtNi42MzYtMC41NjktMTIuODQyLTEuMjg3LTE4LjYyMy0yLjE1NGMtMTYuNTEzLTIuNDMxLTI0Ljc3NS01LjM1OS0yNC43OTItOC43ODZjMC4wMTctMy40MDksOC4yNzktNi4zMzgsMjQuNzkyLTguNzg2ICAgICAgYzEzLjk1Ni0yLjAyLDMwLjM0OS0zLjE4NCw0OS4xNzUtMy40OTF2LTEuMjIyYy0wLjAxOC0xLjQzNiwwLjE5Ni0yLjc3MywwLjY0LTQuMDE2YzAuNTY1LTEuNzU4LDEuNTM2LTMuMzQ5LDIuOTA5LTQuNzcxICAgICAgYzIuNDEtMi4zOTQsNS4zMTktMy41NzgsOC43MjktMy41NWMzLjQ1MS0wLjAyOCw2LjQwMSwxLjE1Niw4Ljg0OCwzLjU1YzIuMzIzLDIuMzU1LDMuNTQ0LDUuMTY3LDMuNjY0LDguNDM3ICAgICAgYzAsMC4xMTYsMCwwLjIzMiwwLDAuMzUxdjEuMjIyYzYuMzkzLDAuMTc5LDEyLjUwMywwLjQ3LDE4LjMzMSwwLjg3M2M5Ljk1NSwwLjU1OCwxOS4wNTMsMS40MzEsMjcuMjk1LDIuNjE4ICAgICAgYzAuNDc0LDAuMDg5LDAuOTM5LDAuMTg2LDEuMzk2LDAuMjkxYzE1LjYyNiwyLjM3MiwyMy40NjIsNS4yMDMsMjMuNTEyLDguNDk1Yy0wLjA1LDMuMzMtNy44ODYsNi4xODEtMjMuNTEyLDguNTU0ICAgICAgYy0wLjQ1NywwLjA4NS0wLjkyMywwLjE2Mi0xLjM5NiwwLjIzMmMtMTMuMDUxLDEuOTYxLTI4LjI1OSwzLjE0NC00NS42MjYsMy41NXYyNi4xODVINDUyYzMuNDMxLDAuMDEyLDYuMzYsMS4yMzMsOC43ODgsMy42NjYgICAgICBjMi40MzMsMi40MDgsMy42NTUsNS4zMTgsMy42NjUsOC43MjljLTAuMDA3LDIuNDI3LTAuNjI4LDQuNTk5LTEuODYyLDYuNTE3Yy0yLjExNCwyLjgxMi01LjE4MSw0Ljc4OS05LjE5NSw1LjkzNSAgICAgIGMtMzMuOTg0LDguMTQ2LTY3Ljk3LDE2LjI5My0xMDEuOTU3LDI0LjQzOWwzOC45MzQsODEuNTgyYzAuMjI2LDAuNDAyLDAuNDM5LDAuODEyLDAuNjM5LDEuMjIxICAgICAgYzkuMzMyLDI2LjIzNSwyLjgzMyw0Ny4yNDItMTkuNDk1LDYzLjAxOWMtMi44MDgsMi4wMTQtNS44OSwyLjc1My05LjI1MiwyLjIxMmMtMy4zMjUtMC42MTYtNS45NjUtMi4zNDEtNy45MTUtNS4xODEgICAgICBjLTIuMDE3LTIuNzk4LTIuNzU2LTUuODgyLTIuMjEyLTkuMjUxYzAuNTg0LTMuMzQzLDIuMjczLTYsNS4wNjQtNy45NzFjMTIuMDE3LTguNjE3LDE1LjQ5LTIwLjA2MiwxMC40MTYtMzQuMzMxICAgICAgbC00MC45MTEtODUuMzYybC0xMC42NSwyLjYxOHY0Mi41MzRjMC4wMDUsMy4wMzUtMC43NTMsNS44NjctMi4yNjksOC40OTd2MC4wNTdjLTEuNTM0LDIuNjEzLTMuNjEsNC42NjktNi4yMjcsNi4xNjkgICAgICBsLTQyLjk0OCwyNC43Mjl2MC4wNmMtMi42NTUsMS41MDktNS40ODcsMi4yNjctOC40OTcsMi4yNjljLTMuMDIzLTAuMDI1LTUuODU2LTAuOC04LjQ5NS0yLjMyOGwtNDIuODktMjQuNzg5bC0wLjExOC0wLjA1NyAgICAgIGMtMi41ODUtMS41MzYtNC42MjEtMy42MTEtNi4xMS02LjIyNmMtMS41MTktMi42My0yLjI3My01LjQ0NC0yLjI2OS04LjQzOHYtNDIuNDc4bC0xMC43MDctMi42MThsLTQwLjkxMiw4NS4zNjIgICAgICBjLTUuMDczLDE0LjI3LTEuNjAzLDI1LjcxNCwxMC40MTYsMzQuMzMxYzIuNzkyLDEuOTcxLDQuNDgsNC42MjgsNS4wNjMsNy45NzFjMC41NDYsMy4zNjktMC4xOTMsNi40NTMtMi4yMDksOS4yNTEgICAgICBjLTEuOTUxLDIuODQtNC41OSw0LjU2NC03LjkxNiw1LjE4MWMtMy4zNjIsMC41NDEtNi40NDYtMC4xOTgtOS4yNTItMi4yMTJjLTIyLjMyOC0xNS43NzYtMjguODI3LTM2Ljc4My0xOS40OTUtNjMuMDE5ICAgICAgYzAuMi0wLjQwOSwwLjQxNC0wLjgxOCwwLjYzOS0xLjIyMWwzOC45MzQtODEuNTgyYy0zMy45ODctOC4xNDYtNjcuOTcyLTE2LjI5My0xMDEuOTU5LTI0LjQzOSAgICAgIGMtNC4wMTUtMS4xNDYtNy4wNzktMy4xMjMtOS4xOTMtNS45MzVjLTEuMjM0LTEuOTE4LTEuODU1LTQuMDktMS44NjQtNi41MTdjMC4wMTEtMy40MSwxLjIzMi02LjMyLDMuNjY3LTguNzI5ICAgICAgYzIuNDI4LTIuNDMzLDUuMzU4LTMuNjU0LDguNzg5LTMuNjY2aDEwLjgyM1YxODEuNzhjLTE3LjM2OC0wLjQwNi0zMi41NzYtMS41ODktNDUuNjI0LTMuNTUgICAgICBjLTAuNDczLTAuMDctMC45MzktMC4xNDctMS4zOTYtMC4yMzJjLTE1LjYyNi0yLjM3My0yMy40NjItNS4yMjQtMjMuNTEyLTguNTU0YzAuMDUtMy4yOTIsNy44ODYtNi4xMjMsMjMuNTEyLTguNDk1ICAgICAgYzAuNDU3LTAuMTA1LDAuOTIzLTAuMjAyLDEuMzk2LTAuMjkxYzguMjQzLTEuMTg4LDE3LjM0LTIuMDYxLDI3LjI5Mi0yLjYxOGM1LjgzMS0wLjQwMywxMS45NDEtMC42OTQsMTguMzMyLTAuODczdi0xLjIyMiAgICAgIGMwLTAuMTE4LDAtMC4yMzQsMC0wLjM1MWMwLjEyMy0zLjI3LDEuMzQ0LTYuMDgxLDMuNjY3LTguNDM3YzIuNDQ2LTIuMzk0LDUuMzk0LTMuNTc4LDguODQ1LTMuNTUgICAgICBjMy40MTMtMC4wMjgsNi4zMjIsMS4xNTYsOC43MjksMy41NWMxLjM3NSwxLjQyMywyLjM0NiwzLjAxNCwyLjkxLDQuNzcxYzAuNDQ2LDEuMjQyLDAuNjU5LDIuNTgsMC42NDEsNC4wMTZ2MS4yMjIgICAgICBjMTguODI3LDAuMzA4LDM1LjIyLDEuNDcyLDQ5LjE3NSwzLjQ5MWMxNi41MTMsMi40NDgsMjQuNzc2LDUuMzc3LDI0Ljc5Miw4Ljc4NmMtMC4wMTYsMy40MjctOC4yNzksNi4zNTUtMjQuNzkyLDguNzg2ICAgICAgYy01Ljc4MSwwLjg2Ny0xMS45ODksMS41ODUtMTguNjIyLDIuMTU0Yy05LjM0NCwwLjc5OS0xOS41MjcsMS4zMDQtMzAuNTUzLDEuNTEzdjI2LjA2N2g5MC4wODYgICAgICBjNS4wMDQtNi4wOTIsMTEuMzg3LTEwLjcwOCwxOS4xNDYtMTMuODQ4YzcuNjE4LTMuMDU3LDE2LjU2MS00LjcwNCwyNi44MjktNC45NDZoMS4zMzljMS4xNzMtMC4wMzksMi4zNzMtMC4wMzksMy42MDcsMGgzOC41MjQgICAgICBDMjc2LjYxLDE4OS4xMzIsMjc3LjgxMywxODkuMTMyLDI3OC45ODYsMTg5LjE3MXoiIGNsaXAtcnVsZT0iZXZlbm9kZCIvPiYjeGE7JiN4YTs8L2c+JiN4YTsmI3hhOzxnPiYjeGE7JiN4YTs8cGF0aCBmaWxsLXJ1bGU9ImV2ZW5vZGQiIGZpbGw9IiMzMzMzMzMiIGQ9Ik0yNTYuMDU4LDI2OS40MTNjMy45MDEsMC4wMTQsNy4yMzgsMS40MTEsMTAuMDEsNC4xODggICAgICBjMi43NiwyLjc1MSw0LjEzNyw2LjA2OSw0LjEzMyw5Ljk1MWMwLjAwNCwzLjkwMS0xLjM3Myw3LjIzNy00LjEzMywxMC4wMDljLTIuNzcxLDIuNzU5LTYuMTA4LDQuMTM3LTEwLjAxLDQuMTMgICAgICBjLTMuODgzLDAuMDA3LTcuMTk5LTEuMzcxLTkuOTUyLTQuMTNjLTIuNzgtMi43NzEtNC4xNzYtNi4xMDctNC4xODktMTAuMDA5YzAuMDE0LTMuODgyLDEuNDA5LTcuMiw0LjE4OS05Ljk1MSAgICAgIEMyNDguODU4LDI3MC44MjQsMjUyLjE3NSwyNjkuNDI3LDI1Ni4wNTgsMjY5LjQxM3oiIGNsaXAtcnVsZT0iZXZlbm9kZCIvPiYjeGE7JiN4YTs8L2c+JiN4YTsmI3hhOzwvZz4mI3hhOyYjeGE7PC9nPiYjeGE7JiN4YTs8L3N2Zz4=;" parent="V3z4afdnI8j49kzJQuYH-69" vertex="1">
          <mxGeometry x="34.41666666666667" y="1.4210854715202004e-14" width="34.41666666666667" height="17.616666666666667" as="geometry" />
        </mxCell>
        <mxCell id="V3z4afdnI8j49kzJQuYH-64" value="" style="shape=image;verticalLabelPosition=bottom;labelBackgroundColor=default;verticalAlign=top;aspect=fixed;imageAspect=0;editableCssRules=.*;image=data:image/svg+xml,PHN2ZyB4bWxuczp4bGluaz0iaHR0cDovL3d3dy53My5vcmcvMTk5OS94bGluayIgeG1sbnM9Imh0dHA6Ly93d3cudzMub3JnLzIwMDAvc3ZnIiB4bWw6c3BhY2U9InByZXNlcnZlIiB2ZXJzaW9uPSIxLjEiIGlkPSLQodC70L7QuV8xIiB2aWV3Qm94PSIwLjUyNTk4MzgxMDQyNDgwNDcgMTQzLjYwNjUyMTYwNjQ0NTMgNTExLjE4MzAxMzkxNjAxNTYgMjYxLjg1MjA1MDc4MTI1IiBoZWlnaHQ9IjQwOS4xNDM4MjkzNDU3MDMxIiB3aWR0aD0iNzk4LjcyMzQ1OTI0Mzc3NDQiPiYjeGE7JiN4YTs8Zz4mI3hhOyYjeGE7PGc+JiN4YTsmI3hhOzxnPiYjeGE7JiN4YTs8cGF0aCBmaWxsLXJ1bGU9ImV2ZW5vZGQiIGZpbGw9IiMzMzMzMzMiIGQ9Ik0yNTYuMTE1LDI1NS4yNzJjLTcuNzg0LDAuMDEtMTQuNDM4LDIuNzgyLTE5Ljk2LDguMzIxICAgICAgYy01LjUzOSw1LjUyMS04LjMxNSwxMi4xNzUtOC4zMjIsMTkuOTU5YzAuMDA3LDcuODAyLDIuNzgzLDE0LjQ3NSw4LjMyMiwyMC4wMTdjNS41MjIsNS41MTksMTIuMTc2LDguMjczLDE5Ljk2LDguMjYyICAgICAgYzcuODA2LDAuMDEyLDE0LjQ3OC0yLjc0MywyMC4wMjEtOC4yNjJjNS41MTktNS41NDIsOC4yNzQtMTIuMjE1LDguMjYzLTIwLjAxN2MwLjAxMi03Ljc4NC0yLjc0NC0xNC40MzgtOC4yNjMtMTkuOTU5ICAgICAgQzI3MC41OTMsMjU4LjA1NSwyNjMuOTIxLDI1NS4yODIsMjU2LjExNSwyNTUuMjcyeiBNMjc4Ljk4NiwxODkuMTcxaDEuMzM5YzEwLjI2OCwwLjI0MiwxOS4yMTEsMS44OSwyNi44MjgsNC45NDYgICAgICBjNy43NTksMy4xNCwxNC4xNCw3Ljc1NiwxOS4xNDYsMTMuODQ4aDkwLjA4NnYtMjYuMDY3Yy0xMS4wMjctMC4yMDktMjEuMjExLTAuNzE0LTMwLjU1Mi0xLjUxMyAgICAgIGMtNi42MzYtMC41NjktMTIuODQyLTEuMjg3LTE4LjYyMy0yLjE1NGMtMTYuNTEzLTIuNDMxLTI0Ljc3NS01LjM1OS0yNC43OTItOC43ODZjMC4wMTctMy40MDksOC4yNzktNi4zMzgsMjQuNzkyLTguNzg2ICAgICAgYzEzLjk1Ni0yLjAyLDMwLjM0OS0zLjE4NCw0OS4xNzUtMy40OTF2LTEuMjIyYy0wLjAxOC0xLjQzNiwwLjE5Ni0yLjc3MywwLjY0LTQuMDE2YzAuNTY1LTEuNzU4LDEuNTM2LTMuMzQ5LDIuOTA5LTQuNzcxICAgICAgYzIuNDEtMi4zOTQsNS4zMTktMy41NzgsOC43MjktMy41NWMzLjQ1MS0wLjAyOCw2LjQwMSwxLjE1Niw4Ljg0OCwzLjU1YzIuMzIzLDIuMzU1LDMuNTQ0LDUuMTY3LDMuNjY0LDguNDM3ICAgICAgYzAsMC4xMTYsMCwwLjIzMiwwLDAuMzUxdjEuMjIyYzYuMzkzLDAuMTc5LDEyLjUwMywwLjQ3LDE4LjMzMSwwLjg3M2M5Ljk1NSwwLjU1OCwxOS4wNTMsMS40MzEsMjcuMjk1LDIuNjE4ICAgICAgYzAuNDc0LDAuMDg5LDAuOTM5LDAuMTg2LDEuMzk2LDAuMjkxYzE1LjYyNiwyLjM3MiwyMy40NjIsNS4yMDMsMjMuNTEyLDguNDk1Yy0wLjA1LDMuMzMtNy44ODYsNi4xODEtMjMuNTEyLDguNTU0ICAgICAgYy0wLjQ1NywwLjA4NS0wLjkyMywwLjE2Mi0xLjM5NiwwLjIzMmMtMTMuMDUxLDEuOTYxLTI4LjI1OSwzLjE0NC00NS42MjYsMy41NXYyNi4xODVINDUyYzMuNDMxLDAuMDEyLDYuMzYsMS4yMzMsOC43ODgsMy42NjYgICAgICBjMi40MzMsMi40MDgsMy42NTUsNS4zMTgsMy42NjUsOC43MjljLTAuMDA3LDIuNDI3LTAuNjI4LDQuNTk5LTEuODYyLDYuNTE3Yy0yLjExNCwyLjgxMi01LjE4MSw0Ljc4OS05LjE5NSw1LjkzNSAgICAgIGMtMzMuOTg0LDguMTQ2LTY3Ljk3LDE2LjI5My0xMDEuOTU3LDI0LjQzOWwzOC45MzQsODEuNTgyYzAuMjI2LDAuNDAyLDAuNDM5LDAuODEyLDAuNjM5LDEuMjIxICAgICAgYzkuMzMyLDI2LjIzNSwyLjgzMyw0Ny4yNDItMTkuNDk1LDYzLjAxOWMtMi44MDgsMi4wMTQtNS44OSwyLjc1My05LjI1MiwyLjIxMmMtMy4zMjUtMC42MTYtNS45NjUtMi4zNDEtNy45MTUtNS4xODEgICAgICBjLTIuMDE3LTIuNzk4LTIuNzU2LTUuODgyLTIuMjEyLTkuMjUxYzAuNTg0LTMuMzQzLDIuMjczLTYsNS4wNjQtNy45NzFjMTIuMDE3LTguNjE3LDE1LjQ5LTIwLjA2MiwxMC40MTYtMzQuMzMxICAgICAgbC00MC45MTEtODUuMzYybC0xMC42NSwyLjYxOHY0Mi41MzRjMC4wMDUsMy4wMzUtMC43NTMsNS44NjctMi4yNjksOC40OTd2MC4wNTdjLTEuNTM0LDIuNjEzLTMuNjEsNC42NjktNi4yMjcsNi4xNjkgICAgICBsLTQyLjk0OCwyNC43Mjl2MC4wNmMtMi42NTUsMS41MDktNS40ODcsMi4yNjctOC40OTcsMi4yNjljLTMuMDIzLTAuMDI1LTUuODU2LTAuOC04LjQ5NS0yLjMyOGwtNDIuODktMjQuNzg5bC0wLjExOC0wLjA1NyAgICAgIGMtMi41ODUtMS41MzYtNC42MjEtMy42MTEtNi4xMS02LjIyNmMtMS41MTktMi42My0yLjI3My01LjQ0NC0yLjI2OS04LjQzOHYtNDIuNDc4bC0xMC43MDctMi42MThsLTQwLjkxMiw4NS4zNjIgICAgICBjLTUuMDczLDE0LjI3LTEuNjAzLDI1LjcxNCwxMC40MTYsMzQuMzMxYzIuNzkyLDEuOTcxLDQuNDgsNC42MjgsNS4wNjMsNy45NzFjMC41NDYsMy4zNjktMC4xOTMsNi40NTMtMi4yMDksOS4yNTEgICAgICBjLTEuOTUxLDIuODQtNC41OSw0LjU2NC03LjkxNiw1LjE4MWMtMy4zNjIsMC41NDEtNi40NDYtMC4xOTgtOS4yNTItMi4yMTJjLTIyLjMyOC0xNS43NzYtMjguODI3LTM2Ljc4My0xOS40OTUtNjMuMDE5ICAgICAgYzAuMi0wLjQwOSwwLjQxNC0wLjgxOCwwLjYzOS0xLjIyMWwzOC45MzQtODEuNTgyYy0zMy45ODctOC4xNDYtNjcuOTcyLTE2LjI5My0xMDEuOTU5LTI0LjQzOSAgICAgIGMtNC4wMTUtMS4xNDYtNy4wNzktMy4xMjMtOS4xOTMtNS45MzVjLTEuMjM0LTEuOTE4LTEuODU1LTQuMDktMS44NjQtNi41MTdjMC4wMTEtMy40MSwxLjIzMi02LjMyLDMuNjY3LTguNzI5ICAgICAgYzIuNDI4LTIuNDMzLDUuMzU4LTMuNjU0LDguNzg5LTMuNjY2aDEwLjgyM1YxODEuNzhjLTE3LjM2OC0wLjQwNi0zMi41NzYtMS41ODktNDUuNjI0LTMuNTUgICAgICBjLTAuNDczLTAuMDctMC45MzktMC4xNDctMS4zOTYtMC4yMzJjLTE1LjYyNi0yLjM3My0yMy40NjItNS4yMjQtMjMuNTEyLTguNTU0YzAuMDUtMy4yOTIsNy44ODYtNi4xMjMsMjMuNTEyLTguNDk1ICAgICAgYzAuNDU3LTAuMTA1LDAuOTIzLTAuMjAyLDEuMzk2LTAuMjkxYzguMjQzLTEuMTg4LDE3LjM0LTIuMDYxLDI3LjI5Mi0yLjYxOGM1LjgzMS0wLjQwMywxMS45NDEtMC42OTQsMTguMzMyLTAuODczdi0xLjIyMiAgICAgIGMwLTAuMTE4LDAtMC4yMzQsMC0wLjM1MWMwLjEyMy0zLjI3LDEuMzQ0LTYuMDgxLDMuNjY3LTguNDM3YzIuNDQ2LTIuMzk0LDUuMzk0LTMuNTc4LDguODQ1LTMuNTUgICAgICBjMy40MTMtMC4wMjgsNi4zMjIsMS4xNTYsOC43MjksMy41NWMxLjM3NSwxLjQyMywyLjM0NiwzLjAxNCwyLjkxLDQuNzcxYzAuNDQ2LDEuMjQyLDAuNjU5LDIuNTgsMC42NDEsNC4wMTZ2MS4yMjIgICAgICBjMTguODI3LDAuMzA4LDM1LjIyLDEuNDcyLDQ5LjE3NSwzLjQ5MWMxNi41MTMsMi40NDgsMjQuNzc2LDUuMzc3LDI0Ljc5Miw4Ljc4NmMtMC4wMTYsMy40MjctOC4yNzksNi4zNTUtMjQuNzkyLDguNzg2ICAgICAgYy01Ljc4MSwwLjg2Ny0xMS45ODksMS41ODUtMTguNjIyLDIuMTU0Yy05LjM0NCwwLjc5OS0xOS41MjcsMS4zMDQtMzAuNTUzLDEuNTEzdjI2LjA2N2g5MC4wODYgICAgICBjNS4wMDQtNi4wOTIsMTEuMzg3LTEwLjcwOCwxOS4xNDYtMTMuODQ4YzcuNjE4LTMuMDU3LDE2LjU2MS00LjcwNCwyNi44MjktNC45NDZoMS4zMzljMS4xNzMtMC4wMzksMi4zNzMtMC4wMzksMy42MDcsMGgzOC41MjQgICAgICBDMjc2LjYxLDE4OS4xMzIsMjc3LjgxMywxODkuMTMyLDI3OC45ODYsMTg5LjE3MXoiIGNsaXAtcnVsZT0iZXZlbm9kZCIvPiYjeGE7JiN4YTs8L2c+JiN4YTsmI3hhOzxnPiYjeGE7JiN4YTs8cGF0aCBmaWxsLXJ1bGU9ImV2ZW5vZGQiIGZpbGw9IiMzMzMzMzMiIGQ9Ik0yNTYuMDU4LDI2OS40MTNjMy45MDEsMC4wMTQsNy4yMzgsMS40MTEsMTAuMDEsNC4xODggICAgICBjMi43NiwyLjc1MSw0LjEzNyw2LjA2OSw0LjEzMyw5Ljk1MWMwLjAwNCwzLjkwMS0xLjM3Myw3LjIzNy00LjEzMywxMC4wMDljLTIuNzcxLDIuNzU5LTYuMTA4LDQuMTM3LTEwLjAxLDQuMTMgICAgICBjLTMuODgzLDAuMDA3LTcuMTk5LTEuMzcxLTkuOTUyLTQuMTNjLTIuNzgtMi43NzEtNC4xNzYtNi4xMDctNC4xODktMTAuMDA5YzAuMDE0LTMuODgyLDEuNDA5LTcuMiw0LjE4OS05Ljk1MSAgICAgIEMyNDguODU4LDI3MC44MjQsMjUyLjE3NSwyNjkuNDI3LDI1Ni4wNTgsMjY5LjQxM3oiIGNsaXAtcnVsZT0iZXZlbm9kZCIvPiYjeGE7JiN4YTs8L2c+JiN4YTsmI3hhOzwvZz4mI3hhOyYjeGE7PC9nPiYjeGE7JiN4YTs8L3N2Zz4=;" parent="V3z4afdnI8j49kzJQuYH-69" vertex="1">
          <mxGeometry x="23.333333333333336" y="37.75" width="34.41666666666667" height="17.616666666666667" as="geometry" />
        </mxCell>
        <mxCell id="V3z4afdnI8j49kzJQuYH-65" value="" style="shape=image;verticalLabelPosition=bottom;labelBackgroundColor=default;verticalAlign=top;aspect=fixed;imageAspect=0;editableCssRules=.*;image=data:image/svg+xml,PHN2ZyB4bWxuczp4bGluaz0iaHR0cDovL3d3dy53My5vcmcvMTk5OS94bGluayIgeG1sbnM9Imh0dHA6Ly93d3cudzMub3JnLzIwMDAvc3ZnIiB4bWw6c3BhY2U9InByZXNlcnZlIiB2ZXJzaW9uPSIxLjEiIGlkPSLQodC70L7QuV8xIiB2aWV3Qm94PSIwLjUyNTk4MzgxMDQyNDgwNDcgMTQzLjYwNjUyMTYwNjQ0NTMgNTExLjE4MzAxMzkxNjAxNTYgMjYxLjg1MjA1MDc4MTI1IiBoZWlnaHQ9IjQwOS4xNDM4MjkzNDU3MDMxIiB3aWR0aD0iNzk4LjcyMzQ1OTI0Mzc3NDQiPiYjeGE7JiN4YTs8Zz4mI3hhOyYjeGE7PGc+JiN4YTsmI3hhOzxnPiYjeGE7JiN4YTs8cGF0aCBmaWxsLXJ1bGU9ImV2ZW5vZGQiIGZpbGw9IiMzMzMzMzMiIGQ9Ik0yNTYuMTE1LDI1NS4yNzJjLTcuNzg0LDAuMDEtMTQuNDM4LDIuNzgyLTE5Ljk2LDguMzIxICAgICAgYy01LjUzOSw1LjUyMS04LjMxNSwxMi4xNzUtOC4zMjIsMTkuOTU5YzAuMDA3LDcuODAyLDIuNzgzLDE0LjQ3NSw4LjMyMiwyMC4wMTdjNS41MjIsNS41MTksMTIuMTc2LDguMjczLDE5Ljk2LDguMjYyICAgICAgYzcuODA2LDAuMDEyLDE0LjQ3OC0yLjc0MywyMC4wMjEtOC4yNjJjNS41MTktNS41NDIsOC4yNzQtMTIuMjE1LDguMjYzLTIwLjAxN2MwLjAxMi03Ljc4NC0yLjc0NC0xNC40MzgtOC4yNjMtMTkuOTU5ICAgICAgQzI3MC41OTMsMjU4LjA1NSwyNjMuOTIxLDI1NS4yODIsMjU2LjExNSwyNTUuMjcyeiBNMjc4Ljk4NiwxODkuMTcxaDEuMzM5YzEwLjI2OCwwLjI0MiwxOS4yMTEsMS44OSwyNi44MjgsNC45NDYgICAgICBjNy43NTksMy4xNCwxNC4xNCw3Ljc1NiwxOS4xNDYsMTMuODQ4aDkwLjA4NnYtMjYuMDY3Yy0xMS4wMjctMC4yMDktMjEuMjExLTAuNzE0LTMwLjU1Mi0xLjUxMyAgICAgIGMtNi42MzYtMC41NjktMTIuODQyLTEuMjg3LTE4LjYyMy0yLjE1NGMtMTYuNTEzLTIuNDMxLTI0Ljc3NS01LjM1OS0yNC43OTItOC43ODZjMC4wMTctMy40MDksOC4yNzktNi4zMzgsMjQuNzkyLTguNzg2ICAgICAgYzEzLjk1Ni0yLjAyLDMwLjM0OS0zLjE4NCw0OS4xNzUtMy40OTF2LTEuMjIyYy0wLjAxOC0xLjQzNiwwLjE5Ni0yLjc3MywwLjY0LTQuMDE2YzAuNTY1LTEuNzU4LDEuNTM2LTMuMzQ5LDIuOTA5LTQuNzcxICAgICAgYzIuNDEtMi4zOTQsNS4zMTktMy41NzgsOC43MjktMy41NWMzLjQ1MS0wLjAyOCw2LjQwMSwxLjE1Niw4Ljg0OCwzLjU1YzIuMzIzLDIuMzU1LDMuNTQ0LDUuMTY3LDMuNjY0LDguNDM3ICAgICAgYzAsMC4xMTYsMCwwLjIzMiwwLDAuMzUxdjEuMjIyYzYuMzkzLDAuMTc5LDEyLjUwMywwLjQ3LDE4LjMzMSwwLjg3M2M5Ljk1NSwwLjU1OCwxOS4wNTMsMS40MzEsMjcuMjk1LDIuNjE4ICAgICAgYzAuNDc0LDAuMDg5LDAuOTM5LDAuMTg2LDEuMzk2LDAuMjkxYzE1LjYyNiwyLjM3MiwyMy40NjIsNS4yMDMsMjMuNTEyLDguNDk1Yy0wLjA1LDMuMzMtNy44ODYsNi4xODEtMjMuNTEyLDguNTU0ICAgICAgYy0wLjQ1NywwLjA4NS0wLjkyMywwLjE2Mi0xLjM5NiwwLjIzMmMtMTMuMDUxLDEuOTYxLTI4LjI1OSwzLjE0NC00NS42MjYsMy41NXYyNi4xODVINDUyYzMuNDMxLDAuMDEyLDYuMzYsMS4yMzMsOC43ODgsMy42NjYgICAgICBjMi40MzMsMi40MDgsMy42NTUsNS4zMTgsMy42NjUsOC43MjljLTAuMDA3LDIuNDI3LTAuNjI4LDQuNTk5LTEuODYyLDYuNTE3Yy0yLjExNCwyLjgxMi01LjE4MSw0Ljc4OS05LjE5NSw1LjkzNSAgICAgIGMtMzMuOTg0LDguMTQ2LTY3Ljk3LDE2LjI5My0xMDEuOTU3LDI0LjQzOWwzOC45MzQsODEuNTgyYzAuMjI2LDAuNDAyLDAuNDM5LDAuODEyLDAuNjM5LDEuMjIxICAgICAgYzkuMzMyLDI2LjIzNSwyLjgzMyw0Ny4yNDItMTkuNDk1LDYzLjAxOWMtMi44MDgsMi4wMTQtNS44OSwyLjc1My05LjI1MiwyLjIxMmMtMy4zMjUtMC42MTYtNS45NjUtMi4zNDEtNy45MTUtNS4xODEgICAgICBjLTIuMDE3LTIuNzk4LTIuNzU2LTUuODgyLTIuMjEyLTkuMjUxYzAuNTg0LTMuMzQzLDIuMjczLTYsNS4wNjQtNy45NzFjMTIuMDE3LTguNjE3LDE1LjQ5LTIwLjA2MiwxMC40MTYtMzQuMzMxICAgICAgbC00MC45MTEtODUuMzYybC0xMC42NSwyLjYxOHY0Mi41MzRjMC4wMDUsMy4wMzUtMC43NTMsNS44NjctMi4yNjksOC40OTd2MC4wNTdjLTEuNTM0LDIuNjEzLTMuNjEsNC42NjktNi4yMjcsNi4xNjkgICAgICBsLTQyLjk0OCwyNC43Mjl2MC4wNmMtMi42NTUsMS41MDktNS40ODcsMi4yNjctOC40OTcsMi4yNjljLTMuMDIzLTAuMDI1LTUuODU2LTAuOC04LjQ5NS0yLjMyOGwtNDIuODktMjQuNzg5bC0wLjExOC0wLjA1NyAgICAgIGMtMi41ODUtMS41MzYtNC42MjEtMy42MTEtNi4xMS02LjIyNmMtMS41MTktMi42My0yLjI3My01LjQ0NC0yLjI2OS04LjQzOHYtNDIuNDc4bC0xMC43MDctMi42MThsLTQwLjkxMiw4NS4zNjIgICAgICBjLTUuMDczLDE0LjI3LTEuNjAzLDI1LjcxNCwxMC40MTYsMzQuMzMxYzIuNzkyLDEuOTcxLDQuNDgsNC42MjgsNS4wNjMsNy45NzFjMC41NDYsMy4zNjktMC4xOTMsNi40NTMtMi4yMDksOS4yNTEgICAgICBjLTEuOTUxLDIuODQtNC41OSw0LjU2NC03LjkxNiw1LjE4MWMtMy4zNjIsMC41NDEtNi40NDYtMC4xOTgtOS4yNTItMi4yMTJjLTIyLjMyOC0xNS43NzYtMjguODI3LTM2Ljc4My0xOS40OTUtNjMuMDE5ICAgICAgYzAuMi0wLjQwOSwwLjQxNC0wLjgxOCwwLjYzOS0xLjIyMWwzOC45MzQtODEuNTgyYy0zMy45ODctOC4xNDYtNjcuOTcyLTE2LjI5My0xMDEuOTU5LTI0LjQzOSAgICAgIGMtNC4wMTUtMS4xNDYtNy4wNzktMy4xMjMtOS4xOTMtNS45MzVjLTEuMjM0LTEuOTE4LTEuODU1LTQuMDktMS44NjQtNi41MTdjMC4wMTEtMy40MSwxLjIzMi02LjMyLDMuNjY3LTguNzI5ICAgICAgYzIuNDI4LTIuNDMzLDUuMzU4LTMuNjU0LDguNzg5LTMuNjY2aDEwLjgyM1YxODEuNzhjLTE3LjM2OC0wLjQwNi0zMi41NzYtMS41ODktNDUuNjI0LTMuNTUgICAgICBjLTAuNDczLTAuMDctMC45MzktMC4xNDctMS4zOTYtMC4yMzJjLTE1LjYyNi0yLjM3My0yMy40NjItNS4yMjQtMjMuNTEyLTguNTU0YzAuMDUtMy4yOTIsNy44ODYtNi4xMjMsMjMuNTEyLTguNDk1ICAgICAgYzAuNDU3LTAuMTA1LDAuOTIzLTAuMjAyLDEuMzk2LTAuMjkxYzguMjQzLTEuMTg4LDE3LjM0LTIuMDYxLDI3LjI5Mi0yLjYxOGM1LjgzMS0wLjQwMywxMS45NDEtMC42OTQsMTguMzMyLTAuODczdi0xLjIyMiAgICAgIGMwLTAuMTE4LDAtMC4yMzQsMC0wLjM1MWMwLjEyMy0zLjI3LDEuMzQ0LTYuMDgxLDMuNjY3LTguNDM3YzIuNDQ2LTIuMzk0LDUuMzk0LTMuNTc4LDguODQ1LTMuNTUgICAgICBjMy40MTMtMC4wMjgsNi4zMjIsMS4xNTYsOC43MjksMy41NWMxLjM3NSwxLjQyMywyLjM0NiwzLjAxNCwyLjkxLDQuNzcxYzAuNDQ2LDEuMjQyLDAuNjU5LDIuNTgsMC42NDEsNC4wMTZ2MS4yMjIgICAgICBjMTguODI3LDAuMzA4LDM1LjIyLDEuNDcyLDQ5LjE3NSwzLjQ5MWMxNi41MTMsMi40NDgsMjQuNzc2LDUuMzc3LDI0Ljc5Miw4Ljc4NmMtMC4wMTYsMy40MjctOC4yNzksNi4zNTUtMjQuNzkyLDguNzg2ICAgICAgYy01Ljc4MSwwLjg2Ny0xMS45ODksMS41ODUtMTguNjIyLDIuMTU0Yy05LjM0NCwwLjc5OS0xOS41MjcsMS4zMDQtMzAuNTUzLDEuNTEzdjI2LjA2N2g5MC4wODYgICAgICBjNS4wMDQtNi4wOTIsMTEuMzg3LTEwLjcwOCwxOS4xNDYtMTMuODQ4YzcuNjE4LTMuMDU3LDE2LjU2MS00LjcwNCwyNi44MjktNC45NDZoMS4zMzljMS4xNzMtMC4wMzksMi4zNzMtMC4wMzksMy42MDcsMGgzOC41MjQgICAgICBDMjc2LjYxLDE4OS4xMzIsMjc3LjgxMywxODkuMTMyLDI3OC45ODYsMTg5LjE3MXoiIGNsaXAtcnVsZT0iZXZlbm9kZCIvPiYjeGE7JiN4YTs8L2c+JiN4YTsmI3hhOzxnPiYjeGE7JiN4YTs8cGF0aCBmaWxsLXJ1bGU9ImV2ZW5vZGQiIGZpbGw9IiMzMzMzMzMiIGQ9Ik0yNTYuMDU4LDI2OS40MTNjMy45MDEsMC4wMTQsNy4yMzgsMS40MTEsMTAuMDEsNC4xODggICAgICBjMi43NiwyLjc1MSw0LjEzNyw2LjA2OSw0LjEzMyw5Ljk1MWMwLjAwNCwzLjkwMS0xLjM3Myw3LjIzNy00LjEzMywxMC4wMDljLTIuNzcxLDIuNzU5LTYuMTA4LDQuMTM3LTEwLjAxLDQuMTMgICAgICBjLTMuODgzLDAuMDA3LTcuMTk5LTEuMzcxLTkuOTUyLTQuMTNjLTIuNzgtMi43NzEtNC4xNzYtNi4xMDctNC4xODktMTAuMDA5YzAuMDE0LTMuODgyLDEuNDA5LTcuMiw0LjE4OS05Ljk1MSAgICAgIEMyNDguODU4LDI3MC44MjQsMjUyLjE3NSwyNjkuNDI3LDI1Ni4wNTgsMjY5LjQxM3oiIGNsaXAtcnVsZT0iZXZlbm9kZCIvPiYjeGE7JiN4YTs8L2c+JiN4YTsmI3hhOzwvZz4mI3hhOyYjeGE7PC9nPiYjeGE7JiN4YTs8L3N2Zz4=;" parent="V3z4afdnI8j49kzJQuYH-69" vertex="1">
          <mxGeometry y="25.25" width="34.41666666666667" height="17.616666666666667" as="geometry" />
        </mxCell>
        <mxCell id="V3z4afdnI8j49kzJQuYH-66" value="" style="shape=image;verticalLabelPosition=bottom;labelBackgroundColor=default;verticalAlign=top;aspect=fixed;imageAspect=0;editableCssRules=.*;image=data:image/svg+xml,PHN2ZyB4bWxuczp4bGluaz0iaHR0cDovL3d3dy53My5vcmcvMTk5OS94bGluayIgeG1sbnM9Imh0dHA6Ly93d3cudzMub3JnLzIwMDAvc3ZnIiB4bWw6c3BhY2U9InByZXNlcnZlIiB2ZXJzaW9uPSIxLjEiIGlkPSLQodC70L7QuV8xIiB2aWV3Qm94PSIwLjUyNTk4MzgxMDQyNDgwNDcgMTQzLjYwNjUyMTYwNjQ0NTMgNTExLjE4MzAxMzkxNjAxNTYgMjYxLjg1MjA1MDc4MTI1IiBoZWlnaHQ9IjQwOS4xNDM4MjkzNDU3MDMxIiB3aWR0aD0iNzk4LjcyMzQ1OTI0Mzc3NDQiPiYjeGE7JiN4YTs8Zz4mI3hhOyYjeGE7PGc+JiN4YTsmI3hhOzxnPiYjeGE7JiN4YTs8cGF0aCBmaWxsLXJ1bGU9ImV2ZW5vZGQiIGZpbGw9IiMzMzMzMzMiIGQ9Ik0yNTYuMTE1LDI1NS4yNzJjLTcuNzg0LDAuMDEtMTQuNDM4LDIuNzgyLTE5Ljk2LDguMzIxICAgICAgYy01LjUzOSw1LjUyMS04LjMxNSwxMi4xNzUtOC4zMjIsMTkuOTU5YzAuMDA3LDcuODAyLDIuNzgzLDE0LjQ3NSw4LjMyMiwyMC4wMTdjNS41MjIsNS41MTksMTIuMTc2LDguMjczLDE5Ljk2LDguMjYyICAgICAgYzcuODA2LDAuMDEyLDE0LjQ3OC0yLjc0MywyMC4wMjEtOC4yNjJjNS41MTktNS41NDIsOC4yNzQtMTIuMjE1LDguMjYzLTIwLjAxN2MwLjAxMi03Ljc4NC0yLjc0NC0xNC40MzgtOC4yNjMtMTkuOTU5ICAgICAgQzI3MC41OTMsMjU4LjA1NSwyNjMuOTIxLDI1NS4yODIsMjU2LjExNSwyNTUuMjcyeiBNMjc4Ljk4NiwxODkuMTcxaDEuMzM5YzEwLjI2OCwwLjI0MiwxOS4yMTEsMS44OSwyNi44MjgsNC45NDYgICAgICBjNy43NTksMy4xNCwxNC4xNCw3Ljc1NiwxOS4xNDYsMTMuODQ4aDkwLjA4NnYtMjYuMDY3Yy0xMS4wMjctMC4yMDktMjEuMjExLTAuNzE0LTMwLjU1Mi0xLjUxMyAgICAgIGMtNi42MzYtMC41NjktMTIuODQyLTEuMjg3LTE4LjYyMy0yLjE1NGMtMTYuNTEzLTIuNDMxLTI0Ljc3NS01LjM1OS0yNC43OTItOC43ODZjMC4wMTctMy40MDksOC4yNzktNi4zMzgsMjQuNzkyLTguNzg2ICAgICAgYzEzLjk1Ni0yLjAyLDMwLjM0OS0zLjE4NCw0OS4xNzUtMy40OTF2LTEuMjIyYy0wLjAxOC0xLjQzNiwwLjE5Ni0yLjc3MywwLjY0LTQuMDE2YzAuNTY1LTEuNzU4LDEuNTM2LTMuMzQ5LDIuOTA5LTQuNzcxICAgICAgYzIuNDEtMi4zOTQsNS4zMTktMy41NzgsOC43MjktMy41NWMzLjQ1MS0wLjAyOCw2LjQwMSwxLjE1Niw4Ljg0OCwzLjU1YzIuMzIzLDIuMzU1LDMuNTQ0LDUuMTY3LDMuNjY0LDguNDM3ICAgICAgYzAsMC4xMTYsMCwwLjIzMiwwLDAuMzUxdjEuMjIyYzYuMzkzLDAuMTc5LDEyLjUwMywwLjQ3LDE4LjMzMSwwLjg3M2M5Ljk1NSwwLjU1OCwxOS4wNTMsMS40MzEsMjcuMjk1LDIuNjE4ICAgICAgYzAuNDc0LDAuMDg5LDAuOTM5LDAuMTg2LDEuMzk2LDAuMjkxYzE1LjYyNiwyLjM3MiwyMy40NjIsNS4yMDMsMjMuNTEyLDguNDk1Yy0wLjA1LDMuMzMtNy44ODYsNi4xODEtMjMuNTEyLDguNTU0ICAgICAgYy0wLjQ1NywwLjA4NS0wLjkyMywwLjE2Mi0xLjM5NiwwLjIzMmMtMTMuMDUxLDEuOTYxLTI4LjI1OSwzLjE0NC00NS42MjYsMy41NXYyNi4xODVINDUyYzMuNDMxLDAuMDEyLDYuMzYsMS4yMzMsOC43ODgsMy42NjYgICAgICBjMi40MzMsMi40MDgsMy42NTUsNS4zMTgsMy42NjUsOC43MjljLTAuMDA3LDIuNDI3LTAuNjI4LDQuNTk5LTEuODYyLDYuNTE3Yy0yLjExNCwyLjgxMi01LjE4MSw0Ljc4OS05LjE5NSw1LjkzNSAgICAgIGMtMzMuOTg0LDguMTQ2LTY3Ljk3LDE2LjI5My0xMDEuOTU3LDI0LjQzOWwzOC45MzQsODEuNTgyYzAuMjI2LDAuNDAyLDAuNDM5LDAuODEyLDAuNjM5LDEuMjIxICAgICAgYzkuMzMyLDI2LjIzNSwyLjgzMyw0Ny4yNDItMTkuNDk1LDYzLjAxOWMtMi44MDgsMi4wMTQtNS44OSwyLjc1My05LjI1MiwyLjIxMmMtMy4zMjUtMC42MTYtNS45NjUtMi4zNDEtNy45MTUtNS4xODEgICAgICBjLTIuMDE3LTIuNzk4LTIuNzU2LTUuODgyLTIuMjEyLTkuMjUxYzAuNTg0LTMuMzQzLDIuMjczLTYsNS4wNjQtNy45NzFjMTIuMDE3LTguNjE3LDE1LjQ5LTIwLjA2MiwxMC40MTYtMzQuMzMxICAgICAgbC00MC45MTEtODUuMzYybC0xMC42NSwyLjYxOHY0Mi41MzRjMC4wMDUsMy4wMzUtMC43NTMsNS44NjctMi4yNjksOC40OTd2MC4wNTdjLTEuNTM0LDIuNjEzLTMuNjEsNC42NjktNi4yMjcsNi4xNjkgICAgICBsLTQyLjk0OCwyNC43Mjl2MC4wNmMtMi42NTUsMS41MDktNS40ODcsMi4yNjctOC40OTcsMi4yNjljLTMuMDIzLTAuMDI1LTUuODU2LTAuOC04LjQ5NS0yLjMyOGwtNDIuODktMjQuNzg5bC0wLjExOC0wLjA1NyAgICAgIGMtMi41ODUtMS41MzYtNC42MjEtMy42MTEtNi4xMS02LjIyNmMtMS41MTktMi42My0yLjI3My01LjQ0NC0yLjI2OS04LjQzOHYtNDIuNDc4bC0xMC43MDctMi42MThsLTQwLjkxMiw4NS4zNjIgICAgICBjLTUuMDczLDE0LjI3LTEuNjAzLDI1LjcxNCwxMC40MTYsMzQuMzMxYzIuNzkyLDEuOTcxLDQuNDgsNC42MjgsNS4wNjMsNy45NzFjMC41NDYsMy4zNjktMC4xOTMsNi40NTMtMi4yMDksOS4yNTEgICAgICBjLTEuOTUxLDIuODQtNC41OSw0LjU2NC03LjkxNiw1LjE4MWMtMy4zNjIsMC41NDEtNi40NDYtMC4xOTgtOS4yNTItMi4yMTJjLTIyLjMyOC0xNS43NzYtMjguODI3LTM2Ljc4My0xOS40OTUtNjMuMDE5ICAgICAgYzAuMi0wLjQwOSwwLjQxNC0wLjgxOCwwLjYzOS0xLjIyMWwzOC45MzQtODEuNTgyYy0zMy45ODctOC4xNDYtNjcuOTcyLTE2LjI5My0xMDEuOTU5LTI0LjQzOSAgICAgIGMtNC4wMTUtMS4xNDYtNy4wNzktMy4xMjMtOS4xOTMtNS45MzVjLTEuMjM0LTEuOTE4LTEuODU1LTQuMDktMS44NjQtNi41MTdjMC4wMTEtMy40MSwxLjIzMi02LjMyLDMuNjY3LTguNzI5ICAgICAgYzIuNDI4LTIuNDMzLDUuMzU4LTMuNjU0LDguNzg5LTMuNjY2aDEwLjgyM1YxODEuNzhjLTE3LjM2OC0wLjQwNi0zMi41NzYtMS41ODktNDUuNjI0LTMuNTUgICAgICBjLTAuNDczLTAuMDctMC45MzktMC4xNDctMS4zOTYtMC4yMzJjLTE1LjYyNi0yLjM3My0yMy40NjItNS4yMjQtMjMuNTEyLTguNTU0YzAuMDUtMy4yOTIsNy44ODYtNi4xMjMsMjMuNTEyLTguNDk1ICAgICAgYzAuNDU3LTAuMTA1LDAuOTIzLTAuMjAyLDEuMzk2LTAuMjkxYzguMjQzLTEuMTg4LDE3LjM0LTIuMDYxLDI3LjI5Mi0yLjYxOGM1LjgzMS0wLjQwMywxMS45NDEtMC42OTQsMTguMzMyLTAuODczdi0xLjIyMiAgICAgIGMwLTAuMTE4LDAtMC4yMzQsMC0wLjM1MWMwLjEyMy0zLjI3LDEuMzQ0LTYuMDgxLDMuNjY3LTguNDM3YzIuNDQ2LTIuMzk0LDUuMzk0LTMuNTc4LDguODQ1LTMuNTUgICAgICBjMy40MTMtMC4wMjgsNi4zMjIsMS4xNTYsOC43MjksMy41NWMxLjM3NSwxLjQyMywyLjM0NiwzLjAxNCwyLjkxLDQuNzcxYzAuNDQ2LDEuMjQyLDAuNjU5LDIuNTgsMC42NDEsNC4wMTZ2MS4yMjIgICAgICBjMTguODI3LDAuMzA4LDM1LjIyLDEuNDcyLDQ5LjE3NSwzLjQ5MWMxNi41MTMsMi40NDgsMjQuNzc2LDUuMzc3LDI0Ljc5Miw4Ljc4NmMtMC4wMTYsMy40MjctOC4yNzksNi4zNTUtMjQuNzkyLDguNzg2ICAgICAgYy01Ljc4MSwwLjg2Ny0xMS45ODksMS41ODUtMTguNjIyLDIuMTU0Yy05LjM0NCwwLjc5OS0xOS41MjcsMS4zMDQtMzAuNTUzLDEuNTEzdjI2LjA2N2g5MC4wODYgICAgICBjNS4wMDQtNi4wOTIsMTEuMzg3LTEwLjcwOCwxOS4xNDYtMTMuODQ4YzcuNjE4LTMuMDU3LDE2LjU2MS00LjcwNCwyNi44MjktNC45NDZoMS4zMzljMS4xNzMtMC4wMzksMi4zNzMtMC4wMzksMy42MDcsMGgzOC41MjQgICAgICBDMjc2LjYxLDE4OS4xMzIsMjc3LjgxMywxODkuMTMyLDI3OC45ODYsMTg5LjE3MXoiIGNsaXAtcnVsZT0iZXZlbm9kZCIvPiYjeGE7JiN4YTs8L2c+JiN4YTsmI3hhOzxnPiYjeGE7JiN4YTs8cGF0aCBmaWxsLXJ1bGU9ImV2ZW5vZGQiIGZpbGw9IiMzMzMzMzMiIGQ9Ik0yNTYuMDU4LDI2OS40MTNjMy45MDEsMC4wMTQsNy4yMzgsMS40MTEsMTAuMDEsNC4xODggICAgICBjMi43NiwyLjc1MSw0LjEzNyw2LjA2OSw0LjEzMyw5Ljk1MWMwLjAwNCwzLjkwMS0xLjM3Myw3LjIzNy00LjEzMywxMC4wMDljLTIuNzcxLDIuNzU5LTYuMTA4LDQuMTM3LTEwLjAxLDQuMTMgICAgICBjLTMuODgzLDAuMDA3LTcuMTk5LTEuMzcxLTkuOTUyLTQuMTNjLTIuNzgtMi43NzEtNC4xNzYtNi4xMDctNC4xODktMTAuMDA5YzAuMDE0LTMuODgyLDEuNDA5LTcuMiw0LjE4OS05Ljk1MSAgICAgIEMyNDguODU4LDI3MC44MjQsMjUyLjE3NSwyNjkuNDI3LDI1Ni4wNTgsMjY5LjQxM3oiIGNsaXAtcnVsZT0iZXZlbm9kZCIvPiYjeGE7JiN4YTs8L2c+JiN4YTsmI3hhOzwvZz4mI3hhOyYjeGE7PC9nPiYjeGE7JiN4YTs8L3N2Zz4=;" parent="V3z4afdnI8j49kzJQuYH-69" vertex="1">
          <mxGeometry x="57.753333333333345" y="20.13499999999997" width="34.41666666666667" height="17.616666666666667" as="geometry" />
        </mxCell>
        <mxCell id="V3z4afdnI8j49kzJQuYH-67" value="&lt;font style=&quot;font-size: 27px;&quot; face=&quot;Times New Roman&quot;&gt;...&lt;/font&gt;" style="text;html=1;align=center;verticalAlign=middle;resizable=0;points=[];autosize=1;strokeColor=none;fillColor=none;" parent="V3z4afdnI8j49kzJQuYH-69" vertex="1">
          <mxGeometry x="28.829999999999963" width="40" height="50" as="geometry" />
        </mxCell>
        <mxCell id="V3z4afdnI8j49kzJQuYH-68" value="" style="shape=image;verticalLabelPosition=bottom;labelBackgroundColor=default;verticalAlign=top;aspect=fixed;imageAspect=0;editableCssRules=.*;image=data:image/svg+xml,PHN2ZyB4bWxuczp4bGluaz0iaHR0cDovL3d3dy53My5vcmcvMTk5OS94bGluayIgeG1sbnM9Imh0dHA6Ly93d3cudzMub3JnLzIwMDAvc3ZnIiB4bWw6c3BhY2U9InByZXNlcnZlIiB2ZXJzaW9uPSIxLjEiIGlkPSLQodC70L7QuV8xIiB2aWV3Qm94PSIwLjUyNTk4MzgxMDQyNDgwNDcgMTQzLjYwNjUyMTYwNjQ0NTMgNTExLjE4MzAxMzkxNjAxNTYgMjYxLjg1MjA1MDc4MTI1IiBoZWlnaHQ9IjQwOS4xNDM4MjkzNDU3MDMxIiB3aWR0aD0iNzk4LjcyMzQ1OTI0Mzc3NDQiPiYjeGE7JiN4YTs8Zz4mI3hhOyYjeGE7PGc+JiN4YTsmI3hhOzxnPiYjeGE7JiN4YTs8cGF0aCBmaWxsLXJ1bGU9ImV2ZW5vZGQiIGZpbGw9IiMzMzMzMzMiIGQ9Ik0yNTYuMTE1LDI1NS4yNzJjLTcuNzg0LDAuMDEtMTQuNDM4LDIuNzgyLTE5Ljk2LDguMzIxICAgICAgYy01LjUzOSw1LjUyMS04LjMxNSwxMi4xNzUtOC4zMjIsMTkuOTU5YzAuMDA3LDcuODAyLDIuNzgzLDE0LjQ3NSw4LjMyMiwyMC4wMTdjNS41MjIsNS41MTksMTIuMTc2LDguMjczLDE5Ljk2LDguMjYyICAgICAgYzcuODA2LDAuMDEyLDE0LjQ3OC0yLjc0MywyMC4wMjEtOC4yNjJjNS41MTktNS41NDIsOC4yNzQtMTIuMjE1LDguMjYzLTIwLjAxN2MwLjAxMi03Ljc4NC0yLjc0NC0xNC40MzgtOC4yNjMtMTkuOTU5ICAgICAgQzI3MC41OTMsMjU4LjA1NSwyNjMuOTIxLDI1NS4yODIsMjU2LjExNSwyNTUuMjcyeiBNMjc4Ljk4NiwxODkuMTcxaDEuMzM5YzEwLjI2OCwwLjI0MiwxOS4yMTEsMS44OSwyNi44MjgsNC45NDYgICAgICBjNy43NTksMy4xNCwxNC4xNCw3Ljc1NiwxOS4xNDYsMTMuODQ4aDkwLjA4NnYtMjYuMDY3Yy0xMS4wMjctMC4yMDktMjEuMjExLTAuNzE0LTMwLjU1Mi0xLjUxMyAgICAgIGMtNi42MzYtMC41NjktMTIuODQyLTEuMjg3LTE4LjYyMy0yLjE1NGMtMTYuNTEzLTIuNDMxLTI0Ljc3NS01LjM1OS0yNC43OTItOC43ODZjMC4wMTctMy40MDksOC4yNzktNi4zMzgsMjQuNzkyLTguNzg2ICAgICAgYzEzLjk1Ni0yLjAyLDMwLjM0OS0zLjE4NCw0OS4xNzUtMy40OTF2LTEuMjIyYy0wLjAxOC0xLjQzNiwwLjE5Ni0yLjc3MywwLjY0LTQuMDE2YzAuNTY1LTEuNzU4LDEuNTM2LTMuMzQ5LDIuOTA5LTQuNzcxICAgICAgYzIuNDEtMi4zOTQsNS4zMTktMy41NzgsOC43MjktMy41NWMzLjQ1MS0wLjAyOCw2LjQwMSwxLjE1Niw4Ljg0OCwzLjU1YzIuMzIzLDIuMzU1LDMuNTQ0LDUuMTY3LDMuNjY0LDguNDM3ICAgICAgYzAsMC4xMTYsMCwwLjIzMiwwLDAuMzUxdjEuMjIyYzYuMzkzLDAuMTc5LDEyLjUwMywwLjQ3LDE4LjMzMSwwLjg3M2M5Ljk1NSwwLjU1OCwxOS4wNTMsMS40MzEsMjcuMjk1LDIuNjE4ICAgICAgYzAuNDc0LDAuMDg5LDAuOTM5LDAuMTg2LDEuMzk2LDAuMjkxYzE1LjYyNiwyLjM3MiwyMy40NjIsNS4yMDMsMjMuNTEyLDguNDk1Yy0wLjA1LDMuMzMtNy44ODYsNi4xODEtMjMuNTEyLDguNTU0ICAgICAgYy0wLjQ1NywwLjA4NS0wLjkyMywwLjE2Mi0xLjM5NiwwLjIzMmMtMTMuMDUxLDEuOTYxLTI4LjI1OSwzLjE0NC00NS42MjYsMy41NXYyNi4xODVINDUyYzMuNDMxLDAuMDEyLDYuMzYsMS4yMzMsOC43ODgsMy42NjYgICAgICBjMi40MzMsMi40MDgsMy42NTUsNS4zMTgsMy42NjUsOC43MjljLTAuMDA3LDIuNDI3LTAuNjI4LDQuNTk5LTEuODYyLDYuNTE3Yy0yLjExNCwyLjgxMi01LjE4MSw0Ljc4OS05LjE5NSw1LjkzNSAgICAgIGMtMzMuOTg0LDguMTQ2LTY3Ljk3LDE2LjI5My0xMDEuOTU3LDI0LjQzOWwzOC45MzQsODEuNTgyYzAuMjI2LDAuNDAyLDAuNDM5LDAuODEyLDAuNjM5LDEuMjIxICAgICAgYzkuMzMyLDI2LjIzNSwyLjgzMyw0Ny4yNDItMTkuNDk1LDYzLjAxOWMtMi44MDgsMi4wMTQtNS44OSwyLjc1My05LjI1MiwyLjIxMmMtMy4zMjUtMC42MTYtNS45NjUtMi4zNDEtNy45MTUtNS4xODEgICAgICBjLTIuMDE3LTIuNzk4LTIuNzU2LTUuODgyLTIuMjEyLTkuMjUxYzAuNTg0LTMuMzQzLDIuMjczLTYsNS4wNjQtNy45NzFjMTIuMDE3LTguNjE3LDE1LjQ5LTIwLjA2MiwxMC40MTYtMzQuMzMxICAgICAgbC00MC45MTEtODUuMzYybC0xMC42NSwyLjYxOHY0Mi41MzRjMC4wMDUsMy4wMzUtMC43NTMsNS44NjctMi4yNjksOC40OTd2MC4wNTdjLTEuNTM0LDIuNjEzLTMuNjEsNC42NjktNi4yMjcsNi4xNjkgICAgICBsLTQyLjk0OCwyNC43Mjl2MC4wNmMtMi42NTUsMS41MDktNS40ODcsMi4yNjctOC40OTcsMi4yNjljLTMuMDIzLTAuMDI1LTUuODU2LTAuOC04LjQ5NS0yLjMyOGwtNDIuODktMjQuNzg5bC0wLjExOC0wLjA1NyAgICAgIGMtMi41ODUtMS41MzYtNC42MjEtMy42MTEtNi4xMS02LjIyNmMtMS41MTktMi42My0yLjI3My01LjQ0NC0yLjI2OS04LjQzOHYtNDIuNDc4bC0xMC43MDctMi42MThsLTQwLjkxMiw4NS4zNjIgICAgICBjLTUuMDczLDE0LjI3LTEuNjAzLDI1LjcxNCwxMC40MTYsMzQuMzMxYzIuNzkyLDEuOTcxLDQuNDgsNC42MjgsNS4wNjMsNy45NzFjMC41NDYsMy4zNjktMC4xOTMsNi40NTMtMi4yMDksOS4yNTEgICAgICBjLTEuOTUxLDIuODQtNC41OSw0LjU2NC03LjkxNiw1LjE4MWMtMy4zNjIsMC41NDEtNi40NDYtMC4xOTgtOS4yNTItMi4yMTJjLTIyLjMyOC0xNS43NzYtMjguODI3LTM2Ljc4My0xOS40OTUtNjMuMDE5ICAgICAgYzAuMi0wLjQwOSwwLjQxNC0wLjgxOCwwLjYzOS0xLjIyMWwzOC45MzQtODEuNTgyYy0zMy45ODctOC4xNDYtNjcuOTcyLTE2LjI5My0xMDEuOTU5LTI0LjQzOSAgICAgIGMtNC4wMTUtMS4xNDYtNy4wNzktMy4xMjMtOS4xOTMtNS45MzVjLTEuMjM0LTEuOTE4LTEuODU1LTQuMDktMS44NjQtNi41MTdjMC4wMTEtMy40MSwxLjIzMi02LjMyLDMuNjY3LTguNzI5ICAgICAgYzIuNDI4LTIuNDMzLDUuMzU4LTMuNjU0LDguNzg5LTMuNjY2aDEwLjgyM1YxODEuNzhjLTE3LjM2OC0wLjQwNi0zMi41NzYtMS41ODktNDUuNjI0LTMuNTUgICAgICBjLTAuNDczLTAuMDctMC45MzktMC4xNDctMS4zOTYtMC4yMzJjLTE1LjYyNi0yLjM3My0yMy40NjItNS4yMjQtMjMuNTEyLTguNTU0YzAuMDUtMy4yOTIsNy44ODYtNi4xMjMsMjMuNTEyLTguNDk1ICAgICAgYzAuNDU3LTAuMTA1LDAuOTIzLTAuMjAyLDEuMzk2LTAuMjkxYzguMjQzLTEuMTg4LDE3LjM0LTIuMDYxLDI3LjI5Mi0yLjYxOGM1LjgzMS0wLjQwMywxMS45NDEtMC42OTQsMTguMzMyLTAuODczdi0xLjIyMiAgICAgIGMwLTAuMTE4LDAtMC4yMzQsMC0wLjM1MWMwLjEyMy0zLjI3LDEuMzQ0LTYuMDgxLDMuNjY3LTguNDM3YzIuNDQ2LTIuMzk0LDUuMzk0LTMuNTc4LDguODQ1LTMuNTUgICAgICBjMy40MTMtMC4wMjgsNi4zMjIsMS4xNTYsOC43MjksMy41NWMxLjM3NSwxLjQyMywyLjM0NiwzLjAxNCwyLjkxLDQuNzcxYzAuNDQ2LDEuMjQyLDAuNjU5LDIuNTgsMC42NDEsNC4wMTZ2MS4yMjIgICAgICBjMTguODI3LDAuMzA4LDM1LjIyLDEuNDcyLDQ5LjE3NSwzLjQ5MWMxNi41MTMsMi40NDgsMjQuNzc2LDUuMzc3LDI0Ljc5Miw4Ljc4NmMtMC4wMTYsMy40MjctOC4yNzksNi4zNTUtMjQuNzkyLDguNzg2ICAgICAgYy01Ljc4MSwwLjg2Ny0xMS45ODksMS41ODUtMTguNjIyLDIuMTU0Yy05LjM0NCwwLjc5OS0xOS41MjcsMS4zMDQtMzAuNTUzLDEuNTEzdjI2LjA2N2g5MC4wODYgICAgICBjNS4wMDQtNi4wOTIsMTEuMzg3LTEwLjcwOCwxOS4xNDYtMTMuODQ4YzcuNjE4LTMuMDU3LDE2LjU2MS00LjcwNCwyNi44MjktNC45NDZoMS4zMzljMS4xNzMtMC4wMzksMi4zNzMtMC4wMzksMy42MDcsMGgzOC41MjQgICAgICBDMjc2LjYxLDE4OS4xMzIsMjc3LjgxMywxODkuMTMyLDI3OC45ODYsMTg5LjE3MXoiIGNsaXAtcnVsZT0iZXZlbm9kZCIvPiYjeGE7JiN4YTs8L2c+JiN4YTsmI3hhOzxnPiYjeGE7JiN4YTs8cGF0aCBmaWxsLXJ1bGU9ImV2ZW5vZGQiIGZpbGw9IiMzMzMzMzMiIGQ9Ik0yNTYuMDU4LDI2OS40MTNjMy45MDEsMC4wMTQsNy4yMzgsMS40MTEsMTAuMDEsNC4xODggICAgICBjMi43NiwyLjc1MSw0LjEzNyw2LjA2OSw0LjEzMyw5Ljk1MWMwLjAwNCwzLjkwMS0xLjM3Myw3LjIzNy00LjEzMywxMC4wMDljLTIuNzcxLDIuNzU5LTYuMTA4LDQuMTM3LTEwLjAxLDQuMTMgICAgICBjLTMuODgzLDAuMDA3LTcuMTk5LTEuMzcxLTkuOTUyLTQuMTNjLTIuNzgtMi43NzEtNC4xNzYtNi4xMDctNC4xODktMTAuMDA5YzAuMDE0LTMuODgyLDEuNDA5LTcuMiw0LjE4OS05Ljk1MSAgICAgIEMyNDguODU4LDI3MC44MjQsMjUyLjE3NSwyNjkuNDI3LDI1Ni4wNTgsMjY5LjQxM3oiIGNsaXAtcnVsZT0iZXZlbm9kZCIvPiYjeGE7JiN4YTs8L2c+JiN4YTsmI3hhOzwvZz4mI3hhOyYjeGE7PC9nPiYjeGE7JiN4YTs8L3N2Zz4=;" parent="V3z4afdnI8j49kzJQuYH-69" vertex="1">
          <mxGeometry x="46.08000000000004" y="37.75" width="34.41666666666667" height="17.616666666666667" as="geometry" />
        </mxCell>
        <mxCell id="V3z4afdnI8j49kzJQuYH-70" value="" style="html=1;shadow=0;dashed=0;align=center;verticalAlign=middle;shape=mxgraph.arrows2.arrow;dy=0.53;dx=37.29;flipH=1;notch=0;fillColor=#B266FF;" parent="1" vertex="1">
          <mxGeometry x="700" y="1144" width="60" height="30" as="geometry" />
        </mxCell>
        <mxCell id="V3z4afdnI8j49kzJQuYH-71" value="" style="endArrow=none;dashed=1;html=1;rounded=0;strokeWidth=2;entryX=0.091;entryY=0.962;entryDx=0;entryDy=0;entryPerimeter=0;" parent="1" edge="1" target="wgA1eYtuguO1ax2D-Wl9-3">
          <mxGeometry width="50" height="50" relative="1" as="geometry">
            <mxPoint x="351" y="1270" as="sourcePoint" />
            <mxPoint x="355" y="1210" as="targetPoint" />
          </mxGeometry>
        </mxCell>
        <mxCell id="5Rq7N4NjsUSilYwalhUD-2" value="&lt;font face=&quot;Times New Roman&quot; style=&quot;font-size: 18px;&quot;&gt;The recovery of \(GSK\) requires the participation of no fewer than \(t+1\) UAVs, in accordance with the threshold mechanism.&lt;/font&gt;" style="rounded=0;whiteSpace=wrap;html=1;strokeWidth=2;fillColor=#E5CCFF;strokeColor=#10739E;" vertex="1" parent="1">
          <mxGeometry x="371" y="1210" width="509" height="50" as="geometry" />
        </mxCell>
      </root>
    </mxGraphModel>
  </diagram>
</mxfile>
